<?xml version="1.0" encoding="utf-8"?>
<!-- Generator: Adobe Illustrator 23.0.0, SVG Export Plug-In . SVG Version: 6.00 Build 0)  -->
<svg version="1.1" xmlns="http://www.w3.org/2000/svg" xmlns:xlink="http://www.w3.org/1999/xlink" x="0px" y="0px"
	 viewBox="0 0 362 221" style="enable-background:new 0 0 362 221;" xml:space="preserve">
<style type="text/css">
	.st0{display:none;}
	.st1{display:inline;}
	.st2{fill:none;stroke:#00FFFF;stroke-miterlimit:10;}
	.st3{opacity:0.3;fill:#B8E9F4;}
	.st4{opacity:0.2;fill:#99BC02;}
	.st5{fill:#FFFFFF;}
	.st6{fill:#1E1E1E;}
	.st7{clip-path:url(#SVGID_2_);fill:#FFFFFF;}
	.st8{opacity:0.9;}
	.st9{opacity:0.5;}
	.st10{fill:#A5CEED;stroke:#FFFFFF;stroke-miterlimit:10;}
	.st11{fill:#A5CEED;}
	.st12{fill:none;stroke:#FFFFFF;stroke-miterlimit:10;}
	.st13{fill:#A2C038;}
	.st14{fill:#5087A5;}
	.st15{fill:#9C9B9B;}
	.st16{fill:none;stroke:#1E1E1E;stroke-width:2.2;stroke-miterlimit:10;}
	.st17{stroke:#000000;stroke-miterlimit:10;}
	.st18{fill:none;stroke:#39638D;stroke-width:5;stroke-miterlimit:10;}
	.st19{fill:none;stroke:#39638D;stroke-width:3;stroke-miterlimit:10;}
	.st20{opacity:0.3;}
	.st21{fill:#211915;}
	.st22{opacity:0.6;}
	.st23{fill:#96969B;stroke:#96969B;stroke-width:0.75;stroke-miterlimit:10;}
	.st24{fill:none;stroke:#39638D;stroke-width:2;stroke-miterlimit:10;}
	.st25{fill:none;stroke:#39638D;stroke-miterlimit:10;}
	.st26{fill:#CAD22F;}
	.st27{fill:#58995F;}
	.st28{fill:#386693;}
	.st29{fill:none;stroke:#39638D;stroke-width:4;stroke-miterlimit:10;}
	.st30{clip-path:url(#SVGID_4_);fill:#FFFFFF;}
	.st31{fill:#9C9A9A;}
	.st32{fill:#A3BD33;}
	.st33{fill:#5788A4;}
	.st34{clip-path:url(#SVGID_6_);fill:#FFFFFF;}
	.st35{clip-path:url(#SVGID_8_);fill:#FFFFFF;}
	.st36{fill:none;stroke:#1E1E1E;stroke-width:3;stroke-miterlimit:10;}
	.st37{fill:none;stroke:#A2C038;stroke-width:3;stroke-miterlimit:10;}
	.st38{fill:none;stroke:#A2C038;stroke-width:2;stroke-miterlimit:10;}
	.st39{fill:none;stroke:#1E1E1E;stroke-width:2;stroke-miterlimit:10;}
	.st40{fill:none;stroke:#386693;stroke-width:3;stroke-miterlimit:10;}
	.st41{clip-path:url(#SVGID_10_);}
	.st42{clip-path:url(#SVGID_12_);fill:#FFFFFF;}
	.st43{fill:none;stroke:#386693;stroke-width:2;stroke-miterlimit:10;}
	.st44{clip-path:url(#SVGID_14_);}
	.st45{fill:none;}
	.st46{fill:none;stroke:#333333;stroke-miterlimit:10;}
</style>
<g id="GRILLA" class="st0">
	<g class="st1">
		<g>
			<g>
				<g>
					<rect x="-118.22" y="-873.2" class="st2" width="119.91" height="4215.2"/>
				</g>
				<g>
					<rect x="1.63" y="-892" class="st2" width="119.91" height="4215.2"/>
					<rect x="121.53" y="-892" class="st2" width="119.91" height="4215.2"/>
				</g>
			</g>
			<g>
				<g>
					<rect x="241.44" y="-873.2" class="st2" width="119.91" height="4215.2"/>
					<rect x="361.34" y="-873.2" class="st2" width="119.91" height="4215.2"/>
				</g>
			</g>
		</g>
	</g>
</g>
<g id="FONDO_COLOR">
</g>
<g id="Capa_13">
</g>
<g id="Capa_1">
</g>
<g id="INDICACIONES">
</g>
<g id="Capa_3">
</g>
<g id="Capa_5">
</g>
<g id="Capa_2">
</g>
<g id="Capa_4">
</g>
<g id="logo">
	<g>
		<path class="st13" d="M137.01,86.27c0,0,8.85-15.91-1.22-26.19c-10.08-10.3-35.27-11.07-35.27-11.07s-2.96,21.92,7.11,32.21
			C117.7,91.51,137.01,86.27,137.01,86.27z M126.32,71.72c7.1,7.24,8.73,12.55,8.73,12.55s-5.74-2.22-12.84-9.46
			c-7.1-7.25-12.87-16.79-12.87-16.79S119.22,64.48,126.32,71.72z"/>
		<path class="st14" d="M142.84,87.59h10.21l2.24-12.69c0.37-2.11,1.57-3.81,3.99-3.81h6.02c2.42,0,3.02,1.71,2.65,3.81l-2.24,12.69
			h8.53c2.42,0,4.7-1.71,5.07-3.81l4.1-23.23h5.17c7,0,3.86-4.86,2.41-6.34l-5.83-5.93l2.63-14.9h-10.76l-0.99,5.61l-9.58-9.76
			c-0.73-0.74-1.79-1.11-2.91-1.11c-1.12,0-2.32,0.37-3.31,1.11l-28.1,21.05c3.32,1.59,6.36,3.55,8.74,5.98
			C152.31,67.93,144.29,84.8,142.84,87.59z"/>
		<g>
			<path class="st15" d="M128.42,137.32c2.74-0.09,5.4-1.53,5.4-3.55c0-2.34,0.65-7.92,1.78-14.53l1.45-7.91
				c1.37-7.43,2.26-11.54,2.82-14.21c0.41-2.19-2.18-4.44-5.08-3.55l-1.29,0.48c-2.34-0.89-4.84-1.69-8.64-1.69
				c-7.51,0-12.19,3.06-14.13,4.52c-11.79,9.36-13.96,24.06-13.96,27.77c0,9.2,6.62,13.56,13.32,13.56c6.29,0,10.57-4.92,13.89-9.44
				c-0.32,1.7-0.57,3.55-0.64,4.92C123.17,135.71,125.59,137.41,128.42,137.32z M121.64,125.78c-2.74,4.04-5.73,5.33-8.07,5.33
				c-4.04,0-5.57-3.96-5.57-9.45c0-6.62,3.23-23.89,15.5-23.89c1.94,0,3.71,0.56,5.17,1.04l-2.1,11.22
				C125.2,118.11,123.82,122.79,121.64,125.78z"/>
			<path class="st15" d="M174.43,99.22c1.77,0,3.23-0.48,3.71-1.77c0.65-1.62-0.16-3.96-2.66-4.52c-1.37-0.33-3.15-0.56-5.57-0.56
				c-19.53,0-28.74,15.58-28.74,28.17c0,10.97,7.75,17.92,20.51,17.92c1.45,0,2.98-0.09,4.2-0.25c2.66-0.4,5.08-1.77,5.81-3.64
				c0.56-1.61-1.13-3.23-3.47-2.58c-1.53,0.56-3.07,0.89-4.84,0.89c-1.94,0-3.96-0.49-6.06-1.86c-3.63-2.26-4.27-7.11-4.27-11.06
				c0-10.98,5.81-21.79,15.66-21.79c1.21,0,2.26,0.24,3.23,0.57h-0.08C172.49,99.05,173.38,99.22,174.43,99.22z"/>
			<path class="st15" d="M187.74,96.62c-0.18,2.11-0.55,5.05-1.37,9.54l-5.6,30.74c-1.1,5.51-2.3,11.47-3.58,15.04
				c-0.64,2.21,1.83,4.23,4.41,4.32c1.84-0.09,4.04-0.19,7.07-0.19c5.87,0,12.48,0.19,18.26,0.37c3.21-0.09,6.33-2.2,7.16-4.87h-0.1
				c0.19-0.28,0.28-0.55,0.28-0.64h-0.09c0.55-1.83-1.74-3.21-3.85-2.48c-2.39,0.83-5.69,1.38-10.65,1.38c-1.84,0-4.13,0-7.16-0.18
				c-1.56-0.1-2.39-0.83-2.39-2.94c0-1.1,0.28-2.84,0.65-4.86c1.83-10.1,3.76-21.11,5.59-31.2c1.29-6.7,2.57-12.21,3.31-14.77
				c0.45-1.97-1.64-4.03-4.22-4.03c-0.06,0-0.12,0-0.19,0h-1.66c-0.07,0-0.14,0-0.21,0C190.29,91.86,187.92,94.02,187.74,96.62z"/>
			<path class="st15" d="M232.79,100.94c4.77,0,7.25-4.68,7.25-7.62c0-3.03-2.48-4.49-5.32-4.49c-5.04,0-7.34,4.58-7.34,7.33
				C227.38,99.47,230.14,100.94,232.79,100.94z"/>
			<path class="st15" d="M269.87,108.18c0.37-1.65-1.47-3.11-3.58-3.11h-1.47c-0.55,0-1.2,0.09-1.84,0.09h-3.76
				c1.65-8.44,3.86-15.69,9.08-16.05c2.48-0.1,5.41-0.65,6.24-2.76c0.81-1.88-0.93-4.03-3.33-4.03c-0.05,0-0.1,0-0.16,0
				c-3.95,0.18-8.35,1.01-12.57,4.03c-4.96,3.77-7.62,8.64-9.36,18.73h-0.09c-2.11-0.28-4.04,0.83-4.41,2.39
				c-0.27,1.55,0.92,3.3,3.03,3.3h0.18c-1.75,10.37-3.49,21.66-5.23,32.03c-2.11,11.66-3.85,20.55-6.88,24.31
				c-0.83,1.11-2.94,3.49-6.15,3.86h0.09c-2.48,0.09-5.05,0.92-5.79,2.94c-0.64,1.74,0.83,3.94,3.12,4.03
				c18.45-1.1,23.04-20,24.5-28.53c0.28-1.57,0.55-3.03,0.83-4.5c0.27-1.47,0.55-3.02,0.82-4.49c1.65-9.54,3.3-20.1,4.96-29.64h2.11
				c1.01,0,3.76,0,4.95,0.09C267.39,110.85,269.59,109.93,269.87,108.18z"/>
			<path class="st15" d="M229.95,151.68c0.27-3.21,1.01-8.62,2.66-17.79l2.66-14.96c0.55-3.12,1.01-5.32,1.38-6.98
				c0.09-0.55,0.18-1,0.27-1.46c0.41-2.02-1.32-3.96-3.62-3.96c-0.01,0-0.01,0-0.02,0c-0.31,0-0.63,0.04-0.95,0.11
				c-1.01,0.18-2.02,0.37-3.3,0.55c-2.85,0.19-3.68,2.76-3.58,4.86c0.09,3.31-0.74,9.36-2.94,21.57l-1.65,8.99
				c-0.64,3.76-1.28,6.43-1.74,8.35c0,0.09-0.09,0.36-0.09,0.46c-0.46,2.2,1.47,4.68,4.13,4.58h0.73
				C226.93,155.99,229.76,154.25,229.95,151.68z"/>
			<path class="st15" d="M294.55,104.98c-6.33,0-14.96,2.57-21.29,10.37c-3.03,3.77-7.89,11.93-7.89,21.93
				c0.18,11.47,3.95,19.92,19.27,20.37c3.67,0,6.51-0.45,8.81-0.93c2.85-0.73,4.59-2.75,5.23-4.86c0.46-1.65-1.56-2.94-3.31-2.12
				c-2.2,0.92-5.04,1.84-8.62,1.84c-8.91,0.09-10.28-7.24-10.28-11.74c0-1.84,0.18-3.21,0.27-3.49c7.16-0.27,13.31-0.55,19.46-3.58
				c3.03-1.56,6.88-4.13,9.18-7.52c1.92-2.94,3.12-6.52,3.12-9.28C308.5,109.74,303.82,104.98,294.55,104.98z M293.63,125.62
				c-4.77,4.49-10.92,8.08-16.61,8.63c0.74-5.23,2.66-14.41,6.33-18.63h0.09c3.94-4.59,7.43-5.23,9.08-5.23
				c2.75,0,5.23,1.93,5.23,6.06C297.76,120.11,296.02,123.33,293.63,125.62z"/>
			<path class="st15" d="M99.69,93.09c0-10.01-7.83-12.84-17.2-12.84c-0.89,0-3.31,0.08-5.01,0.17h-0.72
				c-2.43,0.08-5.01,0.16-7.03,0.16h-1.29c-3.47-0.08-5.41,2.18-5.65,4.6c-0.24,2.18-0.72,5.57-1.78,11.3l-4.44,23.98
				c-0.08,0.32-0.16,0.72-0.24,1.05c-0.72,3.72-1.61,7.99-2.74,11.38c-0.56,2.18,1.54,4.36,4.44,4.36h1.37
				c3.48,0,5.98-2.09,6.38-4.59c0.08-0.57,0.16-1.21,0.24-1.94l-0.08,0.08c0.16-0.32,0.16-0.4,0.16-0.48c0-0.16,0.08-0.32,0.08-0.48
				c0.89-4.93,1.7-9.76,2.59-14.62h3.63C98.08,115.2,99.69,96.96,99.69,93.09z M80.96,107.29h0.08c-2.66,1.13-6.21,1.69-9.93,1.69
				h-1.45L72,96.56c0.16-0.81,0.32-1.45,0.49-2.11c0.08-0.4,0.16-0.72,0.24-1.12c0-0.17,0.09-0.24,0.09-0.4
				c0.32-1.54,0.72-3.72,1.53-7.11c0.65,0,0.24-0.08,0.48-0.08h0.73c0.56,0,1.05-0.09,1.45-0.09h0.89c3.47,0,9.85,0,9.85,7.92
				C87.74,96.72,86.53,104.38,80.96,107.29z"/>
		</g>
		<path class="st14" d="M213.58,167.56c-2.03,0-6.83,2.22-10.21,4.7c-3.66,2.65-5.75,5.63-5.75,8c0,1.79,1.56,3.09,3.65,3.09
			c1.89,0,4.33-0.92,7.1-2.6c2.3-1.45,4.19-2.92,4.19-3.24c0-0.11-0.21-0.27-0.34-0.27c-0.54,0-0.88,0.21-1.08,0.6
			c-0.14,0.33-3.25,2.38-4.73,3.14c-2.5,1.29-3.65,1.68-5,1.68c-1.49,0-2.43-0.76-2.43-1.9c0-1.99,1.68-4.27,3.79-4.97
			c8.85-2.97,12.57-5.03,12.57-6.98C215.33,168.11,214.52,167.56,213.58,167.56z M209.99,171.99c-1.76,0.92-2.91,1.41-7.71,3.14
			c1.63-1.57,2.5-2.32,4.26-3.47c2.71-1.78,5.95-3.3,6.9-3.3c0.4,0,0.61,0.16,0.61,0.44C214.05,169.46,212.63,170.59,209.99,171.99z
			"/>
		<path class="st14" d="M200.33,172.54c0-0.11-0.07-0.22-0.2-0.22c-0.13,0-0.33,0.1-0.54,0.26c-7.3,6.61-10.74,9.09-12.64,9.09
			c-0.54,0-0.95-0.38-0.95-0.87c0-0.66,0.2-1.13,1.08-2.32c1.08-1.56,3.04-3.84,4.12-4.81c2.3-2.12,2.91-2.76,2.91-3.2
			c0-0.27-0.41-0.54-0.81-0.54c-0.28,0-0.54,0.06-0.68,0.16l-7.57,5.19l-4.8,3.62l-1.02,0.65l4.8-5.19c1.28-1.4,2.1-2.81,2.1-3.73
			c0-0.6-0.75-1.18-1.49-1.18c-1.75,0-3.92,1.24-12.03,7.08c4.6-4.49,7.44-7.79,7.44-8.7c0-0.27-0.34-0.54-0.68-0.54
			c-0.54,0-0.61,0.11-1.42,1.41c-1.48,2.11-3.72,4.43-9.26,9.94c-2.03,1.68-3.18,2.87-3.18,3.3c0,0.32,0.34,0.54,0.75,0.54
			c0.27,0,0.47-0.11,0.68-0.28c5-4.43,5.14-4.48,8.11-6.71c4.73-3.46,8.11-5.46,9.26-5.46c0.27,0,0.54,0.22,0.54,0.43
			c0,0.76-0.67,1.95-1.89,3.14l-5.68,5.95c-0.48,0.48-0.74,0.92-0.74,1.13c0,0.28,0.33,0.49,0.68,0.49c0.54,0,1.28-0.28,1.82-0.66
			l6.56-4.7l4.93-3.46l-3.18,3.67c-1.42,1.62-2.16,3.25-2.16,4.54c0,0.98,0.74,1.67,1.69,1.67c1.08,0,1.83-0.32,3.86-1.67
			c2.03-1.3,3.11-2.05,4.39-3.2C199.79,173.46,200.33,172.91,200.33,172.54z"/>
		<path class="st14" d="M170.24,143.93c0.54-0.32,0.81-0.59,0.81-0.81c0-0.27-0.21-0.49-0.43-0.49c-1.36,0-4.92,3.14-10.76,9.41
			c-7.03,7.62-12.22,14.33-18.44,23.85c-0.76-2.65-1.57-3.47-4.11-4.49c-2.38-0.92-6.76-1.4-12.87-1.4c-2.37,0-3.95,0.05-7.35,0.38
			c2.06-2.06,3.79-3.74,5.19-5.03c2.28-2.17,1.41-1.35,2.7-2.43c16.82-14.28,16.82-14.28,16.82-15.04c0-0.27-0.33-0.65-0.54-0.65
			c-0.17,0-0.44,0.16-0.7,0.43c-0.92,1.03-2.49,2.54-2.98,2.92l-13.19,11.03c-3.41,2.98-6.6,5.9-9.63,8.87
			c-5.41,0.54-9.68,0.92-12.38,1.14c-6.6,0.48-9.74,1.02-9.74,1.56c0,0.17,0.16,0.28,0.32,0.28h0.27c1.79-0.28,3.78-0.49,6-0.76
			c2-0.22,0.97-0.16,2.98-0.32l11.9-1.14c-5.14,5.2-7.19,7.52-10.65,12.17c-2.05,2.81-2.97,4.82-2.97,6.54
			c0,0.65,0.38,1.36,0.71,1.36c0.21,0,0.43-0.27,0.43-0.55c0.1-1.57,0.44-2.44,1.94-4.87c2.7-4.1,6.81-8.92,12.38-14.54
			c4-0.44,5.73-0.55,8.65-0.55c11.09,0,15.96,1.62,15.96,5.4c0,1.03-0.43,2.17-1.46,4c-0.32,0.54-0.38,0.71-0.38,0.93
			c0,0.32,0.49,0.7,0.86,0.7c0.38,0,0.54-0.21,0.81-0.81C142.99,173.52,162.73,148.96,170.24,143.93z"/>
		<path class="st14" d="M173.76,170.59c0-0.11-0.2-0.21-0.41-0.21c-0.14,0-0.27,0.05-0.4,0.21c-4.6,4.16-7.84,6.38-11.22,7.58
			c4.59-3.73,5.94-5.58,5.94-8c0-1.14-1.08-2.12-2.3-2.12c-0.27,0-0.81,0.06-1.49,0.11c-0.2,0.05-0.33,0.05-0.47,0.05
			c-0.13,0-0.13,0-1.01-0.1c-0.88-0.11-5.61,2.48-7.98,4.32c-3.92,3.08-5.68,5.52-5.68,8c0,1.3,1.15,2.22,2.63,2.22
			c1.76,0,4.6-1.07,8.25-3.09c4.6-1.46,7.37-2.92,10.82-5.73C172.07,172.43,173.76,170.86,173.76,170.59z M151.98,181.84
			c-1.02,0-1.69-0.54-1.69-1.35c0-2.16,2.1-4.92,5.68-7.46c-0.95,1.62-1.29,2.44-1.29,3.52c0,1.73,0.88,2.54,3.32,3.03
			C155.02,181.19,153.27,181.84,151.98,181.84z M159.49,178.7c-0.54,0.11-1.08,0.16-1.48,0.16c-1.42,0-2.44-0.91-2.44-2.32
			c0-1.68,1.35-3.84,3.25-5.36c1.69-1.29,4.87-2.6,6.35-2.6c0.81,0,1.49,0.6,1.49,1.31C166.65,172.1,165.17,173.94,159.49,178.7z"/>
	</g>
</g>
<g id="Capa_14">
</g>
<g id="computador">
</g>
<g id="Modo_de_aislamiento">
</g>
<g id="Capa_16">
</g>
<g id="_x31_">
</g>
<g id="Capa_18">
</g>
</svg>
