<?xml version="1.0" encoding="utf-8"?>
<!-- Generator: Adobe Illustrator 23.0.0, SVG Export Plug-In . SVG Version: 6.00 Build 0)  -->
<svg version="1.1" xmlns="http://www.w3.org/2000/svg" xmlns:xlink="http://www.w3.org/1999/xlink" x="0px" y="0px"
	 viewBox="0 0 576 1024" style="enable-background:new 0 0 576 1024;" xml:space="preserve">
<style type="text/css">
	.st0{display:none;}
	.st1{display:inline;}
	.st2{fill:none;stroke:#00FFFF;stroke-miterlimit:10;}
	.st3{opacity:0.3;fill:#B8E9F4;}
	.st4{opacity:0.2;fill:#99BC02;}
	.st5{fill:#FFFFFF;}
	.st6{fill:#1E1E1E;}
	.st7{clip-path:url(#SVGID_2_);fill:#FFFFFF;}
	.st8{opacity:0.9;}
	.st9{opacity:0.5;}
	.st10{fill:#A5CEED;stroke:#FFFFFF;stroke-miterlimit:10;}
	.st11{fill:#A5CEED;}
	.st12{fill:none;stroke:#FFFFFF;stroke-miterlimit:10;}
	.st13{fill:#A2C038;}
	.st14{fill:#5087A5;}
	.st15{fill:#9C9B9B;}
	.st16{fill:none;stroke:#1E1E1E;stroke-width:2.2;stroke-miterlimit:10;}
	.st17{stroke:#000000;stroke-miterlimit:10;}
	.st18{fill:none;stroke:#39638D;stroke-width:5;stroke-miterlimit:10;}
	.st19{fill:none;stroke:#39638D;stroke-width:3;stroke-miterlimit:10;}
	.st20{opacity:0.3;}
	.st21{fill:#211915;}
	.st22{opacity:0.6;}
	.st23{fill:#96969B;stroke:#96969B;stroke-width:0.75;stroke-miterlimit:10;}
	.st24{fill:none;stroke:#39638D;stroke-width:2;stroke-miterlimit:10;}
	.st25{fill:none;stroke:#39638D;stroke-miterlimit:10;}
	.st26{fill:#CAD22F;}
	.st27{fill:#58995F;}
	.st28{fill:#386693;}
	.st29{fill:none;stroke:#39638D;stroke-width:4;stroke-miterlimit:10;}
	.st30{clip-path:url(#SVGID_4_);fill:#FFFFFF;}
	.st31{fill:#9C9A9A;}
	.st32{fill:#A3BD33;}
	.st33{fill:#5788A4;}
	.st34{clip-path:url(#SVGID_6_);fill:#FFFFFF;}
	.st35{clip-path:url(#SVGID_8_);fill:#FFFFFF;}
	.st36{fill:none;stroke:#1E1E1E;stroke-width:3;stroke-miterlimit:10;}
	.st37{fill:none;stroke:#A2C038;stroke-width:3;stroke-miterlimit:10;}
	.st38{fill:none;stroke:#A2C038;stroke-width:2;stroke-miterlimit:10;}
	.st39{fill:none;stroke:#1E1E1E;stroke-width:2;stroke-miterlimit:10;}
	.st40{fill:none;stroke:#386693;stroke-width:3;stroke-miterlimit:10;}
	.st41{clip-path:url(#SVGID_10_);}
	.st42{clip-path:url(#SVGID_12_);fill:#FFFFFF;}
	.st43{fill:none;stroke:#386693;stroke-width:2;stroke-miterlimit:10;}
	.st44{clip-path:url(#SVGID_14_);}
	.st45{fill:none;}
	.st46{fill:none;stroke:#333333;stroke-miterlimit:10;}
</style>
<g id="GRILLA" class="st0">
	<g class="st1">
		<g>
			<g>
				<g>
					<g>
						<rect x="-47.99" y="-1474.7" class="st2" width="48.01" height="4215.2"/>
					</g>
					<g>
						<rect x="-0.01" y="-1493.5" class="st2" width="48.01" height="4215.2"/>
						<rect x="47.99" y="-1493.5" class="st2" width="48.01" height="4215.2"/>
					</g>
				</g>
				<g>
					<g>
						<rect x="96" y="-1474.7" class="st2" width="48.01" height="4215.2"/>
						<rect x="144.01" y="-1474.7" class="st2" width="48.01" height="4215.2"/>
					</g>
					<g>
						<rect x="191.99" y="-1493.5" class="st2" width="48.01" height="4215.2"/>
						<rect x="239.99" y="-1493.5" class="st2" width="48.01" height="4215.2"/>
					</g>
				</g>
			</g>
		</g>
		<g>
			<g>
				<g>
					<g>
						<rect x="288" y="-1474.7" class="st2" width="48.01" height="4215.2"/>
						<rect x="336.01" y="-1474.7" class="st2" width="48.01" height="4215.2"/>
					</g>
					<g>
						<rect x="383.99" y="-1493.5" class="st2" width="48.01" height="4215.2"/>
						<rect x="431.99" y="-1493.5" class="st2" width="48.01" height="4215.2"/>
					</g>
				</g>
				<g>
					<g>
						<rect x="480" y="-1474.7" class="st2" width="48.01" height="4215.2"/>
						<rect x="528.01" y="-1474.7" class="st2" width="48.01" height="4215.2"/>
					</g>
					<g>
						<rect x="575.99" y="-1493.5" class="st2" width="48.01" height="4215.2"/>
					</g>
				</g>
			</g>
		</g>
	</g>
</g>
<g id="FONDO_COLOR">
</g>
<g id="Capa_13">
</g>
<g id="Capa_1">
</g>
<g id="INDICACIONES">
</g>
<g id="Capa_3">
</g>
<g id="Capa_5">
</g>
<g id="Capa_2">
</g>
<g id="Capa_4">
</g>
<g id="logo">
	<rect class="st5" width="576" height="1024"/>
</g>
<g id="Capa_14">
</g>
<g id="computador">
</g>
<g id="Modo_de_aislamiento">
	<g>
		<g>
			<path class="st11" d="M243.49,726.48c0-14.07,5.46-28.62,5.69-29.23l0.57-1.49C237,706.6,228.9,722.75,228.9,740.8
				c0,29.02,20.93,53.14,48.51,58.14c-2.21-4.64-9.05-13.49-13.02-18.35C246.21,758.71,243.49,737.3,243.49,726.48z"/>
			<path class="st11" d="M277.34,712.06c2.74,2.85,5.21,5.78,7.42,8.76c3.23-6.48,8.24-12.18,12.92-17.88
				c5.79-7.05,9.86-12.64,12.69-16.85c-6.9-2.82-14.45-4.39-22.36-4.39c-13.1,0-25.2,4.27-35,11.49l2.91,1.66
				C256.35,695.09,266.88,701.16,277.34,712.06z"/>
			<path class="st11" d="M347.1,740.8c0-18.54-8.54-35.07-21.89-45.91c4.02,8.99,8.74,21.33,8.72,35
				c-0.03,12.4-3.19,24.31-9.39,35.4c-7,12.53-18.01,24.11-32.65,34.47C322.72,797.75,347.1,772.13,347.1,740.8z"/>
			<g>
				<path class="st26" d="M287.37,797.22c32.42-22.23,41.81-46.59,41.86-67.34c0.02-20.71-11.3-37.98-13.23-45.23v-0.03
					c-6.82,15.98-22.73,26.88-28.33,41.19c0,0,10.83,16.87,9.88,34.04C296.68,775.81,291.71,789.32,287.37,797.22"/>
			</g>
			<g>
				<path class="st27" d="M268.03,777.6c-15.81-19.02-19.84-37.97-19.84-51.12c0-13.37,5.38-27.56,5.38-27.56
					s41.05,23.42,39.83,60.92c-0.81,24.87-11.6,38.8-11.6,38.8C279.7,791.87,268.05,777.63,268.03,777.6z"/>
			</g>
		</g>
		<g>
			<g>
				<path class="st11" d="M288,809.11c-18.27,0-35.44-7.11-48.35-20.03c-12.92-12.92-20.03-30.09-20.03-48.35
					c0-18.27,7.11-35.44,20.03-48.35s30.09-20.03,48.35-20.03c18.27,0,35.44,7.11,48.35,20.03s20.03,30.09,20.03,48.35
					c0,18.27-7.11,35.44-20.03,48.35C323.44,802,306.27,809.11,288,809.11z M288,674.23c-36.66,0-66.49,29.83-66.49,66.49
					s29.83,66.49,66.49,66.49s66.49-29.83,66.49-66.49S324.66,674.23,288,674.23z"/>
			</g>
		</g>
		<g>
			<path class="st28" d="M166.2,875.64c0.61,0.31,1.13,0.79,1.54,1.44l-1.15,1.04c-0.27-0.57-0.6-0.98-1-1.24
				c-0.4-0.26-0.93-0.38-1.59-0.38c-0.65,0-1.16,0.13-1.52,0.39c-0.36,0.26-0.54,0.6-0.54,1c0,0.38,0.18,0.68,0.53,0.9
				c0.35,0.22,0.98,0.41,1.88,0.58c0.84,0.15,1.52,0.34,2.01,0.58c0.5,0.23,0.86,0.52,1.09,0.87c0.23,0.35,0.34,0.78,0.34,1.29
				c0,0.55-0.16,1.03-0.47,1.45c-0.31,0.42-0.75,0.74-1.32,0.96c-0.56,0.22-1.22,0.33-1.96,0.33c-1.91,0-3.25-0.64-4.04-1.91
				l1.07-1.07c0.3,0.57,0.69,0.99,1.17,1.25c0.48,0.27,1.07,0.4,1.79,0.4c0.67,0,1.2-0.12,1.59-0.35c0.38-0.23,0.58-0.56,0.58-0.99
				c0-0.34-0.17-0.62-0.52-0.83c-0.35-0.21-0.95-0.39-1.81-0.55c-0.86-0.16-1.55-0.36-2.06-0.6c-0.51-0.24-0.88-0.53-1.12-0.88
				c-0.23-0.35-0.35-0.78-0.35-1.28c0-0.53,0.15-1.01,0.44-1.45c0.29-0.44,0.72-0.78,1.27-1.04c0.55-0.26,1.2-0.38,1.94-0.38
				C164.85,875.17,165.58,875.33,166.2,875.64z"/>
			<path class="st28" d="M182.24,883.65l-0.1,1.02c-0.26,0.11-0.55,0.17-0.88,0.17c-0.41,0-0.73-0.08-0.97-0.24s-0.4-0.43-0.48-0.81
				c-0.22,0.33-0.54,0.59-0.97,0.78c-0.43,0.18-0.91,0.28-1.44,0.28c-0.69,0-1.25-0.16-1.68-0.48c-0.43-0.32-0.64-0.78-0.64-1.38
				c0-0.56,0.23-1.03,0.7-1.42c0.46-0.38,1.16-0.66,2.08-0.82l1.81-0.31v-0.38c0-0.44-0.13-0.78-0.38-1.03
				c-0.26-0.25-0.61-0.38-1.07-0.38c-0.94,0-1.55,0.43-1.84,1.28l-1.18-0.63c0.17-0.57,0.52-1.02,1.05-1.35
				c0.53-0.33,1.17-0.5,1.94-0.5c0.92,0,1.65,0.21,2.19,0.64c0.54,0.43,0.81,1.05,0.81,1.88v3.22c0,0.18,0.04,0.31,0.12,0.4
				c0.08,0.09,0.22,0.13,0.41,0.13C181.92,883.7,182.09,883.69,182.24,883.65z M179.08,883.32c0.39-0.25,0.58-0.57,0.58-0.98v-0.85
				l-1.55,0.31c-0.49,0.09-0.86,0.23-1.1,0.4c-0.24,0.17-0.36,0.4-0.36,0.68c0,0.27,0.09,0.47,0.28,0.6
				c0.18,0.14,0.45,0.21,0.79,0.21C178.24,883.69,178.69,883.57,179.08,883.32z"/>
			<path class="st28" d="M191.61,877.59h2.3v1.2h-2.26v5.92h-1.52v-5.92h-1.34v-1.2h1.34v-1.02c0-0.72,0.22-1.28,0.65-1.68
				c0.44-0.4,1.05-0.6,1.84-0.6c0.28,0,0.55,0.03,0.78,0.09c0.24,0.06,0.42,0.14,0.55,0.25l-0.28,1.11
				c-0.22-0.14-0.49-0.21-0.81-0.21c-0.83,0-1.25,0.38-1.25,1.15V877.59z"/>
			<path class="st28" d="M207.4,881.71h-5.21c0.09,0.63,0.31,1.1,0.67,1.43c0.36,0.33,0.83,0.49,1.39,0.49
				c0.46,0,0.85-0.08,1.16-0.25c0.31-0.17,0.52-0.41,0.63-0.72l1.27,0.53c-0.53,1.1-1.55,1.65-3.06,1.65
				c-1.12,0-1.99-0.33-2.62-0.98c-0.63-0.65-0.95-1.56-0.95-2.72c0-1.17,0.3-2.07,0.91-2.72c0.61-0.65,1.46-0.97,2.56-0.97
				c1.04,0,1.85,0.32,2.43,0.95c0.58,0.64,0.87,1.48,0.87,2.53C207.46,881.21,207.44,881.47,207.4,881.71z M202.83,879.14
				c-0.34,0.32-0.55,0.79-0.63,1.41h3.84c-0.08-0.6-0.28-1.06-0.6-1.39c-0.33-0.33-0.75-0.5-1.27-0.5
				C203.61,878.65,203.16,878.82,202.83,879.14z"/>
			<path class="st28" d="M221.56,879.44l-1.42,0.57c-0.25-0.9-0.8-1.35-1.66-1.35c-0.64,0-1.13,0.22-1.48,0.65
				c-0.35,0.44-0.53,1.05-0.53,1.85s0.18,1.41,0.53,1.84c0.35,0.43,0.84,0.64,1.48,0.64c0.48,0,0.87-0.12,1.17-0.36
				c0.29-0.24,0.49-0.58,0.58-1.02l1.39,0.47c-0.21,0.66-0.58,1.18-1.11,1.56c-0.53,0.37-1.2,0.56-2.01,0.56
				c-1.12,0-1.99-0.33-2.62-0.98c-0.63-0.65-0.95-1.56-0.95-2.72c0-1.16,0.31-2.06,0.94-2.72c0.63-0.65,1.49-0.98,2.6-0.98
				C220.03,877.45,221.05,878.11,221.56,879.44z"/>
			<path class="st28" d="M236.04,883.65l-0.1,1.02c-0.26,0.11-0.55,0.17-0.88,0.17c-0.41,0-0.73-0.08-0.97-0.24s-0.4-0.43-0.48-0.81
				c-0.22,0.33-0.54,0.59-0.97,0.78c-0.43,0.18-0.91,0.28-1.44,0.28c-0.69,0-1.25-0.16-1.68-0.48c-0.43-0.32-0.64-0.78-0.64-1.38
				c0-0.56,0.23-1.03,0.7-1.42c0.46-0.38,1.16-0.66,2.08-0.82l1.81-0.31v-0.38c0-0.44-0.13-0.78-0.38-1.03
				c-0.26-0.25-0.61-0.38-1.07-0.38c-0.94,0-1.55,0.43-1.84,1.28l-1.18-0.63c0.17-0.57,0.52-1.02,1.05-1.35
				c0.53-0.33,1.17-0.5,1.94-0.5c0.92,0,1.65,0.21,2.19,0.64c0.54,0.43,0.81,1.05,0.81,1.88v3.22c0,0.18,0.04,0.31,0.12,0.4
				c0.08,0.09,0.22,0.13,0.41,0.13C235.72,883.7,235.9,883.69,236.04,883.65z M232.88,883.32c0.39-0.25,0.58-0.57,0.58-0.98v-0.85
				l-1.55,0.31c-0.49,0.09-0.86,0.23-1.1,0.4c-0.24,0.17-0.36,0.4-0.36,0.68c0,0.27,0.09,0.47,0.28,0.6
				c0.18,0.14,0.45,0.21,0.79,0.21C232.04,883.69,232.49,883.57,232.88,883.32z"/>
			<path class="st28" d="M247.9,877.59l-0.24,1.39c-0.22-0.12-0.52-0.18-0.9-0.18c-0.3,0-0.59,0.08-0.86,0.24
				c-0.27,0.16-0.49,0.4-0.67,0.73c-0.18,0.32-0.26,0.71-0.26,1.17v3.77h-1.52v-7.11h1.29l0.13,1.28c0.4-0.95,1.15-1.42,2.25-1.42
				C247.45,877.45,247.71,877.49,247.9,877.59z"/>
			<path class="st28" d="M261.43,881.71h-5.21c0.09,0.63,0.31,1.1,0.67,1.43c0.36,0.33,0.83,0.49,1.39,0.49
				c0.46,0,0.85-0.08,1.16-0.25c0.31-0.17,0.52-0.41,0.63-0.72l1.27,0.53c-0.53,1.1-1.55,1.65-3.06,1.65
				c-1.12,0-1.99-0.33-2.62-0.98c-0.63-0.65-0.95-1.56-0.95-2.72c0-1.17,0.3-2.07,0.91-2.72c0.61-0.65,1.46-0.97,2.56-0.97
				c1.04,0,1.85,0.32,2.43,0.95c0.58,0.64,0.87,1.48,0.87,2.53C261.49,881.21,261.47,881.47,261.43,881.71z M256.86,879.14
				c-0.34,0.32-0.55,0.79-0.63,1.41h3.84c-0.08-0.6-0.28-1.06-0.6-1.39c-0.33-0.33-0.75-0.5-1.27-0.5
				C257.64,878.65,257.2,878.82,256.86,879.14z"/>
			<path class="st28" d="M284.99,882.24h-3.95l-0.9,2.46h-1.56l3.54-9.39h1.82l3.54,9.39h-1.61L284.99,882.24z M284.54,881
				l-1.08-3.02l-0.43-1.35h-0.04l-0.4,1.32l-1.11,3.04H284.54z"/>
			<path class="st28" d="M299.05,884.23c-0.23,0.19-0.5,0.34-0.83,0.45c-0.33,0.11-0.68,0.16-1.06,0.16c-0.65,0-1.18-0.16-1.57-0.49
				c-0.39-0.33-0.6-0.84-0.6-1.53v-4.04h-1.35v-1.2h1.35v-1.66l1.52-0.43v2.09h2.49v1.2h-2.49v3.78c0,0.34,0.09,0.6,0.28,0.76
				c0.19,0.17,0.44,0.25,0.76,0.25c0.44,0,0.82-0.15,1.15-0.46L299.05,884.23z"/>
			<path class="st28" d="M316.33,877.74c0.4,0.19,0.72,0.49,0.95,0.89c0.24,0.4,0.36,0.89,0.36,1.47v4.61h-1.52v-4.37
				c0-0.56-0.13-0.97-0.4-1.24c-0.27-0.27-0.62-0.4-1.07-0.4c-0.52,0-0.96,0.19-1.32,0.57c-0.36,0.38-0.53,0.9-0.53,1.56v3.87h-1.52
				v-4.37c0-0.56-0.13-0.97-0.4-1.24c-0.27-0.27-0.62-0.4-1.07-0.4c-0.3,0-0.6,0.08-0.88,0.23c-0.28,0.16-0.52,0.4-0.7,0.73
				c-0.18,0.33-0.27,0.75-0.27,1.25v3.78h-1.52v-7.11h1.35l0.07,1.18c0.24-0.44,0.56-0.77,0.97-0.99c0.41-0.22,0.85-0.33,1.34-0.33
				c0.53,0,1.01,0.12,1.44,0.36c0.43,0.24,0.75,0.6,0.96,1.06c0.22-0.46,0.55-0.82,1-1.06c0.45-0.24,0.93-0.36,1.44-0.36
				C315.5,877.45,315.93,877.54,316.33,877.74z"/>
			<path class="st28" d="M331.65,878.43c0.63,0.65,0.94,1.56,0.94,2.72c0,1.16-0.31,2.06-0.94,2.72c-0.63,0.65-1.49,0.98-2.6,0.98
				c-1.11,0-1.98-0.33-2.6-0.98s-0.94-1.56-0.94-2.72c0-1.16,0.31-2.06,0.94-2.72c0.63-0.65,1.49-0.98,2.6-0.98
				C330.16,877.45,331.03,877.77,331.65,878.43z M327.56,879.29c-0.35,0.43-0.52,1.05-0.52,1.86c0,0.81,0.17,1.43,0.52,1.86
				c0.35,0.43,0.84,0.65,1.49,0.65c0.64,0,1.14-0.22,1.49-0.65c0.35-0.44,0.53-1.05,0.53-1.85s-0.18-1.41-0.53-1.85
				c-0.35-0.44-0.85-0.65-1.49-0.65C328.4,878.64,327.91,878.86,327.56,879.29z"/>
			<path class="st28" d="M341.18,884.47c-0.55-0.25-0.97-0.62-1.26-1.12l1.02-0.88c0.18,0.41,0.46,0.71,0.84,0.9
				c0.38,0.19,0.83,0.28,1.37,0.28c0.48,0,0.86-0.08,1.12-0.23c0.27-0.16,0.4-0.36,0.4-0.62c0-0.23-0.12-0.41-0.37-0.55
				c-0.25-0.14-0.67-0.27-1.28-0.39c-1.05-0.2-1.79-0.46-2.22-0.8c-0.43-0.33-0.64-0.8-0.64-1.41c0-0.39,0.12-0.75,0.36-1.09
				c0.24-0.34,0.58-0.61,1.03-0.81c0.45-0.2,0.98-0.31,1.6-0.31c0.79,0,1.42,0.13,1.89,0.39c0.47,0.26,0.84,0.67,1.1,1.22l-1.08,0.8
				c-0.17-0.42-0.41-0.72-0.72-0.92c-0.31-0.19-0.7-0.29-1.17-0.29c-0.43,0-0.78,0.09-1.06,0.26c-0.28,0.18-0.42,0.38-0.42,0.6
				c0,0.26,0.13,0.46,0.38,0.61c0.25,0.15,0.71,0.29,1.37,0.41c1.01,0.18,1.72,0.44,2.13,0.77c0.42,0.33,0.63,0.8,0.63,1.39
				c0,0.64-0.28,1.15-0.83,1.55c-0.55,0.4-1.31,0.6-2.28,0.6C342.37,884.84,341.73,884.72,341.18,884.47z"/>
			<path class="st28" d="M360.15,878.42c0.56,0.65,0.84,1.55,0.84,2.71c0,1.16-0.28,2.07-0.84,2.72c-0.56,0.66-1.33,0.99-2.3,0.99
				c-0.51,0-0.97-0.11-1.37-0.34c-0.4-0.23-0.71-0.54-0.93-0.94v4.13h-1.52v-10.1h1.34l0.07,1.32c0.21-0.45,0.52-0.8,0.95-1.07
				c0.42-0.27,0.91-0.4,1.47-0.4C358.82,877.45,359.59,877.77,360.15,878.42z M358.95,882.96c0.35-0.43,0.52-1.04,0.52-1.81
				c0-0.78-0.17-1.38-0.52-1.82c-0.35-0.44-0.83-0.65-1.44-0.65c-0.58,0-1.04,0.19-1.39,0.58c-0.35,0.39-0.54,0.93-0.58,1.62v0.54
				c0.04,0.68,0.23,1.22,0.58,1.61c0.35,0.39,0.81,0.58,1.39,0.58C358.12,883.61,358.6,883.39,358.95,882.96z"/>
			<path class="st28" d="M374.69,878.13c0.5,0.46,0.75,1.11,0.75,1.96v4.61h-1.52v-4.13c0-1.25-0.51-1.88-1.52-1.88
				c-0.53,0-0.99,0.18-1.37,0.55c-0.38,0.37-0.57,0.93-0.57,1.69v3.76h-1.52v-10.31h1.52v4.34c0.24-0.44,0.55-0.76,0.95-0.97
				c0.39-0.21,0.85-0.31,1.36-0.31C373.55,877.45,374.2,877.67,374.69,878.13z"/>
			<path class="st28" d="M390.02,881.71h-5.21c0.09,0.63,0.31,1.1,0.67,1.43c0.36,0.33,0.83,0.49,1.39,0.49
				c0.46,0,0.85-0.08,1.16-0.25c0.31-0.17,0.52-0.41,0.63-0.72l1.27,0.53c-0.53,1.1-1.55,1.65-3.06,1.65
				c-1.12,0-1.99-0.33-2.62-0.98c-0.63-0.65-0.95-1.56-0.95-2.72c0-1.17,0.3-2.07,0.91-2.72c0.61-0.65,1.46-0.97,2.56-0.97
				c1.04,0,1.85,0.32,2.43,0.95c0.58,0.64,0.87,1.48,0.87,2.53C390.08,881.21,390.06,881.47,390.02,881.71z M385.45,879.14
				c-0.34,0.32-0.55,0.79-0.63,1.41h3.84c-0.08-0.6-0.28-1.06-0.6-1.39c-0.33-0.33-0.75-0.5-1.27-0.5
				C386.23,878.65,385.79,878.82,385.45,879.14z"/>
			<path class="st28" d="M402.41,877.59l-0.24,1.39c-0.22-0.12-0.52-0.18-0.9-0.18c-0.3,0-0.59,0.08-0.86,0.24
				c-0.27,0.16-0.49,0.4-0.67,0.73c-0.18,0.32-0.26,0.71-0.26,1.17v3.77h-1.52v-7.11h1.29l0.13,1.28c0.4-0.95,1.15-1.42,2.25-1.42
				C401.96,877.45,402.22,877.49,402.41,877.59z"/>
			<path class="st28" d="M415.94,881.71h-5.21c0.09,0.63,0.31,1.1,0.67,1.43c0.36,0.33,0.83,0.49,1.39,0.49
				c0.46,0,0.85-0.08,1.16-0.25c0.31-0.17,0.52-0.41,0.63-0.72l1.27,0.53c-0.53,1.1-1.55,1.65-3.06,1.65
				c-1.12,0-1.99-0.33-2.62-0.98c-0.63-0.65-0.95-1.56-0.95-2.72c0-1.17,0.3-2.07,0.91-2.72c0.61-0.65,1.46-0.97,2.56-0.97
				c1.04,0,1.85,0.32,2.43,0.95c0.58,0.64,0.87,1.48,0.87,2.53C416,881.21,415.98,881.47,415.94,881.71z M411.37,879.14
				c-0.34,0.32-0.55,0.79-0.63,1.41h3.84c-0.08-0.6-0.28-1.06-0.6-1.39c-0.33-0.33-0.75-0.5-1.27-0.5
				C412.15,878.65,411.71,878.82,411.37,879.14z"/>
		</g>
		<g>
			<path class="st28" d="M184.63,831.57c2.21,1.91,3.31,4.61,3.31,8.1c0,3.38-1.1,6.02-3.31,7.92c-2.21,1.9-5.29,2.85-9.26,2.85
				h-7.19v12.42h-7.14V828.7h14.33C179.34,828.7,182.43,829.65,184.63,831.57z M179.15,843.57c1.03-0.88,1.55-2.2,1.55-3.96
				s-0.52-3.07-1.55-3.93c-1.03-0.86-2.66-1.29-4.86-1.29h-6.1v10.5h6.1C176.49,844.89,178.12,844.45,179.15,843.57z"/>
			<path class="st28" d="M219.04,854.51H205.9l-2.79,8.33h-7.29l12.47-34.14h8.54l12.47,34.14h-7.4L219.04,854.51z M217.28,849.23
				l-3.21-9.62l-1.55-5.17h-0.1l-1.45,5.07l-3.31,9.73H217.28z"/>
			<path class="st28" d="M265.29,860.85c-2.55,1.67-5.61,2.51-9.16,2.51c-3.35,0-6.26-0.71-8.74-2.12
				c-2.48-1.41-4.39-3.44-5.72-6.08c-1.33-2.64-1.99-5.77-1.99-9.39c0-3.62,0.66-6.75,1.99-9.39c1.33-2.64,3.22-4.66,5.69-6.08
				c2.47-1.41,5.35-2.12,8.67-2.12c3.55,0,6.56,0.74,9.03,2.22c2.47,1.48,4.16,3.69,5.1,6.62l-6.47,2.74
				c-0.55-2.03-1.41-3.5-2.59-4.4c-1.17-0.9-2.76-1.35-4.76-1.35c-2.9,0-5.17,1.02-6.8,3.05c-1.64,2.04-2.46,4.93-2.46,8.69
				c0,3.76,0.79,6.66,2.38,8.69c1.59,2.04,3.83,3.05,6.73,3.05c4.17,0,6.79-2.02,7.86-6.05l6.57,1.97
				C269.62,856.7,267.84,859.18,265.29,860.85z"/>
			<path class="st28" d="M310.14,857.1v5.74H285V828.7h7.14v28.4H310.14z"/>
			<path class="st28" d="M331.51,862.84h-7.14V828.7h7.14V862.84z"/>
			<path class="st28" d="M355.82,834.44v8.64h14.54v5.79h-14.54v13.97h-7.14V828.7h25.56v5.74H355.82z"/>
			<path class="st28" d="M414.96,857.1v5.74h-26.33V828.7h25.61v5.74h-18.47v8.48h14.54v5.48h-14.54v8.69H414.96z"/>
		</g>
	</g>
</g>
<g id="Capa_16">
</g>
<g id="_x31_">
	<g>
		<g>
			<g>
				<g class="st20">
					<g>
						<g>
							<path class="st21" d="M478.08,467.14c-7.07,0-14.06,0-21.13,0c0.09,0.22,0.14,0.38,0.21,0.54c0.92,1.94,0.75,3.83-0.44,5.58
								c-1.28,1.88-3.05,2.99-5.39,2.88c-1.67-0.07-3.07-0.84-4.1-2.12c-0.57-0.71-1.16-0.97-2.04-0.91
								c-0.98,0.07-1.96,0.04-2.94,0.02c-0.37-0.01-0.59,0.11-0.8,0.41c-0.56,0.79-1.28,1.41-2.13,1.88
								c-1.73,0.95-3.51,1.06-5.26,0.11c-2.3-1.25-3.64-3.14-3.51-5.85c0.03-0.63,0.3-1.26,0.48-1.88c0.06-0.21,0.17-0.4,0.3-0.69
								c-0.73,0-1.38-0.04-2.02,0.01c-1.11,0.08-1.82-0.73-1.82-1.81c0.03-8.88,0.02-17.75,0.02-26.63c0-0.64,0.1-1.24,0.71-1.55
								c0.34-0.17,0.77-0.24,1.16-0.24c5.36-0.02,10.71-0.01,16.07-0.01c7.29,0,14.58-0.01,21.88-0.01c7.27,0,14.53,0.02,21.8-0.01
								c1.24-0.01,1.83,0.78,1.83,1.86c-0.03,8.05-0.01,16.09-0.01,24.14c0,0.35,0,0.7,0,1.11c0.98,0,1.92,0,2.97,0
								c0-0.27,0-0.53,0-0.8c0-4.53,0.04-9.05-0.02-13.58c-0.02-1.62,0.62-2.2,2.13-2.18c3.22,0.05,6.44,0.01,9.66,0.02
								c1.14,0,1.52,0.3,1.95,1.39c0.77,1.96,1.58,3.92,2.34,5.88c0.18,0.47,0.47,0.72,0.92,0.9c1.99,0.77,3.97,1.58,5.95,2.37
								c1.02,0.41,1.27,0.77,1.27,1.88c0,3.87,0,7.74,0,11.62c0,1.09-0.57,1.65-1.69,1.66c-2.04,0.01-4.07,0.02-6.11,0
								c-0.45,0-0.71,0.14-0.99,0.5c-1.25,1.58-2.83,2.55-4.91,2.52c-1.83-0.02-3.31-0.84-4.43-2.22c-0.5-0.62-1.01-0.81-1.77-0.8
								c-2.99,0.04-5.98,0.02-8.98,0c-0.48,0-0.76,0.15-1.06,0.52c-1.23,1.54-2.79,2.54-4.84,2.5c-2.38-0.05-4.07-1.3-5.25-3.28
								c-1.01-1.7-1.02-3.48-0.16-5.27C477.95,467.47,478,467.33,478.08,467.14z M487.81,464c0-8.06,0-16.02,0-24
								c-19.09,0-38.13,0-57.18,0c0,8.03,0,16.01,0,24C449.71,464,468.73,464,487.81,464z M514.97,470.03
								c0.01-0.18,0.04-0.33,0.04-0.47c0-2.69,0-5.38-0.01-8.07c0-0.92-0.01-0.92-0.9-1.27c-1.82-0.73-3.63-1.46-5.46-2.18
								c-0.58-0.23-0.96-0.6-1.18-1.18c-0.49-1.27-1-2.52-1.5-3.78c-0.34-0.86-0.7-1.71-1.03-2.54c-2.68,0-5.29,0-7.92,0
								c0,6.52,0,12.99,0,19.48c0.27,0.02,0.5,0.04,0.72,0.04c0.22,0,0.43-0.03,0.64-0.04c0.47-3.29,2.76-5.74,5.53-5.97
								c1.33-0.11,2.56,0.17,3.66,0.91c1.81,1.21,2.88,2.89,3.03,5.07C512.08,470.03,513.51,470.03,514.97,470.03z M436.63,473.09
								c1.76,0,2.95-1.22,2.94-3.01c-0.01-1.82-1.18-2.97-3.05-2.98c-1.74-0.01-2.92,1.17-2.93,2.93
								C433.58,471.91,434.75,473.09,436.63,473.09z M454.66,470.09c-0.01-1.81-1.21-2.99-3.05-2.99c-1.78,0.01-2.96,1.21-2.94,3
								c0.02,1.85,1.18,3,3.04,2.98C453.51,473.07,454.67,471.89,454.66,470.09z M504.48,473.09c1.79,0,2.99-1.2,2.99-2.98
								c0-1.85-1.18-3.01-3.04-3.01c-1.77,0.01-2.94,1.17-2.95,2.93C501.48,471.9,502.65,473.09,504.48,473.09z M483.36,473.08
								c1.82,0,3.01-1.2,2.99-3.03c-0.02-1.77-1.22-2.96-3-2.95c-1.82,0-3,1.21-2.98,3.04
								C480.38,471.94,481.55,473.09,483.36,473.08z M493.85,467.16c-1.78,0-3.47,0-5.12,0c0.28,0.98,0.55,1.91,0.82,2.85
								c1.41,0,2.85,0,4.3,0C493.85,469.03,493.85,468.11,493.85,467.16z M446.32,467.1c-1.47,0.04-2.94-0.05-4.38,0.02
								c0.3,1.02,0.57,1.94,0.85,2.9c0.87,0,1.81,0,2.66,0C445.75,469.02,446.02,468.1,446.32,467.1z"/>
							<path class="st21" d="M436.54,461.03c-1.01,0-1.95,0-2.96,0c0-6.03,0-12.02,0-18.06c0.97,0,1.93,0,2.96,0
								C436.54,448.97,436.54,454.96,436.54,461.03z"/>
							<path class="st21" d="M442.58,461.03c-1,0-1.95,0-2.96,0c0-6.02,0-12.01,0-18.06c0.97,0,1.93,0,2.96,0
								C442.58,448.97,442.58,454.96,442.58,461.03z"/>
							<path class="st21" d="M445.66,442.95c0.99,0,1.94,0,2.95,0c0,6.01,0,12,0,18.06c-0.96,0-1.92,0-2.95,0
								C445.66,455.01,445.66,449.03,445.66,442.95z"/>
							<path class="st21" d="M454.67,442.98c0,6.02,0,11.99,0,18.08c-0.5,0-0.99,0-1.48,0c-0.48,0-0.95,0-1.54,0
								c-0.03-6.03-0.01-12.02-0.01-18.08C452.65,442.98,453.61,442.98,454.67,442.98z"/>
							<path class="st21" d="M457.73,442.95c0.99,0,1.94,0,2.95,0c0,6.01,0,12,0,18.06c-0.96,0-1.92,0-2.95,0
								C457.73,455.01,457.73,449.02,457.73,442.95z"/>
							<path class="st21" d="M463.76,442.9c0.67,0,1.27,0,1.87,0c0.35,0,0.69,0,1.1,0c0,6.07,0,12.06,0,18.16c-0.51,0-1,0-1.49,0
								c-0.47,0-0.94,0-1.47,0C463.76,455.01,463.76,449.02,463.76,442.9z"/>
							<path class="st21" d="M472.76,461.03c-1.01,0-1.95,0-2.96,0c0-6.02,0-12.01,0-18.06c0.97,0,1.93,0,2.96,0
								C472.76,448.96,472.76,454.95,472.76,461.03z"/>
							<path class="st21" d="M478.79,461.03c-1,0-1.94,0-2.95,0c0-6.02,0-12,0-18.1c0.96-0.06,1.92-0.02,2.95,0
								C478.79,448.97,478.79,454.96,478.79,461.03z"/>
							<path class="st21" d="M481.87,442.95c1.03,0,1.97,0,2.97,0c0,6.03,0,12.02,0,18.12c-0.52,0-1.01,0-1.51,0
								c-0.47,0-0.94,0-1.46,0C481.87,455,481.87,449.01,481.87,442.95z"/>
						</g>
					</g>
				</g>
			</g>
		</g>
		<g>
			<g class="st22">
				<g>
					<g>
						<path class="st23" d="M82.21,388.17c-8.98,0-17.96,0-26.94,0c-1.3,0-2.27-0.55-2.98-1.62c-0.34-0.51-0.49-1.08-0.49-1.68
							c-0.01-1.83-0.01-3.66,0-5.5c0-0.74,0.21-1.43,0.7-2c0.25-0.29,0.23-0.52,0.01-0.81c-0.53-0.68-0.72-1.45-0.71-2.31
							c0.02-1.65,0.02-3.3,0-4.95c-0.01-0.83,0.2-1.58,0.74-2.22c0.23-0.27,0.22-0.47-0.01-0.74c-0.54-0.64-0.74-1.39-0.74-2.22
							c0.02-1.7,0.05-3.41-0.01-5.11c-0.06-1.99,1.79-3.63,3.45-3.53c0.36,0.02,0.72,0,1.08-0.01c0.56-0.01,0.57-0.02,0.59-0.55
							c0.06-1.07,0.32-2.07,0.91-2.99c1.02-1.6,2.47-2.51,4.33-2.81c0.49-0.08,0.51-0.08,0.33-0.56c-0.44-1.19-0.6-2.39-0.31-3.64
							c0.33-1.43,1.03-2.63,2.2-3.54c0.12-0.09,0.24-0.19,0.37-0.28c0.19-0.14,0.26-0.31,0.12-0.53c-0.07-0.11-0.12-0.23-0.17-0.35
							c-0.23-0.56-0.07-1.03,0.44-1.31c0.48-0.26,0.9-0.15,1.27,0.34c0.09,0.12,0.2,0.25,0.25,0.39c0.15,0.47,0.48,0.53,0.91,0.48
							c1.53-0.19,2.9,0.23,4.15,1.1c0.32,0.22,0.61,0.64,0.92,0.65c0.3,0.01,0.62-0.39,0.92-0.63c0.7-0.56,1.53-0.88,2.38-1.05
							c0.47-0.09,0.71-0.27,0.91-0.67c0.88-1.71,2.3-2.79,4.16-3.16c2.8-0.56,5.37,0.72,6.64,3.13c0.22,0.42,0.47,0.62,0.97,0.71
							c1.04,0.2,2,0.67,2.81,1.39c0.42,0.37,0.44,0.37,0.91-0.01c0.71-0.58,1.48-1.03,2.36-1.27c3.25-0.92,6.72,1.05,7.55,4.27
							c0.11,0.42,0.21,0.69,0.72,0.7c0.41,0.01,0.69,0.38,0.74,0.77c0.06,0.49-0.12,0.98-0.58,1.05c-0.72,0.11-0.87,0.58-1,1.14
							c-0.08,0.34-0.35,0.72-0.26,0.98c0.07,0.21,0.58,0.25,0.88,0.39c1.84,0.84,2.95,2.29,3.42,4.23c0.09,0.37,0.15,0.76,0.16,1.14
							c0.01,0.37,0.14,0.5,0.51,0.5c0.83-0.01,1.65,0.04,2.48,0c1.36-0.06,2.97,1.16,3.3,2.67c0.06,0.27,0.08,0.56,0.08,0.84
							c0.01,1.73,0,3.46,0.01,5.19c0,0.8-0.2,1.54-0.72,2.15c-0.26,0.3-0.22,0.51,0.02,0.8c0.49,0.6,0.71,1.3,0.7,2.08
							c-0.01,1.73-0.02,3.46,0,5.19c0.01,0.78-0.19,1.49-0.65,2.1c-0.25,0.33-0.32,0.59-0.02,0.94c0.52,0.62,0.67,1.37,0.67,2.17
							c-0.01,1.7-0.03,3.41,0,5.11c0.04,2.18-1.91,3.5-3.46,3.49C100.22,388.14,91.21,388.17,82.21,388.17z M82.23,377.94
							c-2.12,0-4.23,0-6.35,0c-6.73,0-13.47,0.01-20.2-0.01c-1.12,0-1.96,0.59-1.98,1.78c-0.02,1.6-0.03,3.2,0,4.8
							c0.02,1.12,0.7,1.74,1.83,1.75c0.21,0,0.41,0,0.62,0c11.69,0,23.38,0,35.06,0c5.83,0,11.66,0,17.49-0.01
							c0.28,0,0.58,0.01,0.84-0.07c0.78-0.22,1.2-0.83,1.21-1.77c0.02-1.52-0.01-3.04,0.01-4.57c0.01-1.22-0.78-1.93-2-1.92
							C99.93,377.95,91.08,377.94,82.23,377.94z M82.24,367.72c-1.24,0-2.48,0-3.71,0c-7.63,0-15.27,0-22.9,0
							c-1.23,0-1.89,0.56-1.92,1.72c-0.04,1.62-0.03,3.25,0,4.87c0.02,0.96,0.71,1.63,1.66,1.71c0.18,0.01,0.36,0.01,0.54,0.01
							c2.86,0,5.73,0,8.59,0c11.53,0,23.06,0,34.59,0c3.25,0,6.5-0.02,9.75,0.01c1.1,0.01,2-0.89,1.94-1.94
							c-0.05-0.93-0.01-1.86-0.01-2.79c0-0.57,0.01-1.14,0-1.7c-0.03-1.28-0.64-1.89-1.91-1.9c-0.31,0-0.62,0-0.93,0
							C99.37,367.72,90.81,367.72,82.24,367.72z M82.23,357.49c0-0.01,0-0.01,0-0.01c-0.1,0-0.21,0-0.31,0
							c-8.57,0-17.13,0.01-25.7,0.01c-0.34,0-0.67,0.01-1.01,0c-0.39-0.01-0.7,0.15-0.97,0.4c-0.41,0.38-0.55,0.85-0.55,1.39
							c0.01,1.47,0,2.94,0,4.41c0,1.4,0.62,2.01,2.03,2.01c12.05,0,24.1,0,36.15,0c5.68,0,11.35,0,17.03,0
							c1.2,0,1.86-0.66,1.87-1.86c0.01-1.52,0.01-3.04,0-4.57c-0.01-1.19-0.63-1.79-1.83-1.79c-3.25,0-6.5,0-9.75,0
							C93.53,357.49,87.88,357.49,82.23,357.49z M73,346.22c-0.05,2.21,1.76,4.12,4.14,4.1c2.49-0.02,4.14-2.08,4.09-4.17
							c-0.06-2.38-1.76-4.11-4.08-4.1C74.48,342.07,72.97,344.05,73,346.22z M96.39,350.35c0.26-0.04,0.65-0.07,1.02-0.17
							c1.33-0.37,2.24-1.21,2.78-2.47c0.12-0.27,0.05-0.44-0.23-0.54c-0.1-0.03-0.19-0.07-0.28-0.13c-0.35-0.23-0.54-0.54-0.49-0.98
							c0.05-0.4,0.29-0.64,0.64-0.8c0.47-0.21,0.48-0.22,0.28-0.7c-0.1-0.24-0.21-0.47-0.36-0.68c-1.01-1.37-2.33-2.02-4.07-1.76
							c-1.39,0.21-2.43,0.95-3.02,2.15C91.27,347.16,93.18,350.16,96.39,350.35z M87.25,350.34c1.23-0.06,2.25-0.42,3.07-1.26
							c0.29-0.3,0.35-0.56,0.2-0.96c-0.44-1.23-0.45-2.5-0.04-3.72c0.21-0.62,0.02-0.98-0.41-1.33c-1.78-1.5-4.57-1.31-5.97,0.59
							c-0.99,1.34-1.2,2.75-0.47,4.29C84.39,349.51,85.68,350.21,87.25,350.34z M63.94,346.22c0.13,0.52,0.18,1.07,0.39,1.56
							c0.68,1.6,1.95,2.45,3.66,2.55c1.21,0.07,2.26-0.42,3.13-1.27c0.25-0.25,0.34-0.5,0.2-0.89c-0.44-1.25-0.48-2.54-0.04-3.79
							c0.2-0.57,0.01-0.91-0.39-1.27c-0.73-0.64-1.58-0.94-2.53-1.05c-0.35-0.04-0.47,0.02-0.56,0.4c-0.19,0.82-0.95,1.11-1.59,0.59
							c-0.38-0.31-0.59-0.19-0.84,0.06C64.51,343.96,63.96,344.95,63.94,346.22z M63.03,355.46c1.19,0,2.37,0.01,3.56,0
							c0.52,0,0.56-0.06,0.54-0.59c0-0.08,0-0.16-0.02-0.23c-0.47-2.62-2.79-4.18-5.39-3.36c-1.56,0.49-2.48,1.62-2.79,3.22
							c-0.19,0.97-0.17,0.98,0.85,0.98C60.86,355.46,61.94,355.46,63.03,355.46z M82.24,355.46c1.18,0,2.37,0.01,3.55,0
							c0.53,0,0.57-0.05,0.55-0.58c-0.02-0.69-0.24-1.32-0.6-1.89c-1.33-2.14-4.21-2.53-6.05-1.08c-0.96,0.75-1.48,1.76-1.57,2.97
							c-0.04,0.52,0.02,0.57,0.56,0.57C79.87,355.47,81.05,355.46,82.24,355.46z M100.16,355.46c1.16,0,2.32,0.01,3.48,0
							c0.65,0,0.71-0.06,0.64-0.72c-0.16-1.67-1.41-3.11-3.01-3.56c-0.61-0.17-1.24-0.21-1.82,0.27c-0.46,0.38-1.04,0.54-1.63,0.67
							c-0.26,0.06-0.57,0.17-0.74,0.35c-0.61,0.66-0.97,1.45-1,2.37c-0.02,0.58,0.01,0.62,0.59,0.62
							C97.84,355.46,99,355.46,100.16,355.46z M72.6,355.46c1.01,0,2.01-0.01,3.02,0c0.35,0,0.49-0.12,0.52-0.49
							c0.05-0.59,0.16-1.17,0.3-1.74c0.16-0.66,0.07-0.81-0.61-1.05c-0.63-0.22-1.28-0.42-1.85-0.76c-0.48-0.28-0.91-0.38-1.44-0.31
							c-1.69,0.21-3.34,2-3.38,3.71c-0.01,0.58,0.02,0.63,0.59,0.63C70.69,355.47,71.64,355.46,72.6,355.46z M91.15,355.46
							C91.15,355.46,91.15,355.46,91.15,355.46c0.82,0,1.65,0,2.47,0c0.27,0,0.45-0.09,0.44-0.4c-0.03-0.92,0.25-1.78,0.62-2.6
							c0.11-0.24,0.06-0.34-0.2-0.45c-0.54-0.22-1.06-0.52-1.59-0.76c-0.2-0.09-0.43-0.19-0.65-0.19c-0.79,0.03-1.52,0.25-2.15,0.74
							c-1.01,0.78-1.63,1.77-1.73,3.06c-0.04,0.53,0.02,0.58,0.54,0.59C89.66,355.47,90.4,355.46,91.15,355.46z M82.11,338.18
							c-1.2,0.19-2.42,0.53-3.2,1.71c-0.24,0.37-0.27,0.37,0.12,0.51c1.18,0.43,2.21,1.07,2.97,2.09c0.22,0.3,0.38,0.16,0.52-0.06
							c0.45-0.69,1.11-1.14,1.78-1.56c0.34-0.22,0.74-0.34,1.12-0.51c0.21-0.1,0.35-0.2,0.16-0.46
							C84.72,338.8,83.57,338.27,82.11,338.18z"/>
						<path class="st23" d="M105.93,381.15c0.26,0,0.52-0.02,0.77,0c0.54,0.05,0.88,0.45,0.86,0.98c-0.02,0.49-0.36,0.87-0.87,0.9
							c-0.51,0.03-1.03,0.03-1.54,0c-0.48-0.03-0.84-0.47-0.84-0.94c0-0.48,0.35-0.89,0.84-0.94
							C105.41,381.13,105.67,381.15,105.93,381.15C105.93,381.15,105.93,381.15,105.93,381.15z"/>
						<path class="st23" d="M58.61,381.15c0.2,0,0.41-0.01,0.61,0c0.54,0.04,0.92,0.42,0.93,0.93c0.01,0.5-0.37,0.93-0.89,0.96
							c-0.48,0.03-0.97,0.02-1.46,0c-0.51-0.02-0.87-0.44-0.89-0.97c-0.02-0.43,0.31-0.83,0.78-0.9c0.3-0.04,0.61-0.01,0.92-0.01
							C58.61,381.16,58.61,381.16,58.61,381.15z"/>
						<path class="st23" d="M58.52,370.92c0.23,0,0.46-0.01,0.69,0c0.55,0.03,0.9,0.34,0.94,0.82c0.04,0.47-0.25,0.98-0.73,1.03
							c-0.6,0.07-1.23,0.08-1.83,0.01c-0.48-0.06-0.76-0.63-0.67-1.14c0.1-0.52,0.4-0.75,0.98-0.73c0.2,0,0.41,0,0.62,0
							C58.52,370.91,58.52,370.92,58.52,370.92z"/>
						<path class="st23" d="M105.99,370.92c0.18,0,0.36,0,0.54,0c0.66-0.02,0.98,0.24,1.03,0.84c0.05,0.55-0.29,1-0.87,1.06
							c-0.48,0.05-0.97,0.04-1.46,0c-0.57-0.05-0.94-0.51-0.91-1.04c0.03-0.5,0.39-0.83,0.99-0.85
							C105.53,370.91,105.76,370.92,105.99,370.92C105.99,370.92,105.99,370.92,105.99,370.92z"/>
						<path class="st23" d="M105.92,362.67c-0.34-0.07-0.71-0.1-1.03-0.23c-0.47-0.2-0.66-0.62-0.57-1.06
							c0.1-0.46,0.41-0.74,0.93-0.77c0.43-0.02,0.87-0.02,1.31,0c0.61,0.03,0.98,0.39,0.99,0.95c0.01,0.54-0.36,0.97-0.93,1.04
							c-0.23,0.03-0.46,0-0.69,0C105.93,362.62,105.93,362.64,105.92,362.67z"/>
						<path class="st23" d="M58.41,362.62c-0.23-0.01-0.47,0.01-0.69-0.04c-0.7-0.15-1.04-0.9-0.67-1.49
							c0.09-0.15,0.3-0.32,0.46-0.34c0.62-0.07,1.26-0.13,1.89-0.11c0.48,0.01,0.87,0.81,0.66,1.25c-0.19,0.41-0.52,0.63-0.95,0.69
							c-0.23,0.03-0.46,0.01-0.69,0.01C58.41,362.6,58.41,362.61,58.41,362.62z"/>
					</g>
				</g>
			</g>
		</g>
		<g>
			<g>
				<polyline class="st19" points="464.28,855.78 498.51,855.78 498.51,497.22 				"/>
				<line class="st24" x1="520.5" y1="496.93" x2="236.5" y2="496.93"/>
				<polyline class="st19" points="387.33,233.22 498.51,233.22 498.51,423.72 				"/>
				<line class="st24" x1="55.5" y1="407.98" x2="332" y2="407.98"/>
				<polyline class="st19" points="111.8,855.5 77.74,855.29 77.49,481.52 77.49,421.98 77.49,408.22 				"/>
			</g>
			<polyline class="st19" points="187.33,233.22 77.49,233.22 77.49,319.22 			"/>
		</g>
	</g>
</g>
<g id="Capa_18">
</g>
</svg>
