<?xml version="1.0" encoding="utf-8"?>
<!-- Generator: Adobe Illustrator 23.0.0, SVG Export Plug-In . SVG Version: 6.00 Build 0)  -->
<svg version="1.1" xmlns="http://www.w3.org/2000/svg" xmlns:xlink="http://www.w3.org/1999/xlink" x="0px" y="0px"
	 viewBox="0 0 800 720" style="enable-background:new 0 0 800 720;" xml:space="preserve">
<style type="text/css">
	.st0{display:none;}
	.st1{display:inline;}
	.st2{fill:none;stroke:#00FFFF;stroke-miterlimit:10;}
	.st3{opacity:0.3;fill:#B8E9F4;}
	.st4{opacity:0.2;fill:#99BC02;}
	.st5{fill:#FFFFFF;}
	.st6{fill:#1E1E1E;}
	.st7{clip-path:url(#SVGID_2_);fill:#FFFFFF;}
	.st8{opacity:0.9;}
	.st9{opacity:0.5;}
	.st10{fill:#A5CEED;stroke:#FFFFFF;stroke-miterlimit:10;}
	.st11{fill:#A5CEED;}
	.st12{fill:none;stroke:#FFFFFF;stroke-miterlimit:10;}
	.st13{fill:#A2C038;}
	.st14{fill:#5087A5;}
	.st15{fill:#9C9B9B;}
	.st16{fill:none;stroke:#1E1E1E;stroke-width:2.2;stroke-miterlimit:10;}
	.st17{stroke:#000000;stroke-miterlimit:10;}
	.st18{fill:none;stroke:#39638D;stroke-width:5;stroke-miterlimit:10;}
	.st19{fill:none;stroke:#39638D;stroke-width:3;stroke-miterlimit:10;}
	.st20{opacity:0.3;}
	.st21{fill:#211915;}
	.st22{opacity:0.6;}
	.st23{fill:#96969B;stroke:#96969B;stroke-width:0.75;stroke-miterlimit:10;}
	.st24{fill:none;stroke:#39638D;stroke-width:2;stroke-miterlimit:10;}
	.st25{fill:none;stroke:#39638D;stroke-miterlimit:10;}
	.st26{fill:#CAD22F;}
	.st27{fill:#58995F;}
	.st28{fill:#386693;}
	.st29{fill:none;stroke:#39638D;stroke-width:4;stroke-miterlimit:10;}
	.st30{clip-path:url(#SVGID_4_);fill:#FFFFFF;}
	.st31{fill:#9C9A9A;}
	.st32{fill:#A3BD33;}
	.st33{fill:#5788A4;}
	.st34{clip-path:url(#SVGID_6_);fill:#FFFFFF;}
	.st35{clip-path:url(#SVGID_8_);fill:#FFFFFF;}
	.st36{fill:none;stroke:#1E1E1E;stroke-width:3;stroke-miterlimit:10;}
	.st37{fill:none;stroke:#A2C038;stroke-width:3;stroke-miterlimit:10;}
	.st38{fill:none;stroke:#A2C038;stroke-width:2;stroke-miterlimit:10;}
	.st39{fill:none;stroke:#1E1E1E;stroke-width:2;stroke-miterlimit:10;}
	.st40{fill:none;stroke:#386693;stroke-width:3;stroke-miterlimit:10;}
	.st41{clip-path:url(#SVGID_10_);}
	.st42{clip-path:url(#SVGID_12_);fill:#FFFFFF;}
	.st43{fill:none;stroke:#386693;stroke-width:2;stroke-miterlimit:10;}
	.st44{clip-path:url(#SVGID_14_);}
	.st45{fill:none;}
	.st46{fill:none;stroke:#333333;stroke-miterlimit:10;}
</style>
<g id="GRILLA" class="st0">
	<g class="st1">
		<g>
			<g>
				<g>
					<rect x="-80.17" y="-1493" class="st2" width="79.94" height="4215.2"/>
					<rect x="-0.23" y="-1493" class="st2" width="79.94" height="4215.2"/>
				</g>
			</g>
			<g>
				<g>
					<rect x="79.71" y="-1474.2" class="st2" width="79.94" height="4215.2"/>
					<rect x="159.65" y="-1474.2" class="st2" width="79.94" height="4215.2"/>
				</g>
				<g>
					<rect x="239.54" y="-1493" class="st2" width="79.94" height="4215.2"/>
					<rect x="319.48" y="-1493" class="st2" width="79.94" height="4215.2"/>
				</g>
			</g>
		</g>
		<g>
			<g>
				<g>
					<rect x="400.58" y="-1474.2" class="st2" width="79.94" height="4215.2"/>
					<rect x="480.52" y="-1474.2" class="st2" width="79.94" height="4215.2"/>
				</g>
				<g>
					<rect x="560.42" y="-1493" class="st2" width="79.94" height="4215.2"/>
					<rect x="640.35" y="-1493" class="st2" width="79.94" height="4215.2"/>
				</g>
			</g>
			<g>
				<g>
					<rect x="720.29" y="-1474.2" class="st2" width="79.94" height="4215.2"/>
					<rect x="800.23" y="-1474.2" class="st2" width="79.94" height="4215.2"/>
				</g>
			</g>
		</g>
	</g>
</g>
<g id="FONDO_COLOR">
</g>
<g id="Capa_13">
</g>
<g id="Capa_1">
</g>
<g id="INDICACIONES">
</g>
<g id="Capa_3">
</g>
<g id="Capa_5">
</g>
<g id="Capa_2">
</g>
<g id="Capa_4">
</g>
<g id="logo">
	<rect class="st5" width="800" height="720"/>
	<g>
		<g>
			<g>
				<polyline class="st29" points="564.15,598.14 660.87,598.14 660.87,354.11 				"/>
				<line class="st24" x1="688.12" y1="354.12" x2="404" y2="354.12"/>
				<polyline class="st29" points="475.58,148.66 660.87,148.66 660.87,277.61 				"/>
				<line class="st24" x1="111.88" y1="298.17" x2="391.45" y2="298.17"/>
				<polyline class="st29" points="235.85,598.14 139.44,597.8 139.13,358.61 139.13,318.05 139.13,298.83 				"/>
			</g>
			<polyline class="st29" points="329.16,148.95 139.13,148.95 139.13,216.67 			"/>
		</g>
	</g>
	<g>
		<g class="st20">
			<g>
				<g>
					<path class="st21" d="M648.53,331.5c-6.87,0-13.68,0-20.55,0c0.08,0.21,0.13,0.37,0.2,0.52c0.89,1.89,0.73,3.72-0.43,5.43
						c-1.25,1.83-2.96,2.91-5.25,2.8c-1.62-0.07-2.99-0.81-3.98-2.06c-0.56-0.69-1.13-0.95-1.98-0.88
						c-0.95,0.07-1.91,0.04-2.86,0.01c-0.36-0.01-0.57,0.1-0.78,0.4c-0.54,0.77-1.25,1.37-2.08,1.82c-1.69,0.92-3.42,1.03-5.12,0.11
						c-2.24-1.21-3.54-3.05-3.41-5.69c0.03-0.62,0.29-1.22,0.46-1.83c0.06-0.2,0.17-0.39,0.29-0.67c-0.71,0-1.34-0.04-1.97,0.01
						c-1.08,0.08-1.77-0.71-1.77-1.76c0.03-8.63,0.02-17.26,0.02-25.9c0-0.62,0.1-1.21,0.69-1.51c0.33-0.17,0.75-0.23,1.12-0.23
						c5.21-0.01,10.42-0.01,15.63-0.01c7.09,0,14.18-0.01,21.28-0.01c7.07,0,14.13,0.02,21.2-0.01c1.21-0.01,1.78,0.76,1.78,1.81
						c-0.03,7.83-0.01,15.65-0.01,23.48c0,0.34,0,0.68,0,1.08c0.96,0,1.87,0,2.89,0c0-0.26,0-0.52,0-0.78c0-4.4,0.04-8.8-0.02-13.2
						c-0.02-1.58,0.61-2.14,2.07-2.12c3.13,0.05,6.26,0.01,9.39,0.02c1.11,0,1.48,0.29,1.89,1.35c0.75,1.91,1.53,3.81,2.27,5.72
						c0.18,0.45,0.46,0.7,0.9,0.87c1.94,0.75,3.86,1.53,5.79,2.31c0.99,0.4,1.24,0.75,1.24,1.82c0,3.77,0,7.53,0,11.3
						c0,1.06-0.56,1.61-1.64,1.61c-1.98,0.01-3.96,0.02-5.94,0c-0.44,0-0.7,0.14-0.97,0.48c-1.21,1.53-2.75,2.48-4.77,2.45
						c-1.78-0.02-3.22-0.82-4.31-2.16c-0.49-0.6-0.98-0.79-1.72-0.78c-2.91,0.04-5.82,0.02-8.73,0c-0.46,0-0.73,0.14-1.03,0.51
						c-1.2,1.5-2.72,2.47-4.71,2.43c-2.32-0.05-3.96-1.27-5.1-3.19c-0.98-1.66-0.99-3.39-0.16-5.12
						C648.41,331.82,648.46,331.69,648.53,331.5z M658,328.45c0-7.83,0-15.58,0-23.34c-18.57,0-37.08,0-55.61,0
						c0,7.81,0,15.57,0,23.34C620.95,328.45,639.45,328.45,658,328.45z M684.42,334.32c0.01-0.18,0.03-0.32,0.03-0.46
						c0-2.62,0-5.23-0.01-7.85c0-0.89-0.01-0.89-0.87-1.23c-1.77-0.71-3.53-1.42-5.31-2.12c-0.56-0.22-0.93-0.58-1.15-1.15
						c-0.47-1.23-0.97-2.45-1.46-3.68c-0.34-0.83-0.68-1.66-1.01-2.47c-2.61,0-5.14,0-7.71,0c0,6.34,0,12.63,0,18.95
						c0.27,0.01,0.48,0.04,0.7,0.04c0.21,0,0.42-0.03,0.62-0.04c0.45-3.2,2.68-5.58,5.38-5.81c1.29-0.11,2.49,0.16,3.56,0.88
						c1.76,1.18,2.8,2.81,2.95,4.93C681.61,334.32,682.99,334.32,684.42,334.32z M608.22,337.29c1.71,0,2.87-1.19,2.86-2.92
						c-0.01-1.77-1.15-2.89-2.97-2.9c-1.69-0.01-2.84,1.14-2.85,2.84C605.25,336.14,606.4,337.29,608.22,337.29z M625.76,334.37
						c-0.01-1.76-1.18-2.91-2.96-2.9c-1.73,0.01-2.87,1.18-2.86,2.92c0.02,1.8,1.15,2.91,2.96,2.9
						C624.64,337.27,625.77,336.12,625.76,334.37z M674.21,337.29c1.74,0,2.91-1.16,2.91-2.9c0-1.79-1.15-2.93-2.95-2.92
						c-1.72,0.01-2.86,1.14-2.87,2.85C671.29,336.13,672.43,337.29,674.21,337.29z M653.67,337.28c1.77,0,2.93-1.17,2.91-2.95
						c-0.02-1.72-1.19-2.87-2.92-2.87c-1.77,0-2.92,1.18-2.9,2.96C650.77,336.17,651.91,337.29,653.67,337.28z M663.87,331.53
						c-1.73,0-3.38,0-4.98,0c0.27,0.95,0.53,1.86,0.8,2.77c1.37,0,2.77,0,4.18,0C663.87,333.34,663.87,332.45,663.87,331.53z
						 M617.65,331.46c-1.43,0.03-2.86-0.05-4.26,0.02c0.29,0.99,0.55,1.89,0.83,2.82c0.85,0,1.76,0,2.58,0
						C617.09,333.33,617.36,332.44,617.65,331.46z"/>
					<path class="st21" d="M608.14,325.56c-0.98,0-1.9,0-2.88,0c0-5.86,0-11.69,0-17.57c0.94,0,1.88,0,2.88,0
						C608.14,313.83,608.14,319.65,608.14,325.56z"/>
					<path class="st21" d="M614.01,325.56c-0.97,0-1.89,0-2.87,0c0-5.85,0-11.68,0-17.57c0.94,0,1.88,0,2.87,0
						C614.01,313.83,614.01,319.65,614.01,325.56z"/>
					<path class="st21" d="M617.01,307.97c0.97,0,1.89,0,2.87,0c0,5.85,0,11.67,0,17.56c-0.93,0-1.87,0-2.87,0
						C617.01,319.71,617.01,313.88,617.01,307.97z"/>
					<path class="st21" d="M625.77,308c0,5.85,0,11.66,0,17.59c-0.48,0-0.96,0-1.43,0c-0.46,0-0.92,0-1.5,0
						c-0.03-5.87-0.01-11.69-0.01-17.59C623.8,308,624.74,308,625.77,308z"/>
					<path class="st21" d="M628.75,307.97c0.97,0,1.89,0,2.87,0c0,5.85,0,11.67,0,17.56c-0.93,0-1.87,0-2.87,0
						C628.75,319.71,628.75,313.88,628.75,307.97z"/>
					<path class="st21" d="M634.61,307.93c0.65,0,1.23,0,1.82,0c0.34,0,0.67,0,1.07,0c0,5.91,0,11.73,0,17.66c-0.49,0-0.97,0-1.45,0
						c-0.46,0-0.92,0-1.43,0C634.61,319.7,634.61,313.88,634.61,307.93z"/>
					<path class="st21" d="M643.36,325.56c-0.98,0-1.9,0-2.88,0c0-5.86,0-11.68,0-17.57c0.94,0,1.88,0,2.88,0
						C643.36,313.82,643.36,319.65,643.36,325.56z"/>
					<path class="st21" d="M649.23,325.56c-0.97,0-1.89,0-2.87,0c0-5.85,0-11.67,0-17.6c0.93-0.06,1.87-0.02,2.87,0
						C649.23,313.83,649.23,319.65,649.23,325.56z"/>
					<path class="st21" d="M652.22,307.97c1,0,1.92,0,2.89,0c0,5.87,0,11.69,0,17.62c-0.51,0-0.99,0-1.47,0c-0.46,0-0.92,0-1.42,0
						C652.22,319.69,652.22,313.87,652.22,307.97z"/>
				</g>
			</g>
		</g>
	</g>
	<g class="st22">
		<g>
			<g>
				<path class="st23" d="M140.77,282.56c-8.37,0-16.74,0-25.1,0c-1.22,0-2.12-0.51-2.78-1.51c-0.32-0.48-0.46-1.01-0.46-1.57
					c-0.01-1.71-0.01-3.41,0-5.12c0-0.69,0.19-1.34,0.65-1.87c0.23-0.27,0.22-0.49,0.01-0.76c-0.49-0.63-0.67-1.36-0.66-2.16
					c0.02-1.54,0.02-3.08,0-4.62c-0.01-0.78,0.19-1.48,0.69-2.07c0.21-0.25,0.21-0.44,0-0.69c-0.5-0.59-0.69-1.3-0.68-2.07
					c0.02-1.59,0.04-3.18,0-4.76c-0.06-1.86,1.67-3.38,3.21-3.29c0.34,0.02,0.67,0,1.01-0.01c0.52-0.01,0.53-0.02,0.55-0.51
					c0.05-1,0.3-1.93,0.85-2.79c0.95-1.49,2.3-2.34,4.03-2.62c0.45-0.07,0.48-0.07,0.31-0.52c-0.41-1.11-0.56-2.23-0.29-3.39
					c0.31-1.34,0.96-2.45,2.05-3.29c0.11-0.09,0.23-0.18,0.34-0.26c0.18-0.13,0.24-0.29,0.12-0.49c-0.06-0.1-0.11-0.21-0.16-0.32
					c-0.21-0.52-0.07-0.96,0.41-1.22c0.44-0.24,0.84-0.14,1.18,0.32c0.09,0.12,0.19,0.23,0.23,0.36c0.14,0.44,0.44,0.5,0.85,0.45
					c1.42-0.18,2.7,0.22,3.86,1.02c0.29,0.2,0.57,0.6,0.86,0.6c0.28,0.01,0.58-0.37,0.86-0.59c0.65-0.53,1.42-0.82,2.22-0.98
					c0.44-0.08,0.66-0.25,0.85-0.63c0.82-1.59,2.14-2.6,3.88-2.95c2.61-0.52,5,0.67,6.19,2.91c0.21,0.4,0.44,0.57,0.9,0.66
					c0.97,0.19,1.86,0.63,2.62,1.29c0.4,0.35,0.41,0.35,0.85-0.01c0.66-0.54,1.38-0.96,2.2-1.19c3.03-0.86,6.26,0.98,7.04,3.98
					c0.1,0.39,0.19,0.64,0.67,0.66c0.39,0.01,0.65,0.36,0.69,0.72c0.06,0.46-0.12,0.91-0.54,0.98c-0.67,0.1-0.81,0.54-0.94,1.07
					c-0.08,0.31-0.33,0.67-0.24,0.91c0.07,0.19,0.54,0.23,0.82,0.36c1.71,0.78,2.75,2.13,3.19,3.94c0.09,0.35,0.14,0.71,0.15,1.07
					c0.01,0.34,0.13,0.47,0.47,0.46c0.77-0.01,1.54,0.03,2.31,0c1.27-0.06,2.77,1.08,3.08,2.49c0.06,0.26,0.07,0.52,0.08,0.79
					c0.01,1.61,0,3.22,0.01,4.83c0,0.75-0.18,1.43-0.67,2.01c-0.24,0.28-0.2,0.48,0.02,0.74c0.46,0.56,0.66,1.21,0.65,1.94
					c-0.01,1.61-0.02,3.22,0,4.83c0.01,0.73-0.17,1.38-0.61,1.96c-0.24,0.31-0.3,0.55-0.02,0.88c0.49,0.57,0.63,1.28,0.62,2.02
					c-0.01,1.59-0.03,3.17,0,4.76c0.04,2.04-1.78,3.26-3.23,3.26C157.55,282.54,149.16,282.56,140.77,282.56z M140.79,273.03
					c-1.97,0-3.94,0-5.91,0c-6.28,0-12.55,0.01-18.83-0.01c-1.05,0-1.83,0.55-1.84,1.66c-0.02,1.49-0.03,2.98,0,4.47
					c0.02,1.05,0.65,1.62,1.7,1.64c0.19,0,0.38,0,0.58,0c10.89,0,21.78,0,32.68,0c5.43,0,10.87,0,16.3-0.01
					c0.26,0,0.54,0.01,0.78-0.07c0.73-0.21,1.12-0.77,1.13-1.65c0.01-1.42,0-2.84,0.01-4.26c0.01-1.13-0.73-1.8-1.86-1.79
					C157.28,273.04,149.04,273.03,140.79,273.03z M140.8,263.5c-1.15,0-2.31,0-3.46,0c-7.11,0-14.23,0-21.34,0
					c-1.15,0-1.76,0.52-1.79,1.61c-0.04,1.51-0.03,3.03,0,4.54c0.02,0.9,0.66,1.52,1.55,1.59c0.17,0.01,0.34,0,0.5,0
					c2.67,0,5.34,0,8,0c10.74,0,21.49,0,32.23,0c3.03,0,6.06-0.02,9.09,0.01c1.03,0.01,1.86-0.83,1.81-1.81
					c-0.04-0.86-0.01-1.73-0.01-2.6c0-0.53,0.01-1.06,0-1.59c-0.02-1.2-0.59-1.76-1.78-1.77c-0.29,0-0.58,0-0.87,0
					C156.76,263.5,148.78,263.5,140.8,263.5z M140.79,253.97c0,0,0-0.01,0-0.01c-0.1,0-0.19,0-0.29,0c-7.98,0-15.96,0.01-23.95,0.01
					c-0.31,0-0.63,0.01-0.94,0c-0.36-0.01-0.65,0.14-0.91,0.38c-0.38,0.35-0.52,0.79-0.51,1.3c0.01,1.37,0,2.74,0,4.11
					c0,1.31,0.58,1.88,1.89,1.88c11.23,0,22.46,0,33.69,0c5.29,0,10.58,0,15.87,0c1.12,0,1.73-0.62,1.74-1.74
					c0.01-1.42,0.01-2.84,0-4.26c-0.01-1.11-0.59-1.66-1.71-1.67c-3.03,0-6.06,0-9.09,0C151.32,253.97,146.06,253.97,140.79,253.97z
					 M132.19,243.47c-0.04,2.06,1.64,3.84,3.86,3.82c2.32-0.02,3.86-1.93,3.81-3.89c-0.06-2.22-1.64-3.83-3.8-3.82
					C133.57,239.6,132.16,241.45,132.19,243.47z M153.99,247.32c0.24-0.04,0.61-0.06,0.95-0.16c1.24-0.34,2.08-1.13,2.59-2.3
					c0.11-0.25,0.04-0.41-0.21-0.5c-0.09-0.03-0.18-0.07-0.26-0.12c-0.32-0.22-0.5-0.5-0.45-0.91c0.05-0.37,0.27-0.6,0.6-0.74
					c0.44-0.19,0.45-0.2,0.27-0.65c-0.09-0.22-0.19-0.44-0.33-0.63c-0.94-1.28-2.17-1.88-3.79-1.64c-1.3,0.19-2.26,0.88-2.81,2
					C149.22,244.34,150.99,247.14,153.99,247.32z M145.47,247.31c1.15-0.05,2.09-0.39,2.86-1.18c0.27-0.28,0.32-0.52,0.19-0.89
					c-0.41-1.14-0.42-2.33-0.03-3.46c0.2-0.58,0.02-0.91-0.38-1.24c-1.66-1.4-4.26-1.22-5.56,0.55c-0.92,1.25-1.12,2.57-0.44,3.99
					C142.8,246.53,144,247.18,145.47,247.31z M123.75,243.47c0.12,0.48,0.17,1,0.36,1.45c0.63,1.49,1.82,2.28,3.41,2.38
					c1.13,0.07,2.11-0.39,2.92-1.18c0.24-0.23,0.32-0.47,0.19-0.83c-0.41-1.16-0.44-2.36-0.04-3.53c0.18-0.53,0.01-0.85-0.36-1.18
					c-0.68-0.6-1.47-0.87-2.36-0.97c-0.33-0.04-0.44,0.02-0.52,0.37c-0.18,0.77-0.88,1.04-1.48,0.55c-0.35-0.29-0.55-0.18-0.78,0.05
					C124.28,241.36,123.77,242.28,123.75,243.47z M122.89,252.08c1.11,0,2.21,0.01,3.32,0c0.49,0,0.52-0.06,0.5-0.55
					c0-0.07,0-0.14-0.02-0.22c-0.44-2.44-2.6-3.9-5.02-3.14c-1.46,0.46-2.31,1.51-2.6,3c-0.18,0.9-0.16,0.91,0.79,0.91
					C120.87,252.08,121.88,252.08,122.89,252.08z M140.8,252.08c1.1,0,2.21,0.01,3.31,0c0.5,0,0.53-0.04,0.52-0.54
					c-0.01-0.64-0.23-1.23-0.56-1.76c-1.24-2-3.92-2.36-5.64-1c-0.89,0.7-1.38,1.64-1.46,2.77c-0.03,0.49,0.02,0.53,0.52,0.54
					C138.59,252.08,139.7,252.08,140.8,252.08z M157.5,252.08c1.08,0,2.16,0.01,3.25,0c0.61,0,0.66-0.05,0.6-0.67
					c-0.15-1.56-1.31-2.9-2.81-3.32c-0.57-0.16-1.16-0.2-1.7,0.25c-0.43,0.35-0.97,0.5-1.52,0.62c-0.25,0.05-0.53,0.15-0.69,0.33
					c-0.57,0.62-0.9,1.35-0.93,2.21c-0.02,0.54,0.01,0.58,0.55,0.58C155.34,252.08,156.42,252.08,157.5,252.08z M131.81,252.08
					c0.94,0,1.87-0.01,2.81,0c0.33,0,0.45-0.11,0.49-0.45c0.05-0.55,0.15-1.09,0.28-1.62c0.15-0.62,0.07-0.76-0.57-0.98
					c-0.59-0.2-1.2-0.39-1.72-0.71c-0.44-0.27-0.84-0.35-1.35-0.29c-1.58,0.19-3.11,1.86-3.15,3.46c-0.01,0.54,0.02,0.58,0.55,0.59
					C130.03,252.08,130.92,252.08,131.81,252.08z M149.1,252.08C149.1,252.08,149.1,252.08,149.1,252.08c0.77,0,1.54,0,2.31,0
					c0.26,0,0.42-0.08,0.41-0.37c-0.02-0.86,0.23-1.66,0.58-2.43c0.1-0.22,0.06-0.32-0.19-0.42c-0.51-0.21-0.99-0.48-1.49-0.71
					c-0.19-0.09-0.4-0.18-0.6-0.17c-0.73,0.03-1.41,0.24-2.01,0.69c-0.94,0.72-1.52,1.65-1.62,2.85c-0.04,0.49,0.02,0.54,0.51,0.55
					C147.71,252.09,148.41,252.08,149.1,252.08z M140.68,235.98c-1.12,0.18-2.25,0.49-2.98,1.6c-0.23,0.34-0.25,0.35,0.11,0.48
					c1.1,0.4,2.06,0.99,2.77,1.95c0.2,0.28,0.35,0.15,0.49-0.05c0.42-0.64,1.03-1.06,1.66-1.46c0.32-0.2,0.69-0.32,1.04-0.48
					c0.2-0.09,0.32-0.19,0.14-0.43C143.11,236.55,142.04,236.06,140.68,235.98z"/>
				<path class="st23" d="M162.87,276.02c0.24,0,0.48-0.02,0.72,0c0.51,0.05,0.82,0.42,0.81,0.92c-0.02,0.46-0.33,0.81-0.81,0.84
					c-0.48,0.03-0.96,0.03-1.44,0c-0.44-0.03-0.78-0.44-0.78-0.88c0-0.45,0.33-0.83,0.78-0.87
					C162.39,276,162.63,276.02,162.87,276.02C162.87,276.02,162.87,276.02,162.87,276.02z"/>
				<path class="st23" d="M118.78,276.02c0.19,0,0.38-0.01,0.57,0c0.51,0.04,0.85,0.39,0.86,0.87c0.01,0.47-0.34,0.87-0.83,0.89
					c-0.45,0.02-0.91,0.02-1.36,0c-0.47-0.02-0.81-0.41-0.83-0.9c-0.01-0.4,0.29-0.77,0.73-0.83c0.28-0.04,0.57-0.01,0.86-0.01
					C118.78,276.03,118.78,276.03,118.78,276.02z"/>
				<path class="st23" d="M118.69,266.49c0.22,0,0.43-0.01,0.64,0c0.51,0.03,0.84,0.32,0.88,0.76c0.04,0.44-0.23,0.91-0.68,0.96
					c-0.56,0.07-1.15,0.07-1.71,0.01c-0.45-0.05-0.71-0.58-0.62-1.06c0.09-0.49,0.37-0.69,0.91-0.68
					C118.31,266.48,118.5,266.48,118.69,266.49C118.69,266.48,118.69,266.48,118.69,266.49z"/>
				<path class="st23" d="M162.93,266.48c0.17,0,0.33,0,0.5,0c0.62-0.02,0.91,0.22,0.96,0.78c0.04,0.51-0.27,0.93-0.81,0.99
					c-0.45,0.04-0.91,0.04-1.36,0c-0.53-0.04-0.87-0.47-0.85-0.97c0.02-0.47,0.37-0.77,0.92-0.79
					C162.5,266.48,162.72,266.49,162.93,266.48C162.93,266.49,162.93,266.48,162.93,266.48z"/>
				<path class="st23" d="M162.87,258.79c-0.32-0.07-0.66-0.09-0.96-0.22c-0.44-0.19-0.61-0.58-0.53-0.99
					c0.09-0.43,0.38-0.69,0.87-0.71c0.41-0.02,0.81-0.02,1.22,0c0.57,0.03,0.91,0.37,0.92,0.89c0.01,0.5-0.34,0.9-0.87,0.97
					c-0.21,0.03-0.43,0-0.64,0C162.88,258.75,162.88,258.77,162.87,258.79z"/>
				<path class="st23" d="M118.6,258.75c-0.21-0.01-0.44,0.01-0.64-0.04c-0.65-0.14-0.97-0.84-0.63-1.39
					c0.09-0.14,0.28-0.3,0.43-0.32c0.58-0.07,1.17-0.12,1.76-0.1c0.45,0.01,0.81,0.75,0.61,1.17c-0.18,0.38-0.49,0.59-0.89,0.65
					c-0.21,0.03-0.43,0.01-0.64,0.01C118.6,258.73,118.6,258.74,118.6,258.75z"/>
			</g>
		</g>
	</g>
	<g>
		<g>
			<path class="st11" d="M363.49,491.25c0-11.54,4.48-23.47,4.67-23.98l0.46-1.22c-10.46,8.89-17.1,22.14-17.1,36.94
				c0,23.81,17.17,43.6,39.8,47.69c-1.81-3.81-7.42-11.07-10.68-15.05C365.72,517.69,363.49,500.13,363.49,491.25z"/>
			<path class="st11" d="M391.26,479.43c2.24,2.34,4.27,4.74,6.08,7.18c2.65-5.32,6.76-9.99,10.6-14.67
				c4.75-5.78,8.09-10.37,10.41-13.83c-5.66-2.32-11.85-3.6-18.34-3.6c-10.75,0-20.67,3.5-28.71,9.42l2.38,1.36
				C374.04,465.5,382.67,470.48,391.26,479.43z"/>
			<path class="st11" d="M448.48,503c0-15.21-7-28.77-17.96-37.66c3.3,7.38,7.17,17.5,7.16,28.71c-0.03,10.17-2.62,19.94-7.7,29.04
				c-5.74,10.28-14.77,19.77-26.78,28.27C428.48,549.71,448.48,528.7,448.48,503z"/>
			<g>
				<path class="st26" d="M399.49,549.28c26.6-18.23,34.3-38.22,34.34-55.24c0.01-16.99-9.27-31.15-10.85-37.11v-0.03
					c-5.6,13.11-18.65,22.05-23.24,33.79c0,0,8.89,13.84,8.11,27.92C407.12,531.72,403.05,542.8,399.49,549.28"/>
			</g>
			<g>
				<path class="st27" d="M383.62,533.19c-12.97-15.6-16.28-31.15-16.28-41.93c0-10.97,4.42-22.61,4.42-22.61
					s33.67,19.21,32.67,49.98c-0.67,20.4-9.51,31.83-9.51,31.83C393.19,544.89,383.63,533.21,383.62,533.19z"/>
			</g>
		</g>
		<g>
			<g>
				<path class="st11" d="M400,559.03c-14.98,0-29.07-5.84-39.67-16.43c-10.6-10.6-16.43-24.68-16.43-39.67
					c0-14.98,5.84-29.07,16.43-39.67c10.6-10.6,24.68-16.43,39.67-16.43c14.98,0,29.07,5.84,39.67,16.43
					c10.6,10.6,16.43,24.68,16.43,39.67c0,14.98-5.83,29.07-16.43,39.67C429.07,553.2,414.98,559.03,400,559.03z M400,448.39
					c-30.08,0-54.55,24.47-54.55,54.55c0,30.08,24.47,54.55,54.55,54.55c30.08,0,54.55-24.47,54.55-54.55
					C454.55,472.86,430.08,448.39,400,448.39z"/>
			</g>
		</g>
		<g>
			<path class="st28" d="M300.08,613.61c0.5,0.26,0.92,0.65,1.27,1.18l-0.95,0.85c-0.22-0.47-0.49-0.81-0.82-1.02
				c-0.33-0.21-0.76-0.32-1.31-0.32c-0.54,0-0.95,0.11-1.25,0.32c-0.3,0.21-0.44,0.49-0.44,0.82c0,0.31,0.14,0.56,0.43,0.74
				c0.29,0.18,0.8,0.34,1.54,0.47c0.69,0.12,1.24,0.28,1.65,0.47c0.41,0.19,0.71,0.43,0.89,0.71c0.19,0.28,0.28,0.64,0.28,1.06
				c0,0.45-0.13,0.85-0.39,1.19c-0.26,0.34-0.62,0.6-1.08,0.79c-0.46,0.18-1,0.27-1.6,0.27c-1.56,0-2.67-0.52-3.31-1.56l0.88-0.88
				c0.25,0.47,0.57,0.81,0.96,1.03c0.39,0.22,0.88,0.33,1.46,0.33c0.55,0,0.99-0.1,1.3-0.29c0.32-0.19,0.47-0.46,0.47-0.81
				c0-0.28-0.14-0.51-0.43-0.68c-0.28-0.17-0.78-0.32-1.49-0.46c-0.71-0.13-1.27-0.3-1.69-0.49c-0.42-0.19-0.73-0.44-0.92-0.72
				c-0.19-0.29-0.29-0.64-0.29-1.05c0-0.44,0.12-0.83,0.36-1.19c0.24-0.36,0.59-0.64,1.04-0.85c0.46-0.21,0.99-0.32,1.59-0.32
				C298.98,613.22,299.58,613.35,300.08,613.61z"/>
			<path class="st28" d="M313.24,620.18l-0.08,0.84c-0.21,0.09-0.45,0.14-0.72,0.14c-0.33,0-0.6-0.07-0.8-0.2
				c-0.2-0.13-0.33-0.35-0.39-0.67c-0.18,0.27-0.44,0.48-0.79,0.64c-0.35,0.15-0.74,0.23-1.18,0.23c-0.57,0-1.03-0.13-1.38-0.4
				c-0.35-0.26-0.53-0.64-0.53-1.13c0-0.46,0.19-0.85,0.57-1.16c0.38-0.32,0.95-0.54,1.7-0.67l1.48-0.26v-0.32
				c0-0.36-0.11-0.64-0.32-0.85c-0.21-0.21-0.5-0.31-0.88-0.31c-0.77,0-1.27,0.35-1.51,1.05l-0.97-0.51
				c0.14-0.47,0.43-0.84,0.86-1.11c0.43-0.27,0.96-0.41,1.59-0.41c0.75,0,1.35,0.18,1.8,0.53c0.44,0.35,0.67,0.86,0.67,1.54v2.64
				c0,0.15,0.03,0.26,0.1,0.33c0.07,0.07,0.18,0.1,0.33,0.1C312.98,620.23,313.12,620.21,313.24,620.18z M310.65,619.91
				c0.32-0.2,0.48-0.47,0.48-0.81v-0.7l-1.27,0.26c-0.4,0.08-0.7,0.19-0.9,0.33c-0.19,0.14-0.29,0.33-0.29,0.56
				c0,0.22,0.08,0.38,0.23,0.5c0.15,0.11,0.37,0.17,0.65,0.17C309.96,620.21,310.33,620.11,310.65,619.91z"/>
			<path class="st28" d="M320.93,615.21h1.89v0.98h-1.86v4.85h-1.25v-4.85h-1.1v-0.98h1.1v-0.84c0-0.59,0.18-1.05,0.54-1.38
				c0.36-0.33,0.86-0.49,1.51-0.49c0.23,0,0.45,0.03,0.64,0.08c0.19,0.05,0.35,0.12,0.46,0.2l-0.23,0.91
				c-0.18-0.12-0.4-0.18-0.67-0.18c-0.68,0-1.03,0.32-1.03,0.95V615.21z"/>
			<path class="st28" d="M333.88,618.59h-4.27c0.07,0.51,0.25,0.9,0.55,1.17c0.3,0.27,0.68,0.4,1.14,0.4c0.38,0,0.7-0.07,0.95-0.2
				c0.25-0.14,0.43-0.33,0.52-0.59l1.04,0.43c-0.44,0.9-1.27,1.35-2.51,1.35c-0.92,0-1.64-0.27-2.15-0.81
				c-0.52-0.54-0.78-1.28-0.78-2.23c0-0.96,0.25-1.7,0.75-2.23c0.5-0.53,1.2-0.8,2.1-0.8c0.86,0,1.52,0.26,2,0.78
				c0.47,0.52,0.71,1.21,0.71,2.08C333.93,618.18,333.92,618.39,333.88,618.59z M330.13,616.48c-0.28,0.26-0.45,0.65-0.52,1.16h3.15
				c-0.06-0.49-0.23-0.87-0.5-1.14c-0.27-0.27-0.62-0.41-1.04-0.41C330.77,616.08,330.41,616.21,330.13,616.48z"/>
			<path class="st28" d="M345.5,616.72l-1.17,0.47c-0.2-0.74-0.66-1.11-1.37-1.11c-0.52,0-0.93,0.18-1.21,0.54
				c-0.29,0.36-0.43,0.86-0.43,1.52s0.14,1.16,0.43,1.51c0.29,0.35,0.69,0.53,1.21,0.53c0.4,0,0.72-0.1,0.96-0.29
				c0.24-0.19,0.4-0.47,0.48-0.84l1.14,0.39c-0.17,0.54-0.47,0.97-0.91,1.28c-0.44,0.31-0.98,0.46-1.65,0.46
				c-0.92,0-1.64-0.27-2.15-0.81c-0.52-0.54-0.78-1.28-0.78-2.23c0-0.95,0.26-1.69,0.77-2.23c0.51-0.54,1.23-0.81,2.14-0.81
				C344.24,615.09,345.08,615.64,345.5,616.72z"/>
			<path class="st28" d="M357.38,620.18l-0.08,0.84c-0.21,0.09-0.45,0.14-0.72,0.14c-0.33,0-0.6-0.07-0.8-0.2
				c-0.2-0.13-0.33-0.35-0.39-0.67c-0.18,0.27-0.44,0.48-0.79,0.64s-0.74,0.23-1.18,0.23c-0.57,0-1.03-0.13-1.38-0.4
				c-0.35-0.26-0.53-0.64-0.53-1.13c0-0.46,0.19-0.85,0.57-1.16c0.38-0.32,0.95-0.54,1.7-0.67l1.48-0.26v-0.32
				c0-0.36-0.11-0.64-0.32-0.85c-0.21-0.21-0.5-0.31-0.88-0.31c-0.77,0-1.27,0.35-1.51,1.05l-0.97-0.51
				c0.14-0.47,0.43-0.84,0.86-1.11c0.43-0.27,0.96-0.41,1.59-0.41c0.75,0,1.35,0.18,1.8,0.53c0.44,0.35,0.67,0.86,0.67,1.54v2.64
				c0,0.15,0.03,0.26,0.1,0.33c0.07,0.07,0.18,0.1,0.33,0.1C357.12,620.23,357.26,620.21,357.38,620.18z M354.79,619.91
				c0.32-0.2,0.48-0.47,0.48-0.81v-0.7l-1.27,0.26c-0.4,0.08-0.7,0.19-0.9,0.33c-0.19,0.14-0.29,0.33-0.29,0.56
				c0,0.22,0.08,0.38,0.23,0.5c0.15,0.11,0.37,0.17,0.65,0.17C354.1,620.21,354.47,620.11,354.79,619.91z"/>
			<path class="st28" d="M367.11,615.21l-0.2,1.14c-0.18-0.1-0.42-0.15-0.74-0.15c-0.25,0-0.48,0.07-0.71,0.2
				c-0.22,0.13-0.4,0.33-0.55,0.6c-0.14,0.26-0.22,0.58-0.22,0.96v3.09h-1.25v-5.83h1.06l0.11,1.05c0.33-0.78,0.94-1.17,1.84-1.17
				C366.74,615.09,366.95,615.13,367.11,615.21z"/>
			<path class="st28" d="M378.21,618.59h-4.27c0.07,0.51,0.25,0.9,0.55,1.17c0.3,0.27,0.68,0.4,1.14,0.4c0.38,0,0.7-0.07,0.95-0.2
				c0.25-0.14,0.43-0.33,0.52-0.59l1.04,0.43c-0.44,0.9-1.27,1.35-2.51,1.35c-0.92,0-1.64-0.27-2.15-0.81
				c-0.52-0.54-0.78-1.28-0.78-2.23c0-0.96,0.25-1.7,0.75-2.23c0.5-0.53,1.2-0.8,2.1-0.8c0.86,0,1.52,0.26,2,0.78
				c0.47,0.52,0.71,1.21,0.71,2.08C378.25,618.18,378.24,618.39,378.21,618.59z M374.45,616.48c-0.28,0.26-0.45,0.65-0.52,1.16h3.15
				c-0.06-0.49-0.23-0.87-0.5-1.14c-0.27-0.27-0.62-0.41-1.04-0.41C375.09,616.08,374.73,616.21,374.45,616.48z"/>
			<path class="st28" d="M397.53,619.02h-3.24l-0.74,2.02h-1.28l2.91-7.7h1.49l2.91,7.7h-1.32L397.53,619.02z M397.16,618.01
				l-0.89-2.47l-0.35-1.11h-0.04l-0.33,1.09l-0.91,2.5H397.16z"/>
			<path class="st28" d="M409.06,620.66c-0.19,0.16-0.41,0.28-0.68,0.37c-0.27,0.09-0.56,0.13-0.87,0.13c-0.54,0-0.97-0.13-1.29-0.4
				c-0.32-0.27-0.49-0.69-0.5-1.25v-3.31h-1.11v-0.98h1.11v-1.37l1.25-0.35v1.72h2.04v0.98h-2.04v3.1c0,0.28,0.08,0.49,0.23,0.62
				c0.15,0.14,0.36,0.2,0.62,0.2c0.36,0,0.67-0.12,0.95-0.37L409.06,620.66z"/>
			<path class="st28" d="M423.24,615.33c0.33,0.16,0.59,0.4,0.78,0.73c0.19,0.33,0.29,0.73,0.29,1.2v3.78h-1.25v-3.58
				c0-0.46-0.11-0.8-0.33-1.02c-0.22-0.22-0.51-0.33-0.88-0.33c-0.43,0-0.79,0.16-1.08,0.47c-0.29,0.31-0.44,0.74-0.44,1.28v3.17
				h-1.25v-3.58c0-0.46-0.11-0.8-0.33-1.02c-0.22-0.22-0.51-0.33-0.88-0.33c-0.25,0-0.49,0.06-0.72,0.19
				c-0.23,0.13-0.42,0.33-0.57,0.6c-0.15,0.27-0.22,0.61-0.22,1.03v3.1h-1.25v-5.83h1.11l0.06,0.97c0.19-0.36,0.46-0.63,0.79-0.81
				c0.33-0.18,0.7-0.27,1.1-0.27c0.44,0,0.83,0.1,1.18,0.3c0.35,0.2,0.62,0.49,0.79,0.87c0.18-0.38,0.45-0.67,0.82-0.87
				c0.37-0.2,0.76-0.3,1.18-0.3C422.56,615.09,422.91,615.17,423.24,615.33z"/>
			<path class="st28" d="M435.81,615.9c0.51,0.54,0.77,1.28,0.77,2.23c0,0.95-0.26,1.69-0.77,2.23c-0.51,0.54-1.23,0.81-2.14,0.81
				c-0.91,0-1.62-0.27-2.14-0.81c-0.51-0.54-0.77-1.28-0.77-2.23c0-0.95,0.26-1.69,0.77-2.23c0.51-0.54,1.23-0.81,2.14-0.81
				C434.58,615.09,435.3,615.36,435.81,615.9z M432.45,616.6c-0.28,0.35-0.43,0.86-0.43,1.52c0,0.66,0.14,1.17,0.43,1.52
				c0.28,0.35,0.69,0.53,1.22,0.53c0.53,0,0.94-0.18,1.23-0.54c0.29-0.36,0.43-0.86,0.43-1.52c0-0.65-0.14-1.16-0.43-1.52
				c-0.29-0.36-0.7-0.54-1.23-0.54C433.14,616.07,432.74,616.25,432.45,616.6z"/>
			<path class="st28" d="M443.62,620.86c-0.46-0.2-0.8-0.51-1.03-0.92l0.84-0.72c0.15,0.33,0.38,0.58,0.69,0.74
				c0.31,0.16,0.68,0.23,1.12,0.23c0.4,0,0.7-0.06,0.92-0.19c0.22-0.13,0.33-0.3,0.33-0.51c0-0.19-0.1-0.34-0.3-0.45
				c-0.2-0.11-0.55-0.22-1.05-0.32c-0.86-0.16-1.47-0.38-1.82-0.65c-0.35-0.27-0.53-0.66-0.53-1.16c0-0.32,0.1-0.62,0.29-0.89
				c0.19-0.28,0.48-0.5,0.85-0.67c0.37-0.17,0.81-0.25,1.31-0.25c0.65,0,1.16,0.11,1.55,0.32c0.39,0.21,0.69,0.55,0.9,1l-0.89,0.65
				c-0.14-0.34-0.34-0.59-0.59-0.75c-0.25-0.16-0.57-0.24-0.96-0.24c-0.35,0-0.64,0.07-0.87,0.22c-0.23,0.14-0.34,0.31-0.34,0.5
				c0,0.21,0.1,0.38,0.31,0.5c0.21,0.12,0.58,0.24,1.13,0.34c0.82,0.15,1.41,0.36,1.75,0.63c0.34,0.27,0.51,0.65,0.51,1.14
				c0,0.52-0.23,0.95-0.68,1.27c-0.45,0.33-1.07,0.49-1.87,0.49C444.6,621.16,444.08,621.06,443.62,620.86z"/>
			<path class="st28" d="M459.18,615.89c0.46,0.53,0.69,1.27,0.69,2.22c0,0.95-0.23,1.69-0.69,2.23c-0.46,0.54-1.09,0.81-1.89,0.81
				c-0.42,0-0.8-0.09-1.13-0.28c-0.33-0.19-0.59-0.44-0.76-0.77v3.38h-1.25v-8.29h1.1l0.06,1.09c0.17-0.37,0.43-0.66,0.78-0.88
				c0.35-0.22,0.75-0.33,1.21-0.33C458.09,615.09,458.72,615.36,459.18,615.89z M458.2,619.61c0.28-0.35,0.43-0.85,0.43-1.49
				c0-0.64-0.14-1.14-0.43-1.49c-0.28-0.36-0.68-0.54-1.18-0.54c-0.47,0-0.85,0.16-1.14,0.48c-0.28,0.32-0.44,0.76-0.47,1.33v0.44
				c0.03,0.56,0.19,1,0.47,1.32c0.28,0.32,0.66,0.48,1.14,0.48C457.52,620.14,457.91,619.97,458.2,619.61z"/>
			<path class="st28" d="M471.12,615.65c0.41,0.37,0.61,0.91,0.61,1.61v3.78h-1.25v-3.38c0-1.03-0.42-1.54-1.25-1.54
				c-0.44,0-0.81,0.15-1.12,0.46c-0.31,0.3-0.47,0.77-0.47,1.39v3.08h-1.25v-8.46h1.25v3.56c0.19-0.36,0.45-0.62,0.78-0.79
				c0.32-0.17,0.69-0.26,1.11-0.26C470.18,615.09,470.71,615.28,471.12,615.65z"/>
			<path class="st28" d="M483.69,618.59h-4.27c0.07,0.51,0.25,0.9,0.55,1.17c0.3,0.27,0.68,0.4,1.14,0.4c0.38,0,0.7-0.07,0.95-0.2
				c0.25-0.14,0.43-0.33,0.52-0.59l1.04,0.43c-0.44,0.9-1.27,1.35-2.51,1.35c-0.92,0-1.64-0.27-2.15-0.81
				c-0.52-0.54-0.78-1.28-0.78-2.23c0-0.96,0.25-1.7,0.75-2.23c0.5-0.53,1.2-0.8,2.1-0.8c0.86,0,1.52,0.26,2,0.78
				c0.47,0.52,0.71,1.21,0.71,2.08C483.74,618.18,483.72,618.39,483.69,618.59z M479.94,616.48c-0.28,0.26-0.45,0.65-0.52,1.16h3.15
				c-0.06-0.49-0.23-0.87-0.5-1.14c-0.27-0.27-0.62-0.41-1.04-0.41C480.58,616.08,480.21,616.21,479.94,616.48z"/>
			<path class="st28" d="M493.86,615.21l-0.2,1.14c-0.18-0.1-0.42-0.15-0.74-0.15c-0.25,0-0.48,0.07-0.71,0.2
				c-0.22,0.13-0.4,0.33-0.55,0.6c-0.14,0.26-0.22,0.58-0.22,0.96v3.09h-1.25v-5.83h1.06l0.11,1.05c0.33-0.78,0.94-1.17,1.84-1.17
				C493.49,615.09,493.7,615.13,493.86,615.21z"/>
			<path class="st28" d="M504.95,618.59h-4.27c0.07,0.51,0.25,0.9,0.55,1.17c0.3,0.27,0.68,0.4,1.14,0.4c0.38,0,0.7-0.07,0.95-0.2
				c0.25-0.14,0.43-0.33,0.52-0.59l1.04,0.43c-0.44,0.9-1.27,1.35-2.51,1.35c-0.92,0-1.64-0.27-2.15-0.81
				c-0.52-0.54-0.78-1.28-0.78-2.23c0-0.96,0.25-1.7,0.75-2.23c0.5-0.53,1.2-0.8,2.1-0.8c0.86,0,1.52,0.26,2,0.78
				c0.47,0.52,0.71,1.21,0.71,2.08C505,618.18,504.98,618.39,504.95,618.59z M501.2,616.48c-0.28,0.26-0.45,0.65-0.52,1.16h3.15
				c-0.06-0.49-0.23-0.87-0.5-1.14c-0.27-0.27-0.62-0.41-1.04-0.41C501.84,616.08,501.48,616.21,501.2,616.48z"/>
		</g>
		<g>
			<path class="st28" d="M315.21,577.46c1.81,1.57,2.72,3.78,2.72,6.64c0,2.77-0.91,4.94-2.72,6.49c-1.81,1.56-4.34,2.33-7.6,2.33
				h-5.9v10.19h-5.86V575.1h11.76C310.86,575.1,313.4,575.89,315.21,577.46z M310.71,587.3c0.85-0.72,1.27-1.8,1.27-3.25
				c0-1.44-0.42-2.52-1.27-3.23c-0.85-0.71-2.18-1.06-3.99-1.06h-5.01v8.62h5.01C308.53,588.38,309.86,588.02,310.71,587.3z"/>
			<path class="st28" d="M343.43,596.28h-10.78l-2.29,6.83h-5.98l10.23-28.01h7l10.23,28.01h-6.07L343.43,596.28z M341.99,591.95
				l-2.63-7.89l-1.27-4.24H338l-1.19,4.16l-2.72,7.98H341.99z"/>
			<path class="st28" d="M381.37,601.48c-2.09,1.37-4.6,2.06-7.51,2.06c-2.74,0-5.14-0.58-7.17-1.74c-2.04-1.16-3.6-2.82-4.69-4.99
				c-1.09-2.16-1.63-4.73-1.63-7.7s0.54-5.54,1.63-7.7c1.09-2.16,2.65-3.83,4.67-4.99c2.02-1.16,4.39-1.74,7.11-1.74
				c2.91,0,5.38,0.61,7.41,1.82c2.02,1.22,3.42,3.03,4.18,5.43l-5.3,2.25c-0.45-1.67-1.16-2.87-2.12-3.61
				c-0.96-0.74-2.26-1.1-3.9-1.1c-2.38,0-4.24,0.83-5.58,2.5c-1.34,1.67-2.02,4.05-2.02,7.13c0,3.08,0.65,5.46,1.95,7.13
				c1.3,1.67,3.14,2.5,5.52,2.5c3.42,0,5.57-1.66,6.45-4.97l5.39,1.61C384.92,598.07,383.46,600.1,381.37,601.48z"/>
			<path class="st28" d="M418.16,598.4v4.71h-20.63V575.1h5.86v23.3H418.16z"/>
			<path class="st28" d="M435.69,603.11h-5.86V575.1h5.86V603.11z"/>
			<path class="st28" d="M455.64,579.81v7.09h11.93v4.75h-11.93v11.46h-5.86V575.1h20.96v4.71H455.64z"/>
			<path class="st28" d="M504.14,598.4v4.71h-21.6V575.1h21.01v4.71H488.4v6.96h11.93v4.5H488.4v7.13H504.14z"/>
		</g>
	</g>
</g>
<g id="Capa_14">
</g>
<g id="computador">
</g>
<g id="Modo_de_aislamiento">
</g>
<g id="Capa_16">
</g>
<g id="_x31_">
</g>
<g id="Capa_18">
</g>
</svg>
