<?xml version="1.0" encoding="utf-8"?>
<!-- Generator: Adobe Illustrator 23.0.0, SVG Export Plug-In . SVG Version: 6.00 Build 0)  -->
<svg version="1.1" xmlns="http://www.w3.org/2000/svg" xmlns:xlink="http://www.w3.org/1999/xlink" x="0px" y="0px"
	 viewBox="0 0 359 221" style="enable-background:new 0 0 359 221;" xml:space="preserve">
<style type="text/css">
	.st0{display:none;}
	.st1{display:inline;}
	.st2{fill:none;stroke:#00FFFF;stroke-miterlimit:10;}
	.st3{opacity:0.3;fill:#B8E9F4;}
	.st4{opacity:0.2;fill:#99BC02;}
	.st5{fill:#FFFFFF;}
	.st6{fill:#1E1E1E;}
	.st7{clip-path:url(#SVGID_2_);fill:#FFFFFF;}
	.st8{opacity:0.9;}
	.st9{opacity:0.5;}
	.st10{fill:#A5CEED;stroke:#FFFFFF;stroke-miterlimit:10;}
	.st11{fill:#A5CEED;}
	.st12{fill:none;stroke:#FFFFFF;stroke-miterlimit:10;}
	.st13{fill:#A2C038;}
	.st14{fill:#5087A5;}
	.st15{fill:#9C9B9B;}
	.st16{fill:none;stroke:#1E1E1E;stroke-width:2.2;stroke-miterlimit:10;}
	.st17{stroke:#000000;stroke-miterlimit:10;}
	.st18{fill:none;stroke:#39638D;stroke-width:5;stroke-miterlimit:10;}
	.st19{fill:none;stroke:#39638D;stroke-width:3;stroke-miterlimit:10;}
	.st20{opacity:0.3;}
	.st21{fill:#211915;}
	.st22{opacity:0.6;}
	.st23{fill:#96969B;stroke:#96969B;stroke-width:0.75;stroke-miterlimit:10;}
	.st24{fill:none;stroke:#39638D;stroke-width:2;stroke-miterlimit:10;}
	.st25{fill:none;stroke:#39638D;stroke-miterlimit:10;}
	.st26{fill:#CAD22F;}
	.st27{fill:#58995F;}
	.st28{fill:#386693;}
	.st29{fill:none;stroke:#39638D;stroke-width:4;stroke-miterlimit:10;}
	.st30{clip-path:url(#SVGID_4_);fill:#FFFFFF;}
	.st31{fill:#9C9A9A;}
	.st32{fill:#A3BD33;}
	.st33{fill:#5788A4;}
	.st34{clip-path:url(#SVGID_6_);fill:#FFFFFF;}
	.st35{clip-path:url(#SVGID_8_);fill:#FFFFFF;}
	.st36{fill:none;stroke:#1E1E1E;stroke-width:3;stroke-miterlimit:10;}
	.st37{fill:none;stroke:#A2C038;stroke-width:3;stroke-miterlimit:10;}
	.st38{fill:none;stroke:#A2C038;stroke-width:2;stroke-miterlimit:10;}
	.st39{fill:none;stroke:#1E1E1E;stroke-width:2;stroke-miterlimit:10;}
	.st40{fill:none;stroke:#386693;stroke-width:3;stroke-miterlimit:10;}
	.st41{clip-path:url(#SVGID_10_);}
	.st42{clip-path:url(#SVGID_12_);fill:#FFFFFF;}
	.st43{fill:none;stroke:#386693;stroke-width:2;stroke-miterlimit:10;}
	.st44{clip-path:url(#SVGID_14_);}
	.st45{fill:none;}
	.st46{fill:none;stroke:#333333;stroke-miterlimit:10;}
</style>
<g id="GRILLA" class="st0">
	<g class="st1">
		<g>
			<g>
				<g>
					<rect x="-119.25" y="-891.83" class="st2" width="119.91" height="4215.2"/>
					<rect x="0.66" y="-891.83" class="st2" width="119.91" height="4215.2"/>
				</g>
			</g>
			<g>
				<g>
					<rect x="120.56" y="-873.03" class="st2" width="119.91" height="4215.2"/>
					<rect x="240.47" y="-873.03" class="st2" width="119.91" height="4215.2"/>
				</g>
			</g>
		</g>
	</g>
</g>
<g id="FONDO_COLOR">
</g>
<g id="Capa_13">
</g>
<g id="Capa_1">
</g>
<g id="INDICACIONES">
</g>
<g id="Capa_3">
</g>
<g id="Capa_5">
</g>
<g id="Capa_2">
</g>
<g id="Capa_4">
</g>
<g id="logo">
</g>
<g id="Capa_14">
</g>
<g id="computador">
</g>
<g id="Modo_de_aislamiento">
</g>
<g id="Capa_16">
	<g>
		<g>
			<path class="st11" d="M144.49,66.59c0-11.54,4.48-23.47,4.67-23.98l0.46-1.22c-10.46,8.89-17.1,22.14-17.1,36.94
				c0,23.81,17.17,43.6,39.8,47.69c-1.81-3.81-7.42-11.07-10.68-15.05C146.72,93.02,144.49,75.46,144.49,66.59z"/>
			<path class="st11" d="M172.26,54.76c2.24,2.34,4.27,4.74,6.08,7.18c2.65-5.32,6.76-9.99,10.6-14.67
				c4.75-5.78,8.09-10.37,10.41-13.83c-5.66-2.32-11.85-3.6-18.34-3.6c-10.75,0-20.67,3.5-28.71,9.42l2.38,1.36
				C155.04,40.84,163.67,45.81,172.26,54.76z"/>
			<path class="st11" d="M229.48,78.33c0-15.21-7-28.77-17.96-37.66c3.3,7.38,7.17,17.5,7.16,28.71
				c-0.03,10.17-2.62,19.94-7.7,29.04c-5.74,10.28-14.77,19.77-26.78,28.27C209.48,125.04,229.48,104.03,229.48,78.33z"/>
			<g>
				<path class="st26" d="M180.49,124.61c26.6-18.23,34.3-38.22,34.34-55.24c0.01-16.99-9.27-31.15-10.85-37.11v-0.03
					c-5.6,13.11-18.65,22.05-23.24,33.79c0,0,8.89,13.84,8.11,27.92C188.12,107.05,184.05,118.13,180.49,124.61"/>
			</g>
			<g>
				<path class="st27" d="M164.62,108.52c-12.97-15.6-16.28-31.15-16.28-41.93c0-10.97,4.42-22.61,4.42-22.61
					s33.67,19.21,32.67,49.98c-0.67,20.4-9.51,31.83-9.51,31.83C174.19,120.23,164.63,108.54,164.62,108.52z"/>
			</g>
		</g>
		<g>
			<g>
				<path class="st11" d="M181,134.37c-14.98,0-29.07-5.84-39.67-16.43c-10.6-10.6-16.43-24.68-16.43-39.67s5.84-29.07,16.43-39.67
					c10.6-10.6,24.68-16.43,39.67-16.43c14.98,0,29.07,5.84,39.67,16.43s16.43,24.68,16.43,39.67s-5.83,29.07-16.43,39.67
					C210.07,128.53,195.98,134.37,181,134.37z M181,23.73c-30.08,0-54.55,24.47-54.55,54.55s24.47,54.55,54.55,54.55
					s54.55-24.47,54.55-54.55S211.08,23.73,181,23.73z"/>
			</g>
		</g>
		<g>
			<path class="st28" d="M81.08,188.94c0.5,0.26,0.92,0.65,1.27,1.18l-0.95,0.85c-0.22-0.47-0.49-0.81-0.82-1.02
				c-0.33-0.21-0.76-0.32-1.31-0.32c-0.54,0-0.95,0.11-1.25,0.32c-0.3,0.21-0.44,0.49-0.44,0.82c0,0.31,0.14,0.56,0.43,0.74
				c0.29,0.18,0.8,0.34,1.54,0.47c0.69,0.12,1.24,0.28,1.65,0.47c0.41,0.19,0.71,0.43,0.89,0.71c0.19,0.28,0.28,0.64,0.28,1.06
				c0,0.45-0.13,0.85-0.39,1.19c-0.26,0.34-0.62,0.6-1.08,0.79c-0.46,0.18-1,0.27-1.6,0.27c-1.56,0-2.67-0.52-3.31-1.56l0.88-0.88
				c0.25,0.47,0.57,0.81,0.96,1.03c0.39,0.22,0.88,0.33,1.46,0.33c0.55,0,0.99-0.1,1.3-0.29c0.32-0.19,0.47-0.46,0.47-0.81
				c0-0.28-0.14-0.51-0.43-0.68c-0.28-0.17-0.78-0.32-1.49-0.46c-0.71-0.13-1.27-0.3-1.69-0.49c-0.42-0.19-0.73-0.44-0.92-0.72
				c-0.19-0.29-0.29-0.64-0.29-1.05c0-0.44,0.12-0.83,0.36-1.19c0.24-0.36,0.59-0.64,1.04-0.85c0.46-0.21,0.99-0.32,1.59-0.32
				C79.98,188.56,80.58,188.68,81.08,188.94z"/>
			<path class="st28" d="M94.24,195.51l-0.08,0.84c-0.21,0.09-0.45,0.14-0.72,0.14c-0.33,0-0.6-0.07-0.8-0.2
				c-0.2-0.13-0.33-0.35-0.39-0.67c-0.18,0.27-0.44,0.48-0.79,0.64s-0.74,0.23-1.18,0.23c-0.57,0-1.03-0.13-1.38-0.4
				c-0.35-0.26-0.53-0.64-0.53-1.13c0-0.46,0.19-0.85,0.57-1.16c0.38-0.32,0.95-0.54,1.7-0.67l1.48-0.26v-0.32
				c0-0.36-0.11-0.64-0.32-0.85c-0.21-0.21-0.5-0.31-0.88-0.31c-0.77,0-1.27,0.35-1.51,1.05l-0.97-0.51
				c0.14-0.47,0.43-0.84,0.86-1.11c0.43-0.27,0.96-0.41,1.59-0.41c0.75,0,1.35,0.18,1.8,0.53c0.44,0.35,0.67,0.86,0.67,1.54v2.64
				c0,0.15,0.03,0.26,0.1,0.33c0.07,0.07,0.18,0.1,0.33,0.1C93.98,195.56,94.12,195.54,94.24,195.51z M91.65,195.24
				c0.32-0.2,0.48-0.47,0.48-0.81v-0.7l-1.27,0.26c-0.4,0.08-0.7,0.19-0.9,0.33c-0.19,0.14-0.29,0.33-0.29,0.56
				c0,0.22,0.08,0.38,0.23,0.5c0.15,0.11,0.37,0.17,0.65,0.17C90.96,195.55,91.33,195.45,91.65,195.24z"/>
			<path class="st28" d="M101.93,190.54h1.89v0.98h-1.86v4.85h-1.25v-4.85h-1.1v-0.98h1.1v-0.84c0-0.59,0.18-1.05,0.54-1.38
				c0.36-0.33,0.86-0.49,1.51-0.49c0.23,0,0.45,0.03,0.64,0.08c0.19,0.05,0.35,0.12,0.46,0.2l-0.23,0.91
				c-0.18-0.12-0.4-0.18-0.67-0.18c-0.68,0-1.03,0.32-1.03,0.95V190.54z"/>
			<path class="st28" d="M114.88,193.92h-4.27c0.07,0.51,0.25,0.9,0.55,1.17c0.3,0.27,0.68,0.4,1.14,0.4c0.38,0,0.7-0.07,0.95-0.2
				c0.25-0.14,0.43-0.33,0.52-0.59l1.04,0.43c-0.44,0.9-1.27,1.35-2.51,1.35c-0.92,0-1.64-0.27-2.15-0.81
				c-0.52-0.54-0.78-1.28-0.78-2.23c0-0.96,0.25-1.7,0.75-2.23c0.5-0.53,1.2-0.8,2.1-0.8c0.86,0,1.52,0.26,2,0.78
				c0.47,0.52,0.71,1.21,0.71,2.08C114.93,193.51,114.92,193.72,114.88,193.92z M111.13,191.81c-0.28,0.26-0.45,0.65-0.52,1.16h3.15
				c-0.06-0.49-0.23-0.87-0.5-1.14c-0.27-0.27-0.62-0.41-1.04-0.41C111.77,191.42,111.41,191.55,111.13,191.81z"/>
			<path class="st28" d="M126.5,192.06l-1.17,0.47c-0.2-0.74-0.66-1.11-1.37-1.11c-0.52,0-0.93,0.18-1.21,0.54
				c-0.29,0.36-0.43,0.86-0.43,1.52c0,0.65,0.14,1.16,0.43,1.51c0.29,0.35,0.69,0.53,1.21,0.53c0.4,0,0.72-0.1,0.96-0.29
				c0.24-0.19,0.4-0.47,0.48-0.84l1.14,0.39c-0.17,0.54-0.47,0.97-0.91,1.28c-0.44,0.31-0.98,0.46-1.65,0.46
				c-0.92,0-1.64-0.27-2.15-0.81c-0.52-0.54-0.78-1.28-0.78-2.23c0-0.95,0.26-1.69,0.77-2.23s1.23-0.81,2.14-0.81
				C125.24,190.42,126.08,190.97,126.5,192.06z"/>
			<path class="st28" d="M138.38,195.51l-0.08,0.84c-0.21,0.09-0.45,0.14-0.72,0.14c-0.33,0-0.6-0.07-0.8-0.2
				c-0.2-0.13-0.33-0.35-0.39-0.67c-0.18,0.27-0.44,0.48-0.79,0.64s-0.74,0.23-1.18,0.23c-0.57,0-1.03-0.13-1.38-0.4
				c-0.35-0.26-0.53-0.64-0.53-1.13c0-0.46,0.19-0.85,0.57-1.16c0.38-0.32,0.95-0.54,1.7-0.67l1.48-0.26v-0.32
				c0-0.36-0.1-0.64-0.32-0.85c-0.21-0.21-0.5-0.31-0.88-0.31c-0.77,0-1.27,0.35-1.51,1.05l-0.97-0.51
				c0.14-0.47,0.43-0.84,0.86-1.11c0.43-0.27,0.96-0.41,1.59-0.41c0.75,0,1.35,0.18,1.8,0.53c0.44,0.35,0.67,0.86,0.67,1.54v2.64
				c0,0.15,0.03,0.26,0.1,0.33c0.07,0.07,0.18,0.1,0.33,0.1C138.12,195.56,138.26,195.54,138.38,195.51z M135.79,195.24
				c0.32-0.2,0.48-0.47,0.48-0.81v-0.7l-1.27,0.26c-0.4,0.08-0.7,0.19-0.9,0.33c-0.19,0.14-0.29,0.33-0.29,0.56
				c0,0.22,0.08,0.38,0.23,0.5c0.15,0.11,0.37,0.17,0.65,0.17C135.1,195.55,135.47,195.45,135.79,195.24z"/>
			<path class="st28" d="M148.11,190.54l-0.2,1.14c-0.18-0.1-0.42-0.15-0.74-0.15c-0.25,0-0.48,0.07-0.71,0.2
				c-0.22,0.13-0.4,0.33-0.55,0.6c-0.14,0.26-0.22,0.58-0.22,0.96v3.09h-1.25v-5.83h1.06l0.11,1.05c0.33-0.78,0.94-1.17,1.84-1.17
				C147.74,190.42,147.95,190.46,148.11,190.54z"/>
			<path class="st28" d="M159.21,193.92h-4.27c0.07,0.51,0.25,0.9,0.55,1.17c0.3,0.27,0.68,0.4,1.14,0.4c0.38,0,0.7-0.07,0.95-0.2
				c0.25-0.14,0.43-0.33,0.52-0.59l1.04,0.43c-0.44,0.9-1.27,1.35-2.51,1.35c-0.92,0-1.64-0.27-2.15-0.81
				c-0.52-0.54-0.78-1.28-0.78-2.23c0-0.96,0.25-1.7,0.75-2.23c0.5-0.53,1.2-0.8,2.1-0.8c0.86,0,1.52,0.26,2,0.78
				c0.47,0.52,0.71,1.21,0.71,2.08C159.25,193.51,159.24,193.72,159.21,193.92z M155.45,191.81c-0.28,0.26-0.45,0.65-0.52,1.16h3.15
				c-0.06-0.49-0.23-0.87-0.5-1.14c-0.27-0.27-0.62-0.41-1.04-0.41C156.09,191.42,155.73,191.55,155.45,191.81z"/>
			<path class="st28" d="M178.53,194.36h-3.24l-0.74,2.02h-1.28l2.91-7.7h1.49l2.91,7.7h-1.32L178.53,194.36z M178.16,193.34
				l-0.89-2.47l-0.35-1.11h-0.04l-0.33,1.09l-0.91,2.5H178.16z"/>
			<path class="st28" d="M190.06,195.99c-0.19,0.16-0.41,0.28-0.68,0.37c-0.27,0.09-0.56,0.13-0.87,0.13c-0.54,0-0.97-0.13-1.29-0.4
				c-0.32-0.27-0.49-0.69-0.5-1.25v-3.31h-1.11v-0.98h1.11v-1.37l1.25-0.35v1.72h2.04v0.98h-2.04v3.1c0,0.28,0.08,0.49,0.23,0.62
				c0.15,0.14,0.36,0.2,0.62,0.2c0.36,0,0.67-0.12,0.95-0.37L190.06,195.99z"/>
			<path class="st28" d="M204.24,190.66c0.33,0.16,0.59,0.4,0.78,0.73c0.19,0.33,0.29,0.73,0.29,1.2v3.78h-1.25v-3.58
				c0-0.46-0.11-0.8-0.33-1.02c-0.22-0.22-0.51-0.33-0.88-0.33c-0.43,0-0.79,0.16-1.08,0.47c-0.29,0.31-0.44,0.74-0.44,1.28v3.17
				h-1.25v-3.58c0-0.46-0.11-0.8-0.33-1.02c-0.22-0.22-0.51-0.33-0.88-0.33c-0.25,0-0.49,0.06-0.72,0.19
				c-0.23,0.13-0.42,0.33-0.57,0.6c-0.15,0.27-0.22,0.61-0.22,1.03v3.1h-1.25v-5.83h1.11l0.06,0.97c0.19-0.36,0.46-0.63,0.79-0.81
				c0.33-0.18,0.7-0.27,1.1-0.27c0.44,0,0.83,0.1,1.18,0.3c0.35,0.2,0.62,0.49,0.79,0.87c0.18-0.38,0.45-0.67,0.82-0.87
				c0.37-0.2,0.76-0.3,1.18-0.3C203.56,190.42,203.91,190.5,204.24,190.66z"/>
			<path class="st28" d="M216.81,191.23c0.51,0.54,0.77,1.28,0.77,2.23c0,0.95-0.26,1.69-0.77,2.23c-0.51,0.54-1.23,0.81-2.14,0.81
				c-0.91,0-1.62-0.27-2.14-0.81c-0.51-0.54-0.77-1.28-0.77-2.23c0-0.95,0.26-1.69,0.77-2.23c0.51-0.54,1.23-0.81,2.14-0.81
				C215.58,190.42,216.3,190.69,216.81,191.23z M213.45,191.93c-0.28,0.35-0.43,0.86-0.43,1.52c0,0.66,0.14,1.17,0.43,1.52
				c0.28,0.35,0.69,0.53,1.22,0.53c0.53,0,0.94-0.18,1.23-0.54c0.29-0.36,0.43-0.86,0.43-1.52c0-0.65-0.14-1.16-0.43-1.52
				c-0.29-0.36-0.7-0.54-1.23-0.54C214.14,191.4,213.74,191.58,213.45,191.93z"/>
			<path class="st28" d="M224.62,196.19c-0.46-0.2-0.8-0.51-1.03-0.92l0.84-0.72c0.15,0.33,0.38,0.58,0.69,0.74
				c0.31,0.16,0.68,0.23,1.12,0.23c0.4,0,0.7-0.06,0.92-0.19c0.22-0.13,0.33-0.3,0.33-0.51c0-0.19-0.1-0.34-0.3-0.45
				c-0.2-0.11-0.55-0.22-1.05-0.32c-0.86-0.16-1.47-0.38-1.82-0.65c-0.35-0.27-0.53-0.66-0.53-1.16c0-0.32,0.1-0.62,0.29-0.89
				c0.19-0.28,0.48-0.5,0.85-0.67c0.37-0.17,0.81-0.25,1.31-0.25c0.65,0,1.16,0.11,1.55,0.32c0.39,0.21,0.69,0.55,0.9,1l-0.89,0.65
				c-0.14-0.34-0.34-0.59-0.59-0.75c-0.25-0.16-0.57-0.24-0.96-0.24c-0.35,0-0.64,0.07-0.87,0.22c-0.23,0.14-0.34,0.31-0.34,0.5
				c0,0.21,0.1,0.38,0.31,0.5c0.21,0.12,0.58,0.24,1.13,0.34c0.82,0.15,1.41,0.36,1.75,0.63c0.34,0.27,0.51,0.65,0.51,1.14
				c0,0.52-0.23,0.95-0.68,1.27c-0.45,0.33-1.07,0.49-1.87,0.49C225.6,196.49,225.08,196.39,224.62,196.19z"/>
			<path class="st28" d="M240.18,191.22c0.46,0.53,0.69,1.27,0.69,2.22c0,0.95-0.23,1.69-0.69,2.23c-0.46,0.54-1.09,0.81-1.89,0.81
				c-0.42,0-0.8-0.09-1.13-0.28c-0.33-0.19-0.59-0.44-0.76-0.77v3.38h-1.25v-8.29h1.1l0.06,1.09c0.17-0.37,0.43-0.66,0.78-0.88
				c0.35-0.22,0.75-0.33,1.21-0.33C239.09,190.42,239.72,190.69,240.18,191.22z M239.2,194.95c0.28-0.35,0.43-0.85,0.43-1.49
				c0-0.64-0.14-1.14-0.43-1.49c-0.28-0.36-0.68-0.54-1.18-0.54c-0.47,0-0.85,0.16-1.14,0.48c-0.28,0.32-0.44,0.76-0.47,1.33v0.44
				c0.03,0.56,0.19,1,0.47,1.32c0.28,0.32,0.66,0.48,1.14,0.48C238.52,195.48,238.91,195.3,239.2,194.95z"/>
			<path class="st28" d="M252.12,190.98c0.41,0.37,0.61,0.91,0.61,1.61v3.78h-1.25v-3.38c0-1.03-0.42-1.54-1.25-1.54
				c-0.44,0-0.81,0.15-1.12,0.46c-0.31,0.3-0.47,0.77-0.47,1.39v3.08h-1.25v-8.46h1.25v3.56c0.19-0.36,0.45-0.62,0.78-0.79
				c0.32-0.17,0.69-0.26,1.11-0.26C251.18,190.42,251.71,190.61,252.12,190.98z"/>
			<path class="st28" d="M264.69,193.92h-4.27c0.07,0.51,0.25,0.9,0.55,1.17c0.3,0.27,0.68,0.4,1.14,0.4c0.38,0,0.7-0.07,0.95-0.2
				c0.25-0.14,0.43-0.33,0.52-0.59l1.04,0.43c-0.44,0.9-1.27,1.35-2.51,1.35c-0.92,0-1.64-0.27-2.15-0.81
				c-0.52-0.54-0.78-1.28-0.78-2.23c0-0.96,0.25-1.7,0.75-2.23c0.5-0.53,1.2-0.8,2.1-0.8c0.86,0,1.52,0.26,2,0.78
				c0.47,0.52,0.71,1.21,0.71,2.08C264.74,193.51,264.72,193.72,264.69,193.92z M260.94,191.81c-0.28,0.26-0.45,0.65-0.52,1.16h3.15
				c-0.06-0.49-0.23-0.87-0.5-1.14c-0.27-0.27-0.62-0.41-1.04-0.41C261.58,191.42,261.21,191.55,260.94,191.81z"/>
			<path class="st28" d="M274.86,190.54l-0.2,1.14c-0.18-0.1-0.42-0.15-0.74-0.15c-0.25,0-0.48,0.07-0.71,0.2
				c-0.22,0.13-0.4,0.33-0.55,0.6c-0.14,0.26-0.22,0.58-0.22,0.96v3.09h-1.25v-5.83h1.06l0.11,1.05c0.33-0.78,0.94-1.17,1.84-1.17
				C274.49,190.42,274.7,190.46,274.86,190.54z"/>
			<path class="st28" d="M285.95,193.92h-4.27c0.07,0.51,0.25,0.9,0.55,1.17c0.3,0.27,0.68,0.4,1.14,0.4c0.38,0,0.7-0.07,0.95-0.2
				c0.25-0.14,0.43-0.33,0.52-0.59l1.04,0.43c-0.44,0.9-1.27,1.35-2.51,1.35c-0.92,0-1.64-0.27-2.15-0.81
				c-0.52-0.54-0.78-1.28-0.78-2.23c0-0.96,0.25-1.7,0.75-2.23c0.5-0.53,1.2-0.8,2.1-0.8c0.86,0,1.52,0.26,2,0.78
				c0.47,0.52,0.71,1.21,0.71,2.08C286,193.51,285.98,193.72,285.95,193.92z M282.2,191.81c-0.28,0.26-0.45,0.65-0.52,1.16h3.15
				c-0.06-0.49-0.23-0.87-0.5-1.14c-0.27-0.27-0.62-0.41-1.04-0.41C282.84,191.42,282.48,191.55,282.2,191.81z"/>
		</g>
		<g>
			<path class="st28" d="M96.21,152.79c1.81,1.57,2.72,3.78,2.72,6.64c0,2.77-0.91,4.94-2.72,6.49c-1.81,1.56-4.34,2.33-7.6,2.33
				h-5.9v10.19h-5.86v-28.01h11.76C91.86,150.43,94.4,151.22,96.21,152.79z M91.71,162.63c0.85-0.72,1.27-1.8,1.27-3.25
				s-0.42-2.52-1.27-3.23c-0.85-0.71-2.18-1.06-3.99-1.06h-5.01v8.62h5.01C89.53,163.72,90.86,163.36,91.71,162.63z"/>
			<path class="st28" d="M124.43,171.61h-10.78l-2.29,6.83h-5.98l10.23-28.01h7l10.23,28.01h-6.07L124.43,171.61z M122.99,167.28
				l-2.63-7.89l-1.27-4.24H119l-1.19,4.16l-2.72,7.98H122.99z"/>
			<path class="st28" d="M162.37,176.81c-2.09,1.37-4.6,2.06-7.51,2.06c-2.74,0-5.14-0.58-7.17-1.74c-2.04-1.16-3.6-2.82-4.69-4.99
				c-1.09-2.16-1.63-4.73-1.63-7.7s0.54-5.54,1.63-7.7c1.09-2.16,2.65-3.83,4.67-4.99c2.02-1.16,4.39-1.74,7.11-1.74
				c2.91,0,5.38,0.61,7.41,1.82c2.02,1.22,3.42,3.03,4.18,5.43l-5.3,2.25c-0.45-1.67-1.16-2.87-2.12-3.61
				c-0.96-0.74-2.26-1.1-3.9-1.1c-2.38,0-4.24,0.83-5.58,2.5c-1.34,1.67-2.02,4.05-2.02,7.13c0,3.08,0.65,5.46,1.95,7.13
				c1.3,1.67,3.14,2.5,5.52,2.5c3.42,0,5.57-1.66,6.45-4.97l5.39,1.61C165.92,173.41,164.46,175.44,162.37,176.81z"/>
			<path class="st28" d="M199.16,173.73v4.71h-20.63v-28.01h5.86v23.3H199.16z"/>
			<path class="st28" d="M216.69,178.44h-5.86v-28.01h5.86V178.44z"/>
			<path class="st28" d="M236.64,155.14v7.09h11.93v4.75h-11.93v11.46h-5.86v-28.01h20.96v4.71H236.64z"/>
			<path class="st28" d="M285.14,173.73v4.71h-21.6v-28.01h21.01v4.71H269.4v6.96h11.93v4.5H269.4v7.13H285.14z"/>
		</g>
	</g>
</g>
<g id="_x31_">
</g>
<g id="Capa_18">
</g>
</svg>
