<?xml version="1.0" encoding="utf-8"?>
<!-- Generator: Adobe Illustrator 23.0.0, SVG Export Plug-In . SVG Version: 6.00 Build 0)  -->
<svg version="1.1" xmlns="http://www.w3.org/2000/svg" xmlns:xlink="http://www.w3.org/1999/xlink" x="0px" y="0px"
	 viewBox="0 0 270 640" style="enable-background:new 0 0 270 640;" xml:space="preserve">
<style type="text/css">
	.st0{display:none;}
	.st1{display:inline;}
	.st2{fill:none;stroke:#00FFFF;stroke-miterlimit:10;}
	.st3{opacity:0.3;fill:#B8E9F4;}
	.st4{opacity:0.2;fill:#99BC02;}
	.st5{fill:#FFFFFF;}
	.st6{fill:#1E1E1E;}
	.st7{clip-path:url(#SVGID_2_);fill:#FFFFFF;}
	.st8{opacity:0.9;}
	.st9{opacity:0.5;}
	.st10{fill:#A5CEED;stroke:#FFFFFF;stroke-miterlimit:10;}
	.st11{fill:#A5CEED;}
	.st12{fill:none;stroke:#FFFFFF;stroke-miterlimit:10;}
	.st13{fill:#A2C038;}
	.st14{fill:#5087A5;}
	.st15{fill:#9C9B9B;}
	.st16{fill:none;stroke:#1E1E1E;stroke-width:2.2;stroke-miterlimit:10;}
	.st17{stroke:#000000;stroke-miterlimit:10;}
	.st18{fill:none;stroke:#39638D;stroke-width:5;stroke-miterlimit:10;}
	.st19{fill:none;stroke:#39638D;stroke-width:3;stroke-miterlimit:10;}
	.st20{opacity:0.3;}
	.st21{fill:#211915;}
	.st22{opacity:0.6;}
	.st23{fill:#96969B;stroke:#96969B;stroke-width:0.75;stroke-miterlimit:10;}
	.st24{fill:none;stroke:#39638D;stroke-width:2;stroke-miterlimit:10;}
	.st25{fill:none;stroke:#39638D;stroke-miterlimit:10;}
	.st26{fill:#CAD22F;}
	.st27{fill:#58995F;}
	.st28{fill:#386693;}
	.st29{fill:none;stroke:#39638D;stroke-width:4;stroke-miterlimit:10;}
	.st30{clip-path:url(#SVGID_4_);fill:#FFFFFF;}
	.st31{fill:#9C9A9A;}
	.st32{fill:#A3BD33;}
	.st33{fill:#5788A4;}
	.st34{clip-path:url(#SVGID_6_);fill:#FFFFFF;}
	.st35{clip-path:url(#SVGID_8_);fill:#FFFFFF;}
	.st36{fill:none;stroke:#1E1E1E;stroke-width:3;stroke-miterlimit:10;}
	.st37{fill:none;stroke:#A2C038;stroke-width:3;stroke-miterlimit:10;}
	.st38{fill:none;stroke:#A2C038;stroke-width:2;stroke-miterlimit:10;}
	.st39{fill:none;stroke:#1E1E1E;stroke-width:2;stroke-miterlimit:10;}
	.st40{fill:none;stroke:#386693;stroke-width:3;stroke-miterlimit:10;}
	.st41{clip-path:url(#SVGID_10_);}
	.st42{clip-path:url(#SVGID_12_);fill:#FFFFFF;}
	.st43{fill:none;stroke:#386693;stroke-width:2;stroke-miterlimit:10;}
	.st44{clip-path:url(#SVGID_14_);}
	.st45{fill:none;}
	.st46{fill:none;stroke:#333333;stroke-miterlimit:10;}
</style>
<g id="GRILLA" class="st0">
	<g class="st1">
		<g>
			<g>
				<g>
					<rect x="-45" y="-1474.7" class="st2" width="45.01" height="4215.2"/>
					<rect x="0.01" y="-1474.7" class="st2" width="45.01" height="4215.2"/>
				</g>
				<g>
					<rect x="44.99" y="-1493.5" class="st2" width="45.01" height="4215.2"/>
					<rect x="89.99" y="-1493.5" class="st2" width="45.01" height="4215.2"/>
				</g>
			</g>
			<g>
				<g>
					<rect x="135" y="-1474.7" class="st2" width="45.01" height="4215.2"/>
					<rect x="180.01" y="-1474.7" class="st2" width="45.01" height="4215.2"/>
				</g>
				<g>
					<rect x="224.99" y="-1493.5" class="st2" width="45.01" height="4215.2"/>
					<rect x="269.99" y="-1493.5" class="st2" width="45.01" height="4215.2"/>
				</g>
			</g>
		</g>
	</g>
</g>
<g id="FONDO_COLOR">
</g>
<g id="Capa_13">
</g>
<g id="Capa_1">
</g>
<g id="INDICACIONES">
</g>
<g id="Capa_3">
</g>
<g id="Capa_5">
</g>
<g id="Capa_2">
</g>
<g id="Capa_4">
</g>
<g id="logo">
	<rect class="st5" width="270" height="640"/>
	<g>
		<g>
			<g>
				<g class="st20">
					<g>
						<g>
							<path class="st21" d="M226.47,311.12c-3.22,0-6.4,0-9.62,0c0.04,0.1,0.06,0.17,0.1,0.24c0.42,0.89,0.34,1.74-0.2,2.54
								c-0.58,0.86-1.39,1.36-2.46,1.31c-0.76-0.03-1.4-0.38-1.87-0.96c-0.26-0.32-0.53-0.44-0.93-0.41
								c-0.44,0.03-0.89,0.02-1.34,0.01c-0.17,0-0.27,0.05-0.37,0.19c-0.25,0.36-0.58,0.64-0.97,0.85c-0.79,0.43-1.6,0.48-2.4,0.05
								c-1.05-0.57-1.66-1.43-1.6-2.66c0.01-0.29,0.14-0.57,0.22-0.86c0.03-0.09,0.08-0.18,0.14-0.31c-0.33,0-0.63-0.02-0.92,0
								c-0.51,0.04-0.83-0.33-0.83-0.82c0.01-4.04,0.01-8.09,0.01-12.13c0-0.29,0.05-0.57,0.32-0.71c0.15-0.08,0.35-0.11,0.53-0.11
								c2.44-0.01,4.88,0,7.32-0.01c3.32,0,6.64,0,9.96,0c3.31,0,6.62,0.01,9.93,0c0.57,0,0.83,0.35,0.83,0.85
								c-0.01,3.66-0.01,7.33-0.01,10.99c0,0.16,0,0.32,0,0.51c0.45,0,0.88,0,1.35,0c0-0.12,0-0.24,0-0.36
								c0-2.06,0.02-4.12-0.01-6.18c-0.01-0.74,0.28-1,0.97-0.99c1.47,0.02,2.93,0.01,4.4,0.01c0.52,0,0.69,0.14,0.89,0.63
								c0.35,0.89,0.72,1.78,1.06,2.68c0.08,0.21,0.21,0.33,0.42,0.41c0.91,0.35,1.81,0.72,2.71,1.08c0.46,0.19,0.58,0.35,0.58,0.85
								c0,1.76,0,3.53,0,5.29c0,0.5-0.26,0.75-0.77,0.76c-0.93,0.01-1.86,0.01-2.78,0c-0.2,0-0.33,0.06-0.45,0.23
								c-0.57,0.72-1.29,1.16-2.23,1.15c-0.84-0.01-1.51-0.38-2.02-1.01c-0.23-0.28-0.46-0.37-0.81-0.37
								c-1.36,0.02-2.73,0.01-4.09,0c-0.22,0-0.34,0.07-0.48,0.24c-0.56,0.7-1.27,1.16-2.2,1.14c-1.09-0.02-1.86-0.59-2.39-1.49
								c-0.46-0.78-0.47-1.59-0.07-2.4C226.41,311.27,226.43,311.21,226.47,311.12z M230.9,309.69c0-3.67,0-7.29,0-10.93
								c-8.69,0-17.37,0-26.05,0c0,3.66,0,7.29,0,10.93C213.55,309.69,222.21,309.69,230.9,309.69z M243.27,312.43
								c0.01-0.08,0.02-0.15,0.02-0.21c0-1.23,0-2.45,0-3.68c0-0.42-0.01-0.42-0.41-0.58c-0.83-0.33-1.66-0.67-2.49-0.99
								c-0.26-0.1-0.44-0.27-0.54-0.54c-0.22-0.58-0.45-1.15-0.69-1.72c-0.16-0.39-0.32-0.78-0.47-1.16c-1.22,0-2.41,0-3.61,0
								c0,2.97,0,5.91,0,8.87c0.12,0.01,0.23,0.02,0.33,0.02c0.1,0,0.2-0.01,0.29-0.02c0.21-1.5,1.26-2.61,2.52-2.72
								c0.6-0.05,1.16,0.08,1.67,0.41c0.83,0.55,1.31,1.32,1.38,2.31C241.96,312.43,242.61,312.43,243.27,312.43z M207.59,313.83
								c0.8,0,1.34-0.56,1.34-1.37c0-0.83-0.54-1.35-1.39-1.36c-0.79,0-1.33,0.53-1.34,1.33
								C206.2,313.29,206.74,313.83,207.59,313.83z M215.8,312.46c0-0.83-0.55-1.36-1.39-1.36c-0.81,0-1.35,0.55-1.34,1.37
								c0.01,0.84,0.54,1.36,1.38,1.36C215.28,313.82,215.81,313.28,215.8,312.46z M238.49,313.83c0.81,0,1.36-0.55,1.36-1.36
								c0-0.84-0.54-1.37-1.38-1.37c-0.81,0-1.34,0.53-1.34,1.34C237.13,313.29,237.66,313.83,238.49,313.83z M228.87,313.82
								c0.83,0,1.37-0.55,1.36-1.38c-0.01-0.81-0.56-1.35-1.37-1.34c-0.83,0-1.37,0.55-1.36,1.38
								C227.52,313.3,228.05,313.83,228.87,313.82z M233.65,311.13c-0.81,0-1.58,0-2.33,0c0.13,0.45,0.25,0.87,0.37,1.3
								c0.64,0,1.3,0,1.96,0C233.65,311.98,233.65,311.56,233.65,311.13z M212,311.1c-0.67,0.02-1.34-0.02-1.99,0.01
								c0.14,0.46,0.26,0.88,0.39,1.32c0.4,0,0.82,0,1.21,0C211.74,311.97,211.87,311.55,212,311.1z"/>
							<path class="st21" d="M207.55,308.34c-0.46,0-0.89,0-1.35,0c0-2.75,0-5.47,0-8.23c0.44,0,0.88,0,1.35,0
								C207.55,302.84,207.55,305.57,207.55,308.34z"/>
							<path class="st21" d="M210.3,308.34c-0.46,0-0.89,0-1.35,0c0-2.74,0-5.47,0-8.23c0.44,0,0.88,0,1.35,0
								C210.3,302.84,210.3,305.57,210.3,308.34z"/>
							<path class="st21" d="M211.7,300.1c0.45,0,0.88,0,1.34,0c0,2.74,0,5.47,0,8.22c-0.44,0-0.87,0-1.34,0
								C211.7,305.59,211.7,302.87,211.7,300.1z"/>
							<path class="st21" d="M215.81,300.11c0,2.74,0,5.46,0,8.24c-0.23,0-0.45,0-0.67,0c-0.22,0-0.43,0-0.7,0
								c-0.01-2.75,0-5.48-0.01-8.24C214.89,300.11,215.32,300.11,215.81,300.11z"/>
							<path class="st21" d="M217.2,300.1c0.45,0,0.88,0,1.34,0c0,2.74,0,5.47,0,8.23c-0.44,0-0.88,0-1.34,0
								C217.2,305.59,217.2,302.87,217.2,300.1z"/>
							<path class="st21" d="M219.95,300.08c0.31,0,0.58,0,0.85,0c0.16,0,0.32,0,0.5,0c0,2.77,0,5.49,0,8.27c-0.23,0-0.45,0-0.68,0
								c-0.22,0-0.43,0-0.67,0C219.95,305.59,219.95,302.86,219.95,300.08z"/>
							<path class="st21" d="M224.05,308.34c-0.46,0-0.89,0-1.35,0c0-2.74,0-5.47,0-8.23c0.44,0,0.88,0,1.35,0
								C224.05,302.84,224.05,305.57,224.05,308.34z"/>
							<path class="st21" d="M226.79,308.34c-0.45,0-0.89,0-1.34,0c0-2.74,0-5.47,0-8.24c0.44-0.03,0.88-0.01,1.34,0
								C226.79,302.84,226.79,305.57,226.79,308.34z"/>
							<path class="st21" d="M228.19,300.1c0.47,0,0.9,0,1.35,0c0,2.75,0,5.48,0,8.25c-0.24,0-0.46,0-0.69,0c-0.21,0-0.43,0-0.67,0
								C228.19,305.59,228.19,302.86,228.19,300.1z"/>
						</g>
					</g>
				</g>
			</g>
		</g>
		<g>
			<g class="st22">
				<g>
					<g>
						<path class="st23" d="M43.13,246.08c-5.05,0-10.11,0-15.16,0c-0.73,0-1.28-0.31-1.68-0.91c-0.19-0.29-0.28-0.61-0.28-0.95
							c-0.01-1.03-0.01-2.06,0-3.09c0-0.42,0.12-0.81,0.39-1.13c0.14-0.17,0.13-0.29,0-0.46c-0.3-0.38-0.41-0.82-0.4-1.3
							c0.01-0.93,0.01-1.86,0-2.79c0-0.47,0.11-0.89,0.42-1.25c0.13-0.15,0.12-0.26,0-0.42c-0.3-0.36-0.42-0.78-0.41-1.25
							c0.01-0.96,0.03-1.92,0-2.87c-0.03-1.12,1.01-2.04,1.94-1.99c0.2,0.01,0.41,0,0.61-0.01c0.32-0.01,0.32-0.01,0.33-0.31
							c0.03-0.6,0.18-1.17,0.51-1.68c0.57-0.9,1.39-1.41,2.43-1.58c0.27-0.04,0.29-0.04,0.19-0.32c-0.25-0.67-0.34-1.34-0.17-2.05
							c0.18-0.81,0.58-1.48,1.24-1.99c0.07-0.05,0.14-0.11,0.21-0.16c0.11-0.08,0.15-0.17,0.07-0.3c-0.04-0.06-0.07-0.13-0.1-0.2
							c-0.13-0.31-0.04-0.58,0.25-0.74c0.27-0.15,0.51-0.08,0.71,0.19c0.05,0.07,0.11,0.14,0.14,0.22c0.08,0.26,0.27,0.3,0.51,0.27
							c0.86-0.11,1.63,0.13,2.33,0.62c0.18,0.12,0.34,0.36,0.52,0.37c0.17,0,0.35-0.22,0.52-0.36c0.39-0.32,0.86-0.5,1.34-0.59
							c0.27-0.05,0.4-0.15,0.51-0.38c0.5-0.96,1.29-1.57,2.34-1.78c1.58-0.31,3.02,0.41,3.74,1.76c0.13,0.24,0.26,0.35,0.54,0.4
							c0.59,0.11,1.12,0.38,1.58,0.78c0.24,0.21,0.25,0.21,0.51-0.01c0.4-0.33,0.84-0.58,1.33-0.72c1.83-0.52,3.78,0.59,4.25,2.4
							c0.06,0.24,0.12,0.39,0.41,0.4c0.23,0.01,0.39,0.22,0.42,0.43c0.03,0.28-0.07,0.55-0.33,0.59c-0.4,0.06-0.49,0.33-0.57,0.64
							c-0.05,0.19-0.2,0.4-0.15,0.55c0.04,0.12,0.32,0.14,0.5,0.22c1.04,0.47,1.66,1.29,1.93,2.38c0.05,0.21,0.08,0.43,0.09,0.64
							c0.01,0.21,0.08,0.28,0.29,0.28c0.46-0.01,0.93,0.02,1.39,0c0.76-0.03,1.67,0.65,1.86,1.5c0.03,0.15,0.05,0.32,0.05,0.47
							c0,0.97,0,1.95,0,2.92c0,0.45-0.11,0.87-0.4,1.21c-0.15,0.17-0.12,0.29,0.01,0.45c0.28,0.34,0.4,0.73,0.4,1.17
							c-0.01,0.97-0.01,1.95,0,2.92c0,0.44-0.1,0.84-0.37,1.18c-0.14,0.19-0.18,0.33-0.01,0.53c0.29,0.35,0.38,0.77,0.38,1.22
							c-0.01,0.96-0.02,1.92,0,2.87c0.02,1.23-1.08,1.97-1.95,1.97C53.26,246.07,48.19,246.08,43.13,246.08z M43.14,240.33
							c-1.19,0-2.38,0-3.57,0c-3.79,0-7.58,0.01-11.37-0.01c-0.63,0-1.1,0.33-1.11,1c-0.01,0.9-0.02,1.8,0,2.7
							c0.01,0.63,0.39,0.98,1.03,0.99c0.12,0,0.23,0,0.35,0c6.58,0,13.15,0,19.73,0c3.28,0,6.56,0,9.84,0c0.16,0,0.32,0,0.47-0.04
							c0.44-0.13,0.68-0.47,0.68-1c0.01-0.86,0-1.71,0-2.57c0.01-0.68-0.44-1.08-1.12-1.08C53.1,240.34,48.12,240.33,43.14,240.33z
							 M43.15,234.58c-0.7,0-1.39,0-2.09,0c-4.3,0-8.59,0-12.89,0c-0.69,0-1.06,0.32-1.08,0.97c-0.02,0.91-0.02,1.83,0,2.74
							c0.01,0.54,0.4,0.92,0.94,0.96c0.1,0.01,0.2,0,0.3,0c1.61,0,3.22,0,4.83,0c6.49,0,12.98,0,19.46,0c1.83,0,3.66-0.01,5.49,0.01
							c0.62,0.01,1.12-0.5,1.09-1.09c-0.03-0.52-0.01-1.04-0.01-1.57c0-0.32,0.01-0.64,0-0.96c-0.01-0.72-0.36-1.06-1.07-1.07
							c-0.17,0-0.35,0-0.52,0C52.79,234.58,47.97,234.58,43.15,234.58z M43.14,228.82C43.14,228.82,43.14,228.81,43.14,228.82
							c-0.06-0.01-0.12-0.01-0.17-0.01c-4.82,0-9.64,0.01-14.46,0.01c-0.19,0-0.38,0-0.57,0c-0.22,0-0.39,0.09-0.55,0.23
							c-0.23,0.21-0.31,0.48-0.31,0.78c0,0.83,0,1.66,0,2.48c0,0.79,0.35,1.13,1.14,1.13c6.78,0,13.56,0,20.34,0
							c3.19,0,6.39,0,9.58,0c0.67,0,1.05-0.37,1.05-1.05c0.01-0.86,0.01-1.71,0-2.57c-0.01-0.67-0.36-1.01-1.03-1.01
							c-1.83,0-3.66,0-5.49,0C49.5,228.82,46.32,228.82,43.14,228.82z M37.95,222.48c-0.03,1.25,0.99,2.32,2.33,2.31
							c1.4-0.01,2.33-1.17,2.3-2.35c-0.03-1.34-0.99-2.32-2.29-2.31C38.78,220.14,37.93,221.26,37.95,222.48z M51.11,224.8
							c0.15-0.02,0.37-0.04,0.57-0.1c0.75-0.21,1.26-0.68,1.56-1.39c0.07-0.15,0.03-0.25-0.13-0.3c-0.05-0.02-0.11-0.04-0.16-0.07
							c-0.19-0.13-0.3-0.3-0.27-0.55c0.03-0.23,0.16-0.36,0.36-0.45c0.27-0.12,0.27-0.12,0.16-0.39c-0.05-0.13-0.12-0.27-0.2-0.38
							c-0.57-0.77-1.31-1.14-2.29-0.99c-0.78,0.12-1.37,0.53-1.7,1.21C48.23,223.01,49.3,224.7,51.11,224.8z M45.97,224.8
							c0.69-0.03,1.26-0.24,1.73-0.71c0.16-0.17,0.2-0.31,0.11-0.54c-0.25-0.69-0.26-1.4-0.02-2.09c0.12-0.35,0.01-0.55-0.23-0.75
							c-1-0.85-2.57-0.74-3.36,0.33c-0.55,0.75-0.68,1.55-0.26,2.41C44.36,224.33,45.08,224.72,45.97,224.8z M32.85,222.48
							c0.07,0.29,0.1,0.6,0.22,0.88c0.38,0.9,1.1,1.38,2.06,1.44c0.68,0.04,1.27-0.24,1.76-0.72c0.14-0.14,0.19-0.28,0.11-0.5
							c-0.25-0.7-0.27-1.43-0.02-2.13c0.11-0.32,0-0.51-0.22-0.71c-0.41-0.36-0.89-0.53-1.42-0.59c-0.2-0.02-0.27,0.01-0.32,0.23
							c-0.11,0.46-0.53,0.63-0.9,0.33c-0.21-0.17-0.33-0.11-0.47,0.03C33.17,221.21,32.86,221.76,32.85,222.48z M32.33,227.68
							c0.67,0,1.34,0,2,0c0.29,0,0.32-0.03,0.3-0.33c0-0.04,0-0.09-0.01-0.13c-0.26-1.47-1.57-2.35-3.03-1.89
							c-0.88,0.28-1.39,0.91-1.57,1.81c-0.11,0.55-0.1,0.55,0.48,0.55C31.11,227.68,31.72,227.68,32.33,227.68z M43.15,227.68
							c0.67,0,1.33,0,2,0c0.3,0,0.32-0.03,0.31-0.33c-0.01-0.39-0.14-0.74-0.34-1.06c-0.75-1.21-2.37-1.42-3.41-0.61
							c-0.54,0.42-0.83,0.99-0.88,1.67c-0.02,0.29,0.01,0.32,0.31,0.32C41.81,227.68,42.48,227.68,43.15,227.68z M53.23,227.68
							c0.65,0,1.31,0,1.96,0c0.37,0,0.4-0.03,0.36-0.41c-0.09-0.94-0.79-1.75-1.69-2c-0.34-0.1-0.7-0.12-1.02,0.15
							c-0.26,0.21-0.59,0.3-0.92,0.38c-0.15,0.03-0.32,0.09-0.42,0.2c-0.35,0.37-0.55,0.82-0.56,1.33
							c-0.01,0.33,0.01,0.35,0.33,0.35C51.93,227.68,52.58,227.68,53.23,227.68z M37.72,227.68c0.57,0,1.13,0,1.7,0
							c0.2,0,0.27-0.07,0.29-0.27c0.03-0.33,0.09-0.66,0.17-0.98c0.09-0.37,0.04-0.46-0.34-0.59c-0.35-0.12-0.72-0.24-1.04-0.43
							c-0.27-0.16-0.51-0.21-0.81-0.18c-0.95,0.12-1.88,1.12-1.9,2.09c-0.01,0.33,0.01,0.35,0.33,0.36
							C36.65,227.68,37.18,227.68,37.72,227.68z M48.16,227.68C48.16,227.68,48.16,227.68,48.16,227.68c0.46,0,0.93,0,1.39,0
							c0.15,0,0.25-0.05,0.25-0.22c-0.01-0.52,0.14-1,0.35-1.47c0.06-0.13,0.03-0.19-0.11-0.25c-0.31-0.13-0.6-0.29-0.9-0.43
							c-0.11-0.05-0.24-0.11-0.36-0.1c-0.44,0.02-0.85,0.14-1.21,0.42c-0.57,0.44-0.92,1-0.98,1.72c-0.02,0.3,0.01,0.33,0.31,0.33
							C47.32,227.68,47.74,227.68,48.16,227.68z M43.07,217.96c-0.68,0.11-1.36,0.3-1.8,0.96c-0.14,0.21-0.15,0.21,0.07,0.29
							c0.67,0.24,1.25,0.6,1.67,1.18c0.12,0.17,0.21,0.09,0.29-0.03c0.25-0.39,0.62-0.64,1-0.88c0.19-0.12,0.42-0.19,0.63-0.29
							c0.12-0.05,0.2-0.11,0.09-0.26C44.54,218.3,43.9,218,43.07,217.96z"/>
						<path class="st23" d="M56.48,242.14c0.14,0,0.29-0.01,0.43,0c0.31,0.03,0.5,0.25,0.49,0.55c-0.01,0.28-0.2,0.49-0.49,0.51
							c-0.29,0.02-0.58,0.02-0.87,0c-0.27-0.02-0.47-0.26-0.47-0.53c0-0.27,0.2-0.5,0.47-0.53
							C56.19,242.13,56.33,242.14,56.48,242.14L56.48,242.14z"/>
						<path class="st23" d="M29.85,242.14c0.12,0,0.23-0.01,0.35,0c0.31,0.02,0.52,0.23,0.52,0.52c0.01,0.28-0.21,0.52-0.5,0.54
							c-0.27,0.01-0.55,0.01-0.82,0c-0.28-0.01-0.49-0.25-0.5-0.54c-0.01-0.24,0.17-0.47,0.44-0.5c0.17-0.02,0.34,0,0.52,0
							C29.85,242.14,29.85,242.14,29.85,242.14z"/>
						<path class="st23" d="M29.8,236.38c0.13,0,0.26-0.01,0.39,0c0.31,0.02,0.51,0.19,0.53,0.46c0.02,0.27-0.14,0.55-0.41,0.58
							c-0.34,0.04-0.69,0.04-1.03,0c-0.27-0.03-0.43-0.35-0.38-0.64c0.05-0.29,0.22-0.42,0.55-0.41
							C29.57,236.37,29.68,236.37,29.8,236.38C29.8,236.37,29.8,236.38,29.8,236.38z"/>
						<path class="st23" d="M56.51,236.38c0.1,0,0.2,0,0.3,0c0.37-0.01,0.55,0.14,0.58,0.47c0.03,0.31-0.17,0.56-0.49,0.6
							c-0.27,0.03-0.55,0.02-0.82,0c-0.32-0.03-0.53-0.28-0.51-0.59c0.01-0.28,0.22-0.47,0.55-0.48
							C56.25,236.37,56.38,236.38,56.51,236.38L56.51,236.38z"/>
						<path class="st23" d="M56.47,231.73c-0.19-0.04-0.4-0.05-0.58-0.13c-0.27-0.12-0.37-0.35-0.32-0.6
							c0.05-0.26,0.23-0.41,0.52-0.43c0.24-0.01,0.49-0.01,0.74,0c0.35,0.02,0.55,0.22,0.56,0.54c0.01,0.3-0.2,0.55-0.52,0.58
							c-0.13,0.02-0.26,0-0.39,0C56.48,231.71,56.48,231.72,56.47,231.73z"/>
						<path class="st23" d="M29.74,231.71c-0.13-0.01-0.26,0-0.39-0.02c-0.39-0.09-0.58-0.51-0.38-0.84
							c0.05-0.09,0.17-0.18,0.26-0.19c0.35-0.04,0.71-0.07,1.06-0.06c0.27,0.01,0.49,0.45,0.37,0.71c-0.11,0.23-0.29,0.35-0.54,0.39
							c-0.13,0.02-0.26,0-0.39,0C29.74,231.7,29.74,231.7,29.74,231.71z"/>
					</g>
				</g>
			</g>
		</g>
		<g>
			<g>
				<polyline class="st24" points="217.61,536.74 233.72,536.74 233.72,326.24 				"/>
				<line class="st25" x1="244.06" y1="326.05" x2="101.88" y2="326.05"/>
				<polyline class="st24" points="181.41,130.8 233.72,130.8 233.72,283.71 				"/>
				<line class="st25" x1="25.31" y1="258.28" x2="185" y2="258.28"/>
				<polyline class="st24" points="51.8,536.56 35.78,536.42 35.66,308.22 35.66,278.61 35.66,258.74 				"/>
			</g>
			<polyline class="st24" points="87.33,130.8 35.66,130.8 35.66,204.4 			"/>
		</g>
		<g>
			<g>
				<path class="st11" d="M112.4,468.57c0-7.14,2.77-14.53,2.89-14.84l0.29-0.76c-6.47,5.51-10.59,13.7-10.59,22.87
					c0,14.74,10.63,26.99,24.64,29.52c-1.12-2.36-4.59-6.85-6.61-9.32C113.78,484.93,112.4,474.06,112.4,468.57z"/>
				<path class="st11" d="M129.59,461.24c1.39,1.45,2.64,2.93,3.77,4.45c1.64-3.29,4.18-6.19,6.56-9.08
					c2.94-3.58,5.01-6.42,6.44-8.56c-3.5-1.43-7.34-2.23-11.36-2.23c-6.65,0-12.8,2.17-17.77,5.83l1.48,0.84
					C118.93,452.63,124.27,455.7,129.59,461.24z"/>
				<path class="st11" d="M165.01,475.83c0-9.41-4.34-17.81-11.12-23.31c2.04,4.57,4.44,10.83,4.43,17.77
					c-0.02,6.3-1.62,12.35-4.77,17.98c-3.55,6.36-9.14,12.24-16.58,17.5C152.63,504.75,165.01,491.74,165.01,475.83z"/>
				<g>
					<path class="st26" d="M134.68,504.49c16.47-11.29,21.23-23.66,21.26-34.2c0.01-10.52-5.74-19.29-6.72-22.97v-0.02
						c-3.46,8.12-11.54,13.65-14.39,20.92c0,0,5.5,8.57,5.02,17.29C139.41,493.61,136.89,500.48,134.68,504.49"/>
				</g>
				<g>
					<path class="st27" d="M124.86,494.53c-8.03-9.66-10.08-19.28-10.08-25.96c0-6.79,2.73-14,2.73-14s20.85,11.89,20.22,30.94
						c-0.41,12.63-5.89,19.7-5.89,19.7C130.79,501.77,124.87,494.54,124.86,494.53z"/>
				</g>
			</g>
			<g>
				<g>
					<path class="st11" d="M135,510.52c-9.28,0-18-3.61-24.56-10.17c-6.56-6.56-10.17-15.28-10.17-24.56s3.61-18,10.17-24.56
						c6.56-6.56,15.28-10.17,24.56-10.17c9.28,0,18,3.61,24.56,10.17c6.56,6.56,10.17,15.28,10.17,24.56s-3.61,18-10.17,24.56
						C153,506.91,144.28,510.52,135,510.52z M135,442.03c-18.62,0-33.77,15.15-33.77,33.77s15.15,33.77,33.77,33.77
						s33.77-15.15,33.77-33.77S153.62,442.03,135,442.03z"/>
				</g>
			</g>
			<g>
				<path class="st28" d="M73.15,544.31c0.31,0.16,0.57,0.4,0.78,0.73l-0.59,0.53c-0.13-0.29-0.3-0.5-0.51-0.63
					c-0.2-0.13-0.47-0.2-0.81-0.2c-0.33,0-0.59,0.07-0.77,0.2c-0.18,0.13-0.27,0.3-0.27,0.51c0,0.19,0.09,0.35,0.27,0.46
					c0.18,0.11,0.5,0.21,0.95,0.29c0.43,0.08,0.77,0.17,1.02,0.29c0.25,0.12,0.44,0.26,0.55,0.44c0.12,0.18,0.17,0.39,0.17,0.65
					c0,0.28-0.08,0.52-0.24,0.74c-0.16,0.21-0.38,0.37-0.67,0.49c-0.29,0.11-0.62,0.17-0.99,0.17c-0.97,0-1.65-0.32-2.05-0.97
					l0.54-0.54c0.15,0.29,0.35,0.5,0.6,0.64c0.24,0.13,0.55,0.2,0.91,0.2c0.34,0,0.61-0.06,0.81-0.18c0.2-0.12,0.29-0.29,0.29-0.5
					c0-0.17-0.09-0.31-0.26-0.42c-0.18-0.11-0.48-0.2-0.92-0.28c-0.44-0.08-0.79-0.18-1.05-0.3c-0.26-0.12-0.45-0.27-0.57-0.45
					c-0.12-0.18-0.18-0.39-0.18-0.65c0-0.27,0.07-0.52,0.22-0.74c0.15-0.22,0.36-0.4,0.65-0.53c0.28-0.13,0.61-0.2,0.99-0.2
					C72.46,544.07,72.84,544.15,73.15,544.31z"/>
				<path class="st28" d="M81.29,548.38l-0.05,0.52c-0.13,0.06-0.28,0.09-0.45,0.09c-0.21,0-0.37-0.04-0.49-0.12
					c-0.12-0.08-0.2-0.22-0.24-0.41c-0.11,0.17-0.27,0.3-0.49,0.39s-0.46,0.14-0.73,0.14c-0.35,0-0.64-0.08-0.85-0.25
					s-0.33-0.4-0.33-0.7c0-0.28,0.12-0.52,0.35-0.72c0.24-0.2,0.59-0.33,1.05-0.42l0.92-0.16v-0.2c0-0.22-0.07-0.4-0.2-0.52
					c-0.13-0.13-0.31-0.19-0.54-0.19c-0.48,0-0.79,0.22-0.93,0.65l-0.6-0.32c0.09-0.29,0.26-0.52,0.53-0.69
					c0.27-0.17,0.6-0.25,0.99-0.25c0.47,0,0.84,0.11,1.11,0.33c0.27,0.22,0.41,0.53,0.41,0.95v1.63c0,0.09,0.02,0.16,0.06,0.2
					c0.04,0.04,0.11,0.07,0.21,0.07C81.13,548.41,81.22,548.4,81.29,548.38z M79.69,548.21c0.2-0.13,0.3-0.29,0.3-0.5v-0.43
					l-0.79,0.16c-0.25,0.05-0.44,0.12-0.56,0.2c-0.12,0.09-0.18,0.2-0.18,0.35c0,0.13,0.05,0.24,0.14,0.31
					c0.09,0.07,0.23,0.1,0.4,0.1C79.26,548.4,79.49,548.34,79.69,548.21z"/>
				<path class="st28" d="M86.05,545.3h1.17v0.61h-1.15v3.01H85.3v-3.01h-0.68v-0.61h0.68v-0.52c0-0.37,0.11-0.65,0.33-0.85
					c0.22-0.2,0.53-0.3,0.93-0.3c0.14,0,0.28,0.02,0.4,0.05c0.12,0.03,0.21,0.07,0.28,0.13l-0.14,0.56
					c-0.11-0.07-0.25-0.11-0.41-0.11c-0.42,0-0.64,0.2-0.64,0.59V545.3z"/>
				<path class="st28" d="M94.07,547.39h-2.64c0.04,0.32,0.16,0.56,0.34,0.73c0.18,0.17,0.42,0.25,0.71,0.25
					c0.24,0,0.43-0.04,0.59-0.13c0.16-0.08,0.26-0.21,0.32-0.36l0.64,0.27c-0.27,0.56-0.79,0.84-1.55,0.84
					c-0.57,0-1.01-0.17-1.33-0.5c-0.32-0.33-0.48-0.79-0.48-1.38c0-0.59,0.15-1.05,0.46-1.38c0.31-0.33,0.74-0.49,1.3-0.49
					c0.53,0,0.94,0.16,1.24,0.48c0.29,0.32,0.44,0.75,0.44,1.29C94.1,547.14,94.09,547.27,94.07,547.39z M91.75,546.09
					c-0.17,0.16-0.28,0.4-0.32,0.72h1.95c-0.04-0.3-0.14-0.54-0.31-0.71c-0.17-0.17-0.38-0.25-0.65-0.25
					C92.14,545.84,91.92,545.92,91.75,546.09z"/>
				<path class="st28" d="M101.26,546.24l-0.72,0.29c-0.13-0.46-0.41-0.69-0.85-0.69c-0.32,0-0.57,0.11-0.75,0.33
					c-0.18,0.22-0.27,0.53-0.27,0.94s0.09,0.72,0.27,0.93c0.18,0.22,0.43,0.33,0.75,0.33c0.25,0,0.44-0.06,0.59-0.18
					c0.15-0.12,0.25-0.29,0.3-0.52l0.71,0.24c-0.11,0.34-0.29,0.6-0.56,0.79c-0.27,0.19-0.61,0.29-1.02,0.29
					c-0.57,0-1.01-0.17-1.33-0.5c-0.32-0.33-0.48-0.79-0.48-1.38c0-0.59,0.16-1.05,0.48-1.38c0.32-0.33,0.76-0.5,1.32-0.5
					C100.48,545.23,101,545.56,101.26,546.24z"/>
				<path class="st28" d="M108.61,548.38l-0.05,0.52c-0.13,0.06-0.28,0.09-0.45,0.09c-0.21,0-0.37-0.04-0.49-0.12
					s-0.2-0.22-0.24-0.41c-0.11,0.17-0.27,0.3-0.49,0.39c-0.22,0.09-0.46,0.14-0.73,0.14c-0.35,0-0.64-0.08-0.85-0.25
					s-0.33-0.4-0.33-0.7c0-0.28,0.12-0.52,0.35-0.72c0.24-0.2,0.59-0.33,1.05-0.42l0.92-0.16v-0.2c0-0.22-0.06-0.4-0.2-0.52
					c-0.13-0.13-0.31-0.19-0.54-0.19c-0.48,0-0.79,0.22-0.93,0.65l-0.6-0.32c0.09-0.29,0.26-0.52,0.53-0.69
					c0.27-0.17,0.6-0.25,0.99-0.25c0.47,0,0.84,0.11,1.11,0.33c0.27,0.22,0.41,0.53,0.41,0.95v1.63c0,0.09,0.02,0.16,0.06,0.2
					c0.04,0.04,0.11,0.07,0.21,0.07C108.45,548.41,108.54,548.4,108.61,548.38z M107.01,548.21c0.2-0.13,0.3-0.29,0.3-0.5v-0.43
					l-0.79,0.16c-0.25,0.05-0.44,0.12-0.56,0.2c-0.12,0.09-0.18,0.2-0.18,0.35c0,0.13,0.05,0.24,0.14,0.31
					c0.09,0.07,0.23,0.1,0.4,0.1C106.58,548.4,106.81,548.34,107.01,548.21z"/>
				<path class="st28" d="M114.64,545.3l-0.12,0.71c-0.11-0.06-0.26-0.09-0.46-0.09c-0.15,0-0.3,0.04-0.44,0.12
					c-0.14,0.08-0.25,0.2-0.34,0.37c-0.09,0.16-0.13,0.36-0.13,0.59v1.91h-0.77v-3.61h0.66l0.07,0.65c0.2-0.48,0.58-0.72,1.14-0.72
					C114.41,545.23,114.54,545.25,114.64,545.3z"/>
				<path class="st28" d="M121.51,547.39h-2.64c0.04,0.32,0.16,0.56,0.34,0.73c0.18,0.17,0.42,0.25,0.71,0.25
					c0.24,0,0.43-0.04,0.59-0.13c0.16-0.08,0.26-0.21,0.32-0.36l0.64,0.27c-0.27,0.56-0.79,0.84-1.55,0.84
					c-0.57,0-1.01-0.17-1.33-0.5c-0.32-0.33-0.48-0.79-0.48-1.38c0-0.59,0.15-1.05,0.46-1.38c0.31-0.33,0.74-0.49,1.3-0.49
					c0.53,0,0.94,0.16,1.24,0.48c0.29,0.32,0.44,0.75,0.44,1.29C121.54,547.14,121.53,547.27,121.51,547.39z M119.19,546.09
					c-0.17,0.16-0.28,0.4-0.32,0.72h1.95c-0.04-0.3-0.14-0.54-0.31-0.71c-0.17-0.17-0.38-0.25-0.65-0.25
					C119.58,545.84,119.36,545.92,119.19,546.09z"/>
				<path class="st28" d="M133.47,547.66h-2.01l-0.46,1.25h-0.79l1.8-4.77h0.92l1.8,4.77h-0.82L133.47,547.66z M133.24,547.03
					l-0.55-1.53l-0.22-0.69h-0.02l-0.2,0.67l-0.56,1.55H133.24z"/>
				<path class="st28" d="M140.61,548.67c-0.12,0.1-0.26,0.17-0.42,0.23c-0.17,0.06-0.35,0.08-0.54,0.08c-0.33,0-0.6-0.08-0.8-0.25
					c-0.2-0.17-0.3-0.42-0.31-0.78v-2.05h-0.69v-0.61h0.69v-0.85l0.77-0.22v1.06h1.26v0.61h-1.26v1.92c0,0.17,0.05,0.3,0.14,0.39
					c0.09,0.08,0.22,0.13,0.39,0.13c0.22,0,0.42-0.08,0.59-0.23L140.61,548.67z"/>
				<path class="st28" d="M149.39,545.37c0.2,0.1,0.36,0.25,0.48,0.45c0.12,0.2,0.18,0.45,0.18,0.74v2.34h-0.77v-2.22
					c0-0.28-0.07-0.49-0.2-0.63c-0.13-0.13-0.32-0.2-0.54-0.2c-0.26,0-0.49,0.1-0.67,0.29c-0.18,0.19-0.27,0.46-0.27,0.79v1.97
					h-0.77v-2.22c0-0.28-0.07-0.49-0.2-0.63c-0.13-0.13-0.32-0.2-0.54-0.2c-0.15,0-0.3,0.04-0.45,0.12
					c-0.14,0.08-0.26,0.2-0.35,0.37c-0.09,0.17-0.14,0.38-0.14,0.64v1.92h-0.77v-3.61h0.69l0.04,0.6c0.12-0.22,0.28-0.39,0.49-0.5
					c0.21-0.11,0.43-0.17,0.68-0.17c0.27,0,0.51,0.06,0.73,0.18c0.22,0.12,0.38,0.3,0.49,0.54c0.11-0.24,0.28-0.42,0.51-0.54
					c0.23-0.12,0.47-0.18,0.73-0.18C148.96,545.23,149.18,545.28,149.39,545.37z"/>
				<path class="st28" d="M157.17,545.73c0.32,0.33,0.48,0.79,0.48,1.38c0,0.59-0.16,1.05-0.48,1.38c-0.32,0.33-0.76,0.5-1.32,0.5
					c-0.56,0-1-0.17-1.32-0.5c-0.32-0.33-0.48-0.79-0.48-1.38c0-0.59,0.16-1.05,0.48-1.38c0.32-0.33,0.76-0.5,1.32-0.5
					C156.41,545.23,156.85,545.39,157.17,545.73z M155.09,546.16c-0.18,0.22-0.26,0.53-0.26,0.94c0,0.41,0.09,0.72,0.26,0.94
					c0.18,0.22,0.43,0.33,0.76,0.33c0.33,0,0.58-0.11,0.76-0.33c0.18-0.22,0.27-0.53,0.27-0.94c0-0.4-0.09-0.72-0.27-0.94
					c-0.18-0.22-0.43-0.33-0.76-0.33C155.52,545.83,155.27,545.94,155.09,546.16z"/>
				<path class="st28" d="M162,548.8c-0.28-0.13-0.49-0.32-0.64-0.57l0.52-0.45c0.09,0.21,0.23,0.36,0.43,0.46
					c0.19,0.1,0.42,0.14,0.69,0.14c0.25,0,0.44-0.04,0.57-0.12c0.13-0.08,0.2-0.18,0.2-0.31c0-0.12-0.06-0.21-0.19-0.28
					c-0.13-0.07-0.34-0.14-0.65-0.2c-0.53-0.1-0.91-0.24-1.13-0.4c-0.22-0.17-0.33-0.41-0.33-0.72c0-0.2,0.06-0.38,0.18-0.55
					c0.12-0.17,0.29-0.31,0.52-0.41c0.23-0.1,0.5-0.16,0.81-0.16c0.4,0,0.72,0.07,0.96,0.2c0.24,0.13,0.43,0.34,0.56,0.62l-0.55,0.4
					c-0.09-0.21-0.21-0.37-0.36-0.47c-0.16-0.1-0.36-0.15-0.6-0.15c-0.22,0-0.4,0.04-0.54,0.13c-0.14,0.09-0.21,0.19-0.21,0.31
					c0,0.13,0.06,0.23,0.19,0.31c0.13,0.08,0.36,0.15,0.7,0.21c0.51,0.09,0.87,0.22,1.08,0.39c0.21,0.17,0.32,0.4,0.32,0.71
					c0,0.32-0.14,0.59-0.42,0.79c-0.28,0.2-0.66,0.3-1.16,0.3C162.61,548.98,162.29,548.92,162,548.8z"/>
				<path class="st28" d="M171.64,545.72c0.28,0.33,0.43,0.79,0.43,1.38c0,0.59-0.14,1.05-0.43,1.38c-0.28,0.33-0.67,0.5-1.17,0.5
					c-0.26,0-0.49-0.06-0.7-0.17c-0.2-0.12-0.36-0.27-0.47-0.48v2.1h-0.77v-5.13h0.68l0.04,0.67c0.11-0.23,0.27-0.41,0.48-0.54
					c0.21-0.13,0.46-0.2,0.75-0.2C170.96,545.23,171.35,545.39,171.64,545.72z M171.03,548.03c0.18-0.22,0.26-0.53,0.26-0.92
					c0-0.39-0.09-0.7-0.26-0.92c-0.18-0.22-0.42-0.33-0.73-0.33c-0.29,0-0.53,0.1-0.7,0.3c-0.18,0.2-0.27,0.47-0.29,0.82v0.27
					c0.02,0.35,0.12,0.62,0.29,0.82c0.18,0.2,0.41,0.3,0.7,0.3C170.61,548.35,170.85,548.25,171.03,548.03z"/>
				<path class="st28" d="M179.02,545.57c0.25,0.23,0.38,0.56,0.38,1v2.34h-0.77v-2.1c0-0.64-0.26-0.95-0.77-0.95
					c-0.27,0-0.5,0.09-0.69,0.28c-0.19,0.19-0.29,0.47-0.29,0.86v1.91h-0.77v-5.24h0.77v2.2c0.12-0.22,0.28-0.39,0.48-0.49
					c0.2-0.11,0.43-0.16,0.69-0.16C178.45,545.23,178.77,545.34,179.02,545.57z"/>
				<path class="st28" d="M186.81,547.39h-2.64c0.04,0.32,0.16,0.56,0.34,0.73c0.18,0.17,0.42,0.25,0.71,0.25
					c0.24,0,0.43-0.04,0.59-0.13c0.16-0.08,0.26-0.21,0.32-0.36l0.64,0.27c-0.27,0.56-0.79,0.84-1.55,0.84
					c-0.57,0-1.01-0.17-1.33-0.5c-0.32-0.33-0.48-0.79-0.48-1.38c0-0.59,0.15-1.05,0.46-1.38c0.31-0.33,0.74-0.49,1.3-0.49
					c0.53,0,0.94,0.16,1.24,0.48c0.29,0.32,0.44,0.75,0.44,1.29C186.84,547.14,186.83,547.27,186.81,547.39z M184.49,546.09
					c-0.17,0.16-0.28,0.4-0.32,0.72h1.95c-0.04-0.3-0.14-0.54-0.31-0.71c-0.17-0.17-0.38-0.25-0.65-0.25
					C184.88,545.84,184.66,545.92,184.49,546.09z"/>
				<path class="st28" d="M193.1,545.3l-0.12,0.71c-0.11-0.06-0.26-0.09-0.46-0.09c-0.15,0-0.3,0.04-0.44,0.12
					c-0.14,0.08-0.25,0.2-0.34,0.37c-0.09,0.16-0.13,0.36-0.13,0.59v1.91h-0.77v-3.61h0.66l0.06,0.65c0.2-0.48,0.58-0.72,1.14-0.72
					C192.87,545.23,193,545.25,193.1,545.3z"/>
				<path class="st28" d="M199.97,547.39h-2.64c0.04,0.32,0.16,0.56,0.34,0.73c0.18,0.17,0.42,0.25,0.71,0.25
					c0.24,0,0.43-0.04,0.59-0.13c0.16-0.08,0.26-0.21,0.32-0.36l0.64,0.27c-0.27,0.56-0.79,0.84-1.55,0.84
					c-0.57,0-1.01-0.17-1.33-0.5c-0.32-0.33-0.48-0.79-0.48-1.38c0-0.59,0.15-1.05,0.46-1.38c0.31-0.33,0.74-0.49,1.3-0.49
					c0.53,0,0.94,0.16,1.24,0.48c0.29,0.32,0.44,0.75,0.44,1.29C200,547.14,199.99,547.27,199.97,547.39z M197.65,546.09
					c-0.17,0.16-0.28,0.4-0.32,0.72h1.95c-0.04-0.3-0.14-0.54-0.31-0.71c-0.17-0.17-0.38-0.25-0.65-0.25
					C198.04,545.84,197.82,545.92,197.65,546.09z"/>
			</g>
			<g>
				<path class="st28" d="M82.51,521.93c1.12,0.97,1.68,2.34,1.68,4.11c0,1.72-0.56,3.06-1.68,4.02c-1.12,0.96-2.69,1.44-4.7,1.44
					h-3.65v6.31h-3.63v-17.34h7.28C79.82,520.47,81.39,520.96,82.51,521.93z M79.72,528.02c0.53-0.45,0.79-1.12,0.79-2.01
					c0-0.89-0.26-1.56-0.79-2c-0.53-0.44-1.35-0.66-2.47-0.66h-3.1v5.33h3.1C78.38,528.69,79.2,528.47,79.72,528.02z"/>
				<path class="st28" d="M99.98,533.58h-6.67l-1.42,4.23h-3.7l6.33-17.34h4.33l6.33,17.34h-3.76L99.98,533.58z M99.09,530.9
					l-1.63-4.89l-0.79-2.63h-0.05l-0.74,2.57l-1.68,4.94H99.09z"/>
				<path class="st28" d="M123.47,536.8c-1.3,0.85-2.85,1.27-4.65,1.27c-1.7,0-3.18-0.36-4.44-1.08c-1.26-0.72-2.23-1.75-2.9-3.09
					c-0.67-1.34-1.01-2.93-1.01-4.77s0.34-3.43,1.01-4.77c0.67-1.34,1.64-2.37,2.89-3.09c1.25-0.72,2.72-1.08,4.4-1.08
					c1.8,0,3.33,0.38,4.58,1.13c1.25,0.75,2.11,1.87,2.59,3.36l-3.28,1.39c-0.28-1.03-0.72-1.78-1.31-2.23
					c-0.6-0.46-1.4-0.68-2.42-0.68c-1.47,0-2.62,0.52-3.45,1.55c-0.83,1.03-1.25,2.5-1.25,4.41c0,1.91,0.4,3.38,1.21,4.41
					c0.81,1.03,1.94,1.55,3.42,1.55c2.12,0,3.45-1.02,3.99-3.07l3.34,1C125.66,534.69,124.76,535.95,123.47,536.8z"/>
				<path class="st28" d="M146.24,534.89v2.92h-12.77v-17.34h3.63v14.42H146.24z"/>
				<path class="st28" d="M157.09,537.81h-3.63v-17.34h3.63V537.81z"/>
				<path class="st28" d="M169.44,523.39v4.39h7.38v2.94h-7.38v7.09h-3.63v-17.34h12.98v2.92H169.44z"/>
				<path class="st28" d="M199.47,534.89v2.92H186.1v-17.34h13v2.92h-9.38v4.31h7.38v2.78h-7.38v4.41H199.47z"/>
			</g>
		</g>
	</g>
</g>
<g id="Capa_14">
</g>
<g id="computador">
</g>
<g id="Modo_de_aislamiento">
</g>
<g id="Capa_16">
</g>
<g id="_x31_">
</g>
<g id="Capa_18">
</g>
</svg>
